<?xml version="1.0" encoding="UTF-8"?>
<svg xmlns="http://www.w3.org/2000/svg" xmlns:xlink="http://www.w3.org/1999/xlink" width="200px" height="200px" viewBox="0 0 200 200" version="1.1">
<g id="surface1">
<path style="fill:none;stroke-width:2;stroke-linecap:butt;stroke-linejoin:miter;stroke:rgb(48.627451%,70.980392%,86.666667%);stroke-opacity:1;stroke-miterlimit:4;" d="M 120.140625 216.979687 L 179.479687 200.489062 C 179.798438 200.4 180.032813 200.128125 180.089062 199.8 C 180.609375 196.471875 180.492188 193.129687 181.101562 189.829688 C 181.570312 187.289062 181.640625 183.660937 181.8 182.071875 C 182.629687 173.86875 183.271875 165.660937 183.998437 157.448437 C 185.79375 137.376563 187.645312 117.309375 189.557812 97.251562 C 190.485938 87.529687 191.339062 77.798437 192.121875 68.057812 C 192.257812 66.239063 192.759375 63.942187 192.820312 61.842187 C 192.928125 58.101562 193.78125 54.73125 193.509375 50.98125 C 193.457812 50.390625 193.78125 49.659375 194.1 49.228125 C 194.278125 49.003125 194.315625 48.689062 194.184375 48.426562 C 194.057812 48.164062 193.790625 48 193.5 48 L 45.220312 48.009375 C 45.046875 48.009375 44.878125 48.09375 44.775 48.229687 C 44.667187 48.370312 44.634375 48.553125 44.68125 48.721875 C 45.529688 51.689062 44.948437 54.28125 45.651562 57.15 C 46.05 58.8 45.979687 60.75 46.092188 61.940625 C 50.625 110.348438 53.428125 141.117188 54.501562 154.251563 C 55.2 162.848437 56.189062 171.440625 56.840625 180.042187 C 57.046875 182.71875 57.295313 185.395312 57.58125 188.057812 C 57.857812 190.729687 58.03125 195.998437 58.771875 199.889062 C 58.828125 200.207812 59.015625 200.414062 59.329687 200.498437 L 118.607812 216.979687 C 119.109375 217.115625 119.634375 217.115625 120.140625 216.979687 " transform="matrix(0.833333,0,0,0.833333,0,0)"/>
<path style="fill:none;stroke-width:2;stroke-linecap:butt;stroke-linejoin:miter;stroke:rgb(57.647059%,76.470588%,89.019608%);stroke-opacity:1;stroke-miterlimit:4;" d="M 119.207812 78.989063 L 72.76875 79.06875 C 72.660938 79.06875 72.557812 79.115625 72.4875 79.195312 C 72.4125 79.275 72.379688 79.382812 72.389062 79.490625 L 74.160938 97.157812 C 74.221875 97.776562 74.742188 98.25 75.370312 98.25 L 119.489062 98.409375 " transform="matrix(0.833333,0,0,0.833333,0,0)"/>
<path style="fill:none;stroke-width:2;stroke-linecap:butt;stroke-linejoin:miter;stroke:rgb(33.72549%,65.098039%,86.666667%);stroke-opacity:1;stroke-miterlimit:4;" d="M 119.489062 98.409375 L 119.507812 116.751562 " transform="matrix(0.833333,0,0,0.833333,0,0)"/>
<path style="fill:none;stroke-width:2;stroke-linecap:butt;stroke-linejoin:miter;stroke:rgb(57.647059%,76.470588%,89.019608%);stroke-opacity:1;stroke-miterlimit:4;" d="M 119.507812 116.751562 L 76.157812 116.751562 C 75.801563 116.751562 75.6375 116.925 75.670312 117.28125 L 77.160938 134.728125 C 77.198437 135.145312 77.535938 135.459375 77.939062 135.459375 L 119.578125 135.46875 " transform="matrix(0.833333,0,0,0.833333,0,0)"/>
<path style="fill:none;stroke-width:2;stroke-linecap:butt;stroke-linejoin:miter;stroke:rgb(33.72549%,65.098039%,86.666667%);stroke-opacity:1;stroke-miterlimit:4;" d="M 119.578125 135.46875 L 119.4 164.610938 C 119.395312 164.775 119.339062 164.925 119.240625 165.060937 L 118.96875 165.398438 " transform="matrix(0.833333,0,0,0.833333,0,0)"/>
<path style="fill:none;stroke-width:2;stroke-linecap:butt;stroke-linejoin:miter;stroke:rgb(57.647059%,76.470588%,89.019608%);stroke-opacity:1;stroke-miterlimit:4;" d="M 118.96875 165.398438 L 98.929688 159.979687 C 98.648438 159.9 98.498437 159.717187 98.470312 159.43125 L 97.509375 145.659375 C 97.471875 145.134375 97.185937 144.871875 96.660938 144.88125 L 78.909375 144.928125 C 78.740625 144.928125 78.576562 145.003125 78.459375 145.129687 C 78.342187 145.25625 78.285938 145.425 78.3 145.598437 L 80.859375 174.88125 C 80.873437 175.017188 80.971875 175.134375 81.107812 175.171875 L 119.390625 185.657813 " transform="matrix(0.833333,0,0,0.833333,0,0)"/>
<path style="fill:none;stroke-width:2;stroke-linecap:butt;stroke-linejoin:miter;stroke:rgb(33.72549%,65.098039%,86.666667%);stroke-opacity:1;stroke-miterlimit:4;" d="M 119.390625 185.657813 L 119.320312 203.442187 C 119.320312 203.596875 119.395312 203.746875 119.517187 203.840625 C 119.639062 203.939063 119.798437 203.971875 119.948437 203.929688 L 168.820312 190.959375 C 168.9375 190.93125 169.021875 190.828125 169.03125 190.710938 L 180.201562 60.459375 C 180.234375 60.098437 180.070312 59.920312 179.709375 59.920312 L 119.948437 59.920312 C 119.53125 59.920312 119.320312 60.126562 119.320312 60.539062 L 119.207812 78.989063 " transform="matrix(0.833333,0,0,0.833333,0,0)"/>
<path style="fill:none;stroke-width:2;stroke-linecap:butt;stroke-linejoin:miter;stroke:rgb(68.235294%,81.176471%,89.803922%);stroke-opacity:1;stroke-miterlimit:4;" d="M 119.390625 185.657813 L 120.45 185.301562 " transform="matrix(0.833333,0,0,0.833333,0,0)"/>
<path style="fill:none;stroke-width:2;stroke-linecap:butt;stroke-linejoin:miter;stroke:rgb(72.156863%,85.098039%,93.72549%);stroke-opacity:1;stroke-miterlimit:4;" d="M 120.45 185.301562 L 157.21875 175.18125 C 157.565625 175.0875 157.757812 174.857812 157.790625 174.501563 L 166.171875 79.340625 C 166.176562 79.29375 166.1625 79.246875 166.129687 79.214062 C 166.096875 79.18125 166.05 79.157812 165.998437 79.157812 L 120.478125 79.228125 " transform="matrix(0.833333,0,0,0.833333,0,0)"/>
<path style="fill:none;stroke-width:2;stroke-linecap:butt;stroke-linejoin:miter;stroke:rgb(68.235294%,81.176471%,89.803922%);stroke-opacity:1;stroke-miterlimit:4;" d="M 120.478125 79.228125 L 119.207812 78.989063 " transform="matrix(0.833333,0,0,0.833333,0,0)"/>
<path style="fill:none;stroke-width:2;stroke-linecap:butt;stroke-linejoin:miter;stroke:rgb(96.078431%,96.078431%,96.078431%);stroke-opacity:1;stroke-miterlimit:4;" d="M 120.45 185.301562 L 120.051562 185.259375 C 119.676562 185.221875 119.49375 185.015625 119.498437 184.640625 C 119.540625 178.66875 119.498437 172.696875 119.371875 166.729687 C 119.3625 166.35 119.446875 166.054688 119.620312 165.848437 C 119.840625 165.590625 120.117188 165.407813 120.45 165.309375 " transform="matrix(0.833333,0,0,0.833333,0,0)"/>
<path style="fill:none;stroke-width:2;stroke-linecap:butt;stroke-linejoin:miter;stroke:rgb(72.156863%,85.098039%,93.72549%);stroke-opacity:1;stroke-miterlimit:4;" d="M 120.45 165.309375 L 139.420312 160.021875 C 139.879687 159.895312 140.217187 159.4875 140.259375 159 L 142.251563 135.721875 C 142.260937 135.595313 142.21875 135.478125 142.134375 135.384375 C 142.05 135.295312 141.932812 135.248437 141.810937 135.248437 L 120.707812 135.379687 " transform="matrix(0.833333,0,0,0.833333,0,0)"/>
<path style="fill:none;stroke-width:2;stroke-linecap:butt;stroke-linejoin:miter;stroke:rgb(96.078431%,96.078431%,96.078431%);stroke-opacity:1;stroke-miterlimit:4;" d="M 120.707812 135.379687 C 119.882812 135.314063 119.465625 135.01875 119.460938 134.498437 C 119.385937 128.83125 119.334375 123.16875 119.301562 117.501562 C 119.301562 117.28125 119.357812 117.13125 119.470312 117.051562 C 119.592187 116.957812 119.75625 116.892187 119.971875 116.859375 " transform="matrix(0.833333,0,0,0.833333,0,0)"/>
<path style="fill:none;stroke-width:2;stroke-linecap:butt;stroke-linejoin:miter;stroke:rgb(72.156863%,85.098039%,93.72549%);stroke-opacity:1;stroke-miterlimit:4;" d="M 119.971875 116.859375 L 142.509375 116.990625 C 143.179688 116.995312 143.746875 116.484375 143.807812 115.809375 L 145.429688 98.728125 C 145.439063 98.596875 145.396875 98.470312 145.307812 98.371875 C 145.21875 98.273438 145.092187 98.217187 144.960938 98.221875 L 121.439062 98.179688 " transform="matrix(0.833333,0,0,0.833333,0,0)"/>
<path style="fill:none;stroke-width:2;stroke-linecap:butt;stroke-linejoin:miter;stroke:rgb(96.078431%,96.078431%,96.078431%);stroke-opacity:1;stroke-miterlimit:4;" d="M 120.478125 79.228125 C 119.685937 79.425 119.296875 79.678125 119.310937 79.992188 C 119.489062 85.1625 119.53125 90.332813 119.428125 95.498437 C 119.390625 97.326562 120.060937 98.221875 121.439062 98.179688 " transform="matrix(0.833333,0,0,0.833333,0,0)"/>
<path style="fill:none;stroke-width:2;stroke-linecap:butt;stroke-linejoin:miter;stroke:rgb(68.235294%,81.176471%,89.803922%);stroke-opacity:1;stroke-miterlimit:4;" d="M 121.439062 98.179688 L 119.489062 98.409375 " transform="matrix(0.833333,0,0,0.833333,0,0)"/>
<path style="fill:none;stroke-width:2;stroke-linecap:butt;stroke-linejoin:miter;stroke:rgb(68.235294%,81.176471%,89.803922%);stroke-opacity:1;stroke-miterlimit:4;" d="M 120.45 165.309375 L 118.96875 165.398438 " transform="matrix(0.833333,0,0,0.833333,0,0)"/>
<path style="fill:none;stroke-width:2;stroke-linecap:butt;stroke-linejoin:miter;stroke:rgb(68.235294%,81.176471%,89.803922%);stroke-opacity:1;stroke-miterlimit:4;" d="M 119.971875 116.859375 C 119.835938 116.746875 119.68125 116.709375 119.507812 116.751562 " transform="matrix(0.833333,0,0,0.833333,0,0)"/>
<path style="fill:none;stroke-width:2;stroke-linecap:butt;stroke-linejoin:miter;stroke:rgb(68.235294%,81.176471%,89.803922%);stroke-opacity:1;stroke-miterlimit:4;" d="M 120.707812 135.379687 L 119.578125 135.46875 " transform="matrix(0.833333,0,0,0.833333,0,0)"/>
<path style=" stroke:none;fill-rule:nonzero;fill:rgb(73.72549%,81.568627%,87.058824%);fill-opacity:1;" d="M 94.898438 0 L 104.367188 0 C 125.457031 1.167969 143.964844 7.796875 159.898438 19.890625 C 184.273438 38.398438 197.640625 63.398438 200 94.890625 L 200 103.949219 C 198.820312 126.714844 191.304688 146.496094 177.441406 163.285156 C 159.023438 185.589844 134.90625 197.828125 105.082031 200 L 96.035156 200 C 63.648438 197.933594 38.046875 184.234375 19.226562 158.910156 C 7.589844 143.257812 1.183594 125.167969 0 104.640625 L 0 95.625 C 3.148438 46.675781 38.148438 7.351562 87.101562 0.976562 C 89.695312 0.636719 92.292969 0.3125 94.898438 0 Z M 100.117188 180.816406 L 149.566406 167.074219 C 149.832031 167 150.027344 166.773438 150.074219 166.5 C 150.507812 163.726562 150.410156 160.941406 150.917969 158.191406 C 151.308594 156.074219 151.367188 153.050781 151.5 151.726562 C 152.191406 144.890625 152.726562 138.050781 153.332031 131.207031 C 154.828125 114.480469 156.371094 97.757812 157.964844 81.042969 C 158.738281 72.941406 159.449219 64.832031 160.101562 56.714844 C 160.214844 55.199219 160.632812 53.285156 160.683594 51.535156 C 160.773438 48.417969 161.484375 45.609375 161.257812 42.484375 C 161.214844 41.992188 161.484375 41.382812 161.75 41.023438 C 161.898438 40.835938 161.929688 40.574219 161.820312 40.355469 C 161.714844 40.136719 161.492188 40 161.25 40 L 37.683594 40.007812 C 37.539062 40.007812 37.398438 40.078125 37.3125 40.191406 C 37.222656 40.308594 37.195312 40.460938 37.234375 40.601562 C 37.941406 43.074219 37.457031 45.234375 38.042969 47.625 C 38.375 49 38.316406 50.625 38.410156 51.617188 C 42.1875 91.957031 44.523438 117.597656 45.417969 128.542969 C 46 135.707031 46.824219 142.867188 47.367188 150.035156 C 47.539062 152.265625 47.746094 154.496094 47.984375 156.714844 C 48.214844 158.941406 48.359375 163.332031 48.976562 166.574219 C 49.023438 166.839844 49.179688 167.011719 49.441406 167.082031 L 98.839844 180.816406 C 99.257812 180.929688 99.695312 180.929688 100.117188 180.816406 Z M 100.117188 180.816406 "/>
<path style=" stroke:none;fill-rule:nonzero;fill:rgb(23.137255%,60.392157%,85.882353%);fill-opacity:1;" d="M 100.117188 180.816406 C 99.695312 180.929688 99.257812 180.929688 98.839844 180.816406 L 49.441406 167.082031 C 49.179688 167.011719 49.023438 166.839844 48.976562 166.574219 C 48.359375 163.332031 48.214844 158.941406 47.984375 156.714844 C 47.746094 154.496094 47.539062 152.265625 47.367188 150.035156 C 46.824219 142.867188 46 135.707031 45.417969 128.542969 C 44.523438 117.597656 42.1875 91.957031 38.410156 51.617188 C 38.316406 50.625 38.375 49 38.042969 47.625 C 37.457031 45.234375 37.941406 43.074219 37.234375 40.601562 C 37.195312 40.460938 37.222656 40.308594 37.3125 40.191406 C 37.398438 40.078125 37.539062 40.007812 37.683594 40.007812 L 161.25 40 C 161.492188 40 161.714844 40.136719 161.820312 40.355469 C 161.929688 40.574219 161.898438 40.835938 161.75 41.023438 C 161.484375 41.382812 161.214844 41.992188 161.257812 42.484375 C 161.484375 45.609375 160.773438 48.417969 160.683594 51.535156 C 160.632812 53.285156 160.214844 55.199219 160.101562 56.714844 C 159.449219 64.832031 158.738281 72.941406 157.964844 81.042969 C 156.371094 97.757812 154.828125 114.480469 153.332031 131.207031 C 152.726562 138.050781 152.191406 144.890625 151.5 151.726562 C 151.367188 153.050781 151.308594 156.074219 150.917969 158.191406 C 150.410156 160.941406 150.507812 163.726562 150.074219 166.5 C 150.027344 166.773438 149.832031 167 149.566406 167.074219 Z M 99.339844 65.824219 L 60.640625 65.890625 C 60.550781 65.890625 60.464844 65.929688 60.40625 65.996094 C 60.34375 66.0625 60.316406 66.152344 60.324219 66.242188 L 61.800781 80.964844 C 61.851562 81.480469 62.285156 81.875 62.808594 81.875 L 99.574219 82.007812 L 99.589844 97.292969 L 63.464844 97.292969 C 63.167969 97.292969 63.03125 97.4375 63.058594 97.734375 L 64.300781 112.273438 C 64.332031 112.621094 64.613281 112.882812 64.949219 112.882812 L 99.648438 112.890625 L 99.5 137.175781 C 99.496094 137.3125 99.449219 137.4375 99.367188 137.550781 L 99.140625 137.832031 L 82.441406 133.316406 C 82.207031 133.25 82.082031 133.097656 82.058594 132.859375 L 81.257812 121.382812 C 81.226562 120.945312 80.988281 120.726562 80.550781 120.734375 L 65.757812 120.773438 C 65.617188 120.773438 65.480469 120.835938 65.382812 120.941406 C 65.285156 121.046875 65.238281 121.1875 65.25 121.332031 L 67.382812 145.734375 C 67.394531 145.847656 67.476562 145.945312 67.589844 145.976562 L 99.492188 154.714844 L 99.433594 169.535156 C 99.433594 169.664062 99.496094 169.789062 99.597656 169.867188 C 99.699219 169.949219 99.832031 169.976562 99.957031 169.941406 L 140.683594 159.132812 C 140.78125 159.109375 140.851562 159.023438 140.859375 158.925781 L 150.167969 50.382812 C 150.195312 50.082031 150.058594 49.933594 149.757812 49.933594 L 99.957031 49.933594 C 99.609375 49.933594 99.433594 50.105469 99.433594 50.449219 Z M 99.339844 65.824219 "/>
<path style=" stroke:none;fill-rule:nonzero;fill:rgb(44.313725%,69.803922%,87.058824%);fill-opacity:1;" d="M 99.492188 154.714844 L 100.375 154.417969 L 131.015625 145.984375 C 131.304688 145.90625 131.464844 145.714844 131.492188 145.417969 L 138.476562 66.117188 C 138.480469 66.078125 138.46875 66.039062 138.441406 66.011719 C 138.414062 65.984375 138.375 65.964844 138.332031 65.964844 L 100.398438 66.023438 L 99.339844 65.824219 L 99.433594 50.449219 C 99.433594 50.105469 99.609375 49.933594 99.957031 49.933594 L 149.757812 49.933594 C 150.058594 49.933594 150.195312 50.082031 150.167969 50.382812 L 140.859375 158.925781 C 140.851562 159.023438 140.78125 159.109375 140.683594 159.132812 L 99.957031 169.941406 C 99.832031 169.976562 99.699219 169.949219 99.597656 169.867188 C 99.496094 169.789062 99.433594 169.664062 99.433594 169.535156 Z M 99.492188 154.714844 "/>
<path style=" stroke:none;fill-rule:nonzero;fill:rgb(92.156863%,92.156863%,92.156863%);fill-opacity:1;" d="M 99.339844 65.824219 L 100.398438 66.023438 C 99.738281 66.1875 99.414062 66.398438 99.425781 66.660156 C 99.574219 70.96875 99.609375 75.277344 99.523438 79.582031 C 99.492188 81.105469 100.050781 81.851562 101.199219 81.816406 L 99.574219 82.007812 L 62.808594 81.875 C 62.285156 81.875 61.851562 81.480469 61.800781 80.964844 L 60.324219 66.242188 C 60.316406 66.152344 60.34375 66.0625 60.40625 65.996094 C 60.464844 65.929688 60.550781 65.890625 60.640625 65.890625 Z M 99.339844 65.824219 "/>
<path style=" stroke:none;fill-rule:nonzero;fill:rgb(100%,100%,100%);fill-opacity:1;" d="M 100.375 154.417969 L 100.042969 154.382812 C 99.730469 154.351562 99.578125 154.179688 99.582031 153.867188 C 99.617188 148.890625 99.582031 143.914062 99.476562 138.941406 C 99.46875 138.625 99.539062 138.378906 99.683594 138.207031 C 99.867188 137.992188 100.097656 137.839844 100.375 137.757812 L 116.183594 133.351562 C 116.566406 133.246094 116.847656 132.90625 116.882812 132.5 L 118.542969 113.101562 C 118.550781 112.996094 118.515625 112.898438 118.445312 112.820312 C 118.375 112.746094 118.277344 112.707031 118.175781 112.707031 L 100.589844 112.816406 C 99.902344 112.761719 99.554688 112.515625 99.550781 112.082031 C 99.488281 107.359375 99.445312 102.640625 99.417969 97.917969 C 99.417969 97.734375 99.464844 97.609375 99.558594 97.542969 C 99.660156 97.464844 99.796875 97.410156 99.976562 97.382812 L 118.757812 97.492188 C 119.316406 97.496094 119.789062 97.070312 119.839844 96.507812 L 121.191406 82.273438 C 121.199219 82.164062 121.164062 82.058594 121.089844 81.976562 C 121.015625 81.894531 120.910156 81.847656 120.800781 81.851562 L 101.199219 81.816406 C 100.050781 81.851562 99.492188 81.105469 99.523438 79.582031 C 99.609375 75.277344 99.574219 70.96875 99.425781 66.660156 C 99.414062 66.398438 99.738281 66.1875 100.398438 66.023438 L 138.332031 65.964844 C 138.375 65.964844 138.414062 65.984375 138.441406 66.011719 C 138.46875 66.039062 138.480469 66.078125 138.476562 66.117188 L 131.492188 145.417969 C 131.464844 145.714844 131.304688 145.90625 131.015625 145.984375 Z M 100.375 154.417969 "/>
<path style=" stroke:none;fill-rule:nonzero;fill:rgb(44.313725%,69.803922%,87.058824%);fill-opacity:1;" d="M 101.199219 81.816406 L 120.800781 81.851562 C 120.910156 81.847656 121.015625 81.894531 121.089844 81.976562 C 121.164062 82.058594 121.199219 82.164062 121.191406 82.273438 L 119.839844 96.507812 C 119.789062 97.070312 119.316406 97.496094 118.757812 97.492188 L 99.976562 97.382812 C 99.863281 97.289062 99.734375 97.257812 99.589844 97.292969 L 99.574219 82.007812 Z M 101.199219 81.816406 "/>
<path style=" stroke:none;fill-rule:nonzero;fill:rgb(92.156863%,92.156863%,92.156863%);fill-opacity:1;" d="M 99.589844 97.292969 C 99.734375 97.257812 99.863281 97.289062 99.976562 97.382812 C 99.796875 97.410156 99.660156 97.464844 99.558594 97.542969 C 99.464844 97.609375 99.417969 97.734375 99.417969 97.917969 C 99.445312 102.640625 99.488281 107.359375 99.550781 112.082031 C 99.554688 112.515625 99.902344 112.761719 100.589844 112.816406 L 99.648438 112.890625 L 64.949219 112.882812 C 64.613281 112.882812 64.332031 112.621094 64.300781 112.273438 L 63.058594 97.734375 C 63.03125 97.4375 63.167969 97.292969 63.464844 97.292969 Z M 99.589844 97.292969 "/>
<path style=" stroke:none;fill-rule:nonzero;fill:rgb(44.313725%,69.803922%,87.058824%);fill-opacity:1;" d="M 100.589844 112.816406 L 118.175781 112.707031 C 118.277344 112.707031 118.375 112.746094 118.445312 112.820312 C 118.515625 112.898438 118.550781 112.996094 118.542969 113.101562 L 116.882812 132.5 C 116.847656 132.90625 116.566406 133.246094 116.183594 133.351562 L 100.375 137.757812 L 99.140625 137.832031 L 99.367188 137.550781 C 99.449219 137.4375 99.496094 137.3125 99.5 137.175781 L 99.648438 112.890625 Z M 100.589844 112.816406 "/>
<path style=" stroke:none;fill-rule:nonzero;fill:rgb(92.156863%,92.156863%,92.156863%);fill-opacity:1;" d="M 99.140625 137.832031 L 100.375 137.757812 C 100.097656 137.839844 99.867188 137.992188 99.683594 138.207031 C 99.539062 138.378906 99.46875 138.625 99.476562 138.941406 C 99.582031 143.914062 99.617188 148.890625 99.582031 153.867188 C 99.578125 154.179688 99.730469 154.351562 100.042969 154.382812 L 100.375 154.417969 L 99.492188 154.714844 L 67.589844 145.976562 C 67.476562 145.945312 67.394531 145.847656 67.382812 145.734375 L 65.25 121.332031 C 65.238281 121.1875 65.285156 121.046875 65.382812 120.941406 C 65.480469 120.835938 65.617188 120.773438 65.757812 120.773438 L 80.550781 120.734375 C 80.988281 120.726562 81.226562 120.945312 81.257812 121.382812 L 82.058594 132.859375 C 82.082031 133.097656 82.207031 133.25 82.441406 133.316406 Z M 99.140625 137.832031 "/>
</g>
</svg>
