<?xml version="1.0" encoding="UTF-8"?>
<svg xmlns="http://www.w3.org/2000/svg" xmlns:xlink="http://www.w3.org/1999/xlink" width="40px" height="40px" viewBox="0 0 40 40" version="1.1">
<g id="surface1">
<path style="fill:none;stroke-width:2;stroke-linecap:butt;stroke-linejoin:miter;stroke:rgb(43.921569%,49.411765%,50.196078%);stroke-opacity:1;stroke-miterlimit:4;" d="M 55.171875 52.828125 C 56.835938 56.578125 59.648438 59.15625 63.609375 60.609375 C 63.984375 60.75 64.125 61.007812 64.078125 61.382812 C 63.890625 62.53125 63.5625 64.570312 63.046875 67.5 C 61.171875 78.304688 62.460938 89.039062 62.90625 100.265625 C 63.023438 103.59375 63.257812 106.945312 63.539062 110.273438 C 63.820312 113.53125 64.03125 116.8125 64.195312 120.140625 C 64.21875 120.46875 64.054688 120.679688 63.726562 120.726562 C 59.085938 121.3125 55.101562 121.945312 51.796875 125.742188 C 50.109375 127.6875 50.015625 129.46875 51.515625 131.132812 C 51.75 131.390625 51.914062 131.671875 51.984375 132.023438 C 53.320312 137.578125 59.8125 133.59375 62.90625 131.648438 C 63.679688 131.15625 64.054688 131.390625 64.007812 132.304688 L 62.90625 155.53125 " transform="matrix(0.166667,0,0,0.166667,0,0)"/>
<path style="fill:none;stroke-width:2;stroke-linecap:butt;stroke-linejoin:miter;stroke:rgb(50.588235%,56.470588%,58.039216%);stroke-opacity:1;stroke-miterlimit:4;" d="M 62.90625 155.53125 C 62.625 173.039062 61.710938 185.203125 70.921875 198.65625 C 72.210938 200.507812 73.96875 202.03125 75.5625 203.648438 C 75.726562 203.789062 75.796875 204 75.773438 204.1875 C 75.773438 204.398438 75.65625 204.585938 75.492188 204.726562 C 73.945312 205.945312 72.351562 207.1875 70.710938 208.453125 C 67.289062 211.125 64.6875 217.59375 69.867188 220.007812 C 70.171875 220.148438 70.429688 220.359375 70.664062 220.617188 C 74.226562 224.742188 81.539062 217.21875 84.234375 215.039062 C 86.039062 213.5625 88.546875 212.789062 91.007812 213.445312 C 94.5 214.382812 98.039062 215.859375 101.390625 216.585938 C 111.46875 218.789062 119.882812 218.742188 132.703125 218.390625 C 133.3125 218.390625 134.039062 218.273438 134.859375 218.039062 C 136.59375 217.546875 139.148438 217.523438 140.34375 217.289062 C 147.070312 216.046875 153.328125 214.007812 159.140625 211.195312 C 159.914062 210.820312 160.851562 211.007812 161.414062 211.640625 C 164.15625 214.757812 168.632812 221.015625 172.992188 220.21875 C 175.3125 219.796875 176.953125 218.625 177.914062 216.726562 C 180.585938 211.429688 174.492188 206.203125 171.140625 203.273438 C 171.023438 203.179688 170.929688 203.015625 170.929688 202.828125 C 170.929688 202.664062 170.976562 202.5 171.09375 202.359375 C 176.554688 196.546875 180.234375 189.632812 182.085938 181.664062 " transform="matrix(0.166667,0,0,0.166667,0,0)"/>
<path style="fill:none;stroke-width:2;stroke-linecap:butt;stroke-linejoin:miter;stroke:rgb(43.921569%,49.411765%,50.196078%);stroke-opacity:1;stroke-miterlimit:4;" d="M 182.085938 181.664062 C 183.539062 178.242188 183.914062 173.601562 184.382812 169.945312 C 184.757812 167.109375 184.945312 163.828125 184.96875 160.03125 C 184.992188 150.539062 184.875 141.09375 184.59375 131.695312 C 184.59375 131.53125 184.6875 131.390625 184.828125 131.320312 C 184.96875 131.273438 185.132812 131.296875 185.25 131.390625 C 187.3125 133.195312 191.132812 134.835938 193.78125 133.40625 C 194.132812 133.21875 194.390625 132.890625 194.484375 132.515625 L 194.90625 130.96875 C 195.023438 130.546875 195.257812 130.21875 195.585938 129.960938 C 198.257812 127.921875 194.484375 123.726562 192.585938 122.554688 C 191.625 121.945312 190.171875 121.40625 188.226562 120.9375 C 186.609375 120.539062 185.085938 120.164062 183.65625 119.8125 " transform="matrix(0.166667,0,0,0.166667,0,0)"/>
<path style="fill:none;stroke-width:2;stroke-linecap:butt;stroke-linejoin:miter;stroke:rgb(64.705882%,91.372549%,94.901961%);stroke-opacity:1;stroke-miterlimit:4;" d="M 183.65625 119.8125 C 183.445312 109.640625 184.335938 99.070312 183.492188 88.007812 " transform="matrix(0.166667,0,0,0.166667,0,0)"/>
<path style="fill:none;stroke-width:2;stroke-linecap:butt;stroke-linejoin:miter;stroke:rgb(54.509804%,64.313725%,65.490196%);stroke-opacity:1;stroke-miterlimit:4;" d="M 183.492188 88.007812 C 183.304688 85.171875 183.210938 82.289062 183.1875 79.382812 C 183.164062 77.484375 182.53125 75.65625 182.390625 73.664062 C 182.132812 69.515625 181.476562 66.09375 180.75 62.25 C 180.539062 61.195312 179.742188 60.46875 179.953125 59.203125 C 180.023438 58.875 180.1875 58.617188 180.492188 58.476562 C 185.625 56.039062 190.21875 50.835938 189.398438 45.28125 C 188.226562 37.382812 180.445312 30.023438 172.007812 32.039062 C 171.070312 32.25 169.078125 33 166.03125 34.265625 C 165.726562 34.40625 165.421875 34.359375 165.140625 34.171875 C 157.59375 28.6875 150.679688 25.921875 141.703125 24.539062 C 136.289062 23.695312 130.476562 24.117188 124.78125 24.234375 C 124.734375 24.257812 122.226562 24.1875 117.234375 24.046875 C 104.859375 23.742188 88.429688 28.007812 79.148438 35.859375 C 78.445312 36.46875 77.4375 36.585938 76.617188 36.140625 C 65.109375 30.070312 51.914062 39.9375 55.171875 52.828125 " transform="matrix(0.166667,0,0,0.166667,0,0)"/>
<path style="fill:none;stroke-width:2;stroke-linecap:butt;stroke-linejoin:miter;stroke:rgb(31.764706%,57.254902%,60.392157%);stroke-opacity:1;stroke-miterlimit:4;" d="M 183.492188 88.007812 L 183.328125 115.3125 " transform="matrix(0.166667,0,0,0.166667,0,0)"/>
<path style="fill:none;stroke-width:2;stroke-linecap:butt;stroke-linejoin:miter;stroke:rgb(10.980392%,15.294118%,15.686275%);stroke-opacity:1;stroke-miterlimit:4;" d="M 183.328125 115.3125 C 182.859375 116.671875 182.648438 118.148438 182.671875 119.765625 " transform="matrix(0.166667,0,0,0.166667,0,0)"/>
<path style="fill:none;stroke-width:2;stroke-linecap:butt;stroke-linejoin:miter;stroke:rgb(31.764706%,57.254902%,60.392157%);stroke-opacity:1;stroke-miterlimit:4;" d="M 182.671875 119.765625 C 181.96875 98.554688 183.023438 77.859375 178.101562 57.046875 " transform="matrix(0.166667,0,0,0.166667,0,0)"/>
<path style="fill:none;stroke-width:2;stroke-linecap:butt;stroke-linejoin:miter;stroke:rgb(10.980392%,15.294118%,15.686275%);stroke-opacity:1;stroke-miterlimit:4;" d="M 178.101562 57.046875 C 178.851562 56.648438 179.179688 56.320312 179.085938 56.0625 " transform="matrix(0.166667,0,0,0.166667,0,0)"/>
<path style="fill:none;stroke-width:2;stroke-linecap:butt;stroke-linejoin:miter;stroke:rgb(31.764706%,57.254902%,60.392157%);stroke-opacity:1;stroke-miterlimit:4;" d="M 179.085938 56.0625 C 179.109375 56.320312 179.179688 56.53125 179.296875 56.695312 C 179.507812 56.976562 179.765625 57.046875 180.09375 56.929688 C 196.757812 50.507812 183.234375 25.757812 167.695312 35.25 C 167.390625 35.4375 167.34375 35.695312 167.53125 36 C 167.882812 36.609375 168.398438 37.171875 169.03125 37.710938 " transform="matrix(0.166667,0,0,0.166667,0,0)"/>
<path style="fill:none;stroke-width:2;stroke-linecap:butt;stroke-linejoin:miter;stroke:rgb(10.980392%,15.294118%,15.686275%);stroke-opacity:1;stroke-miterlimit:4;" d="M 169.03125 37.710938 C 168.234375 37.734375 167.859375 37.992188 167.90625 38.460938 " transform="matrix(0.166667,0,0,0.166667,0,0)"/>
<path style="fill:none;stroke-width:2;stroke-linecap:butt;stroke-linejoin:miter;stroke:rgb(31.764706%,57.254902%,60.392157%);stroke-opacity:1;stroke-miterlimit:4;" d="M 167.90625 38.460938 C 159.210938 29.882812 147.46875 25.429688 135.257812 25.03125 C 123.632812 24.632812 114.28125 24.398438 101.507812 27.28125 C 87.5625 30.398438 75.960938 37.382812 69.28125 50.039062 " transform="matrix(0.166667,0,0,0.166667,0,0)"/>
<path style="fill:none;stroke-width:2;stroke-linecap:butt;stroke-linejoin:miter;stroke:rgb(10.980392%,15.294118%,15.686275%);stroke-opacity:1;stroke-miterlimit:4;" d="M 69.28125 50.039062 C 69.023438 48.585938 69.515625 47.414062 70.757812 46.476562 C 71.015625 46.289062 71.132812 45.960938 71.039062 45.65625 C 70.570312 43.710938 66.820312 44.0625 65.203125 43.96875 " transform="matrix(0.166667,0,0,0.166667,0,0)"/>
<path style="fill:none;stroke-width:2;stroke-linecap:butt;stroke-linejoin:miter;stroke:rgb(31.764706%,57.254902%,60.392157%);stroke-opacity:1;stroke-miterlimit:4;" d="M 65.203125 43.96875 C 66.890625 43.101562 68.625 43.101562 70.429688 43.96875 C 70.78125 44.132812 71.0625 44.085938 71.296875 43.804688 L 76.242188 38.179688 C 76.5 37.875 76.453125 37.640625 76.101562 37.453125 C 71.882812 35.273438 67.851562 35.085938 64.007812 36.867188 C 57.75 39.773438 55.101562 44.8125 56.085938 52.03125 " transform="matrix(0.166667,0,0,0.166667,0,0)"/>
<path style="fill:none;stroke-width:2;stroke-linecap:butt;stroke-linejoin:miter;stroke:rgb(10.980392%,15.294118%,15.686275%);stroke-opacity:1;stroke-miterlimit:4;" d="M 56.085938 52.03125 C 55.96875 52.148438 55.828125 52.171875 55.664062 52.078125 C 55.476562 51.984375 55.359375 52.03125 55.3125 52.242188 L 55.171875 52.828125 " transform="matrix(0.166667,0,0,0.166667,0,0)"/>
<path style="fill:none;stroke-width:2;stroke-linecap:butt;stroke-linejoin:miter;stroke:rgb(7.058824%,7.45098%,7.843137%);stroke-opacity:1;stroke-miterlimit:4;" d="M 182.085938 181.664062 C 181.875 181.828125 181.710938 182.039062 181.570312 182.296875 C 181.429688 182.507812 181.359375 182.507812 181.335938 182.25 L 181.21875 181.148438 " transform="matrix(0.166667,0,0,0.166667,0,0)"/>
<path style="fill:none;stroke-width:2;stroke-linecap:butt;stroke-linejoin:miter;stroke:rgb(20.784314%,42.352941%,45.098039%);stroke-opacity:1;stroke-miterlimit:4;" d="M 183.65625 119.8125 L 183.328125 115.3125 " transform="matrix(0.166667,0,0,0.166667,0,0)"/>
<path style="fill:none;stroke-width:2;stroke-linecap:butt;stroke-linejoin:miter;stroke:rgb(20.784314%,42.352941%,45.098039%);stroke-opacity:1;stroke-miterlimit:4;" d="M 179.085938 56.0625 L 176.648438 49.382812 C 176.507812 49.007812 176.554688 48.632812 176.742188 48.28125 L 177.9375 46.242188 C 178.078125 46.007812 178.125 45.773438 178.101562 45.515625 C 177.84375 41.742188 175.875 40.148438 172.195312 40.710938 C 171.820312 40.78125 171.492188 40.640625 171.257812 40.359375 L 169.03125 37.710938 " transform="matrix(0.166667,0,0,0.166667,0,0)"/>
<path style="fill:none;stroke-width:2;stroke-linecap:butt;stroke-linejoin:miter;stroke:rgb(20.784314%,42.352941%,45.098039%);stroke-opacity:1;stroke-miterlimit:4;" d="M 167.90625 38.460938 C 171.796875 42.328125 174.070312 45.257812 174.75 47.25 C 175.875 50.507812 177 53.765625 178.101562 57.046875 " transform="matrix(0.166667,0,0,0.166667,0,0)"/>
<path style="fill:none;stroke-width:2;stroke-linecap:butt;stroke-linejoin:miter;stroke:rgb(20.784314%,42.352941%,45.098039%);stroke-opacity:1;stroke-miterlimit:4;" d="M 182.671875 119.765625 C 184.171875 138.28125 185.953125 161.765625 181.21875 181.148438 " transform="matrix(0.166667,0,0,0.166667,0,0)"/>
<path style="fill:none;stroke-width:2;stroke-linecap:butt;stroke-linejoin:miter;stroke:rgb(27.843137%,49.411765%,52.941176%);stroke-opacity:1;stroke-miterlimit:4;" d="M 181.21875 181.148438 C 177.023438 194.953125 170.742188 203.789062 157.453125 210.398438 C 143.015625 217.570312 127.03125 218.132812 111.257812 217.054688 C 91.101562 215.695312 70.21875 204.890625 65.367188 183.492188 C 63.140625 173.695312 63.75 164.71875 63.609375 155.203125 " transform="matrix(0.166667,0,0,0.166667,0,0)"/>
<path style="fill:none;stroke-width:2;stroke-linecap:butt;stroke-linejoin:miter;stroke:rgb(20.784314%,42.352941%,45.098039%);stroke-opacity:1;stroke-miterlimit:4;" d="M 63.609375 155.203125 C 63.726562 150.726562 63.867188 147.820312 64.03125 146.507812 C 65.554688 132.890625 65.8125 120.796875 64.804688 110.25 C 63.023438 91.757812 61.265625 73.898438 66.679688 55.757812 C 67.195312 54.023438 68.0625 52.125 69.28125 50.039062 " transform="matrix(0.166667,0,0,0.166667,0,0)"/>
<path style="fill:none;stroke-width:2;stroke-linecap:butt;stroke-linejoin:miter;stroke:rgb(20.784314%,42.352941%,45.098039%);stroke-opacity:1;stroke-miterlimit:4;" d="M 65.203125 43.96875 C 62.90625 45.914062 62.414062 48.09375 63.75 50.460938 C 63.9375 50.8125 64.171875 51.070312 64.5 51.28125 L 66.070312 52.3125 C 66.492188 52.59375 66.609375 52.945312 66.46875 53.414062 L 64.59375 59.25 C 64.476562 59.578125 64.242188 59.695312 63.914062 59.578125 C 60.046875 58.335938 57.445312 55.828125 56.085938 52.03125 " transform="matrix(0.166667,0,0,0.166667,0,0)"/>
<path style="fill:none;stroke-width:2;stroke-linecap:butt;stroke-linejoin:miter;stroke:rgb(7.058824%,7.45098%,7.843137%);stroke-opacity:1;stroke-miterlimit:4;" d="M 63.609375 155.203125 L 63.398438 156.632812 C 63.351562 156.9375 63.257812 156.960938 63.117188 156.679688 C 62.976562 156.398438 62.90625 156.023438 62.90625 155.53125 " transform="matrix(0.166667,0,0,0.166667,0,0)"/>
<path style="fill:none;stroke-width:2;stroke-linecap:butt;stroke-linejoin:miter;stroke:rgb(20.784314%,42.352941%,45.098039%);stroke-opacity:1;stroke-miterlimit:4;" d="M 124.921875 54.703125 C 129 77.53125 168.703125 72.140625 162.304688 46.429688 " transform="matrix(0.166667,0,0,0.166667,0,0)"/>
<path style="fill:none;stroke-width:2;stroke-linecap:butt;stroke-linejoin:miter;stroke:rgb(31.764706%,57.254902%,60.392157%);stroke-opacity:1;stroke-miterlimit:4;" d="M 162.304688 46.429688 C 156.632812 24.75 121.96875 32.367188 124.921875 54.703125 " transform="matrix(0.166667,0,0,0.166667,0,0)"/>
<path style="fill:none;stroke-width:2;stroke-linecap:butt;stroke-linejoin:miter;stroke:rgb(10.980392%,15.294118%,15.686275%);stroke-opacity:1;stroke-miterlimit:4;" d="M 162.304688 46.429688 C 162.1875 46.546875 162.046875 46.617188 161.90625 46.640625 C 161.671875 46.6875 161.53125 46.804688 161.484375 47.039062 L 161.390625 47.507812 " transform="matrix(0.166667,0,0,0.166667,0,0)"/>
<path style="fill:none;stroke-width:2;stroke-linecap:butt;stroke-linejoin:miter;stroke:rgb(60.784314%,65.098039%,65.490196%);stroke-opacity:1;stroke-miterlimit:4;" d="M 161.390625 47.507812 C 155.390625 26.671875 124.078125 33.632812 125.976562 54.46875 " transform="matrix(0.166667,0,0,0.166667,0,0)"/>
<path style="fill:none;stroke-width:2;stroke-linecap:butt;stroke-linejoin:miter;stroke:rgb(10.980392%,15.294118%,15.686275%);stroke-opacity:1;stroke-miterlimit:4;" d="M 125.976562 54.46875 L 125.507812 51.609375 C 125.484375 51.492188 125.414062 51.421875 125.273438 51.445312 L 125.25 51.46875 C 125.15625 51.46875 125.085938 51.539062 125.085938 51.679688 L 124.921875 54.703125 " transform="matrix(0.166667,0,0,0.166667,0,0)"/>
<path style="fill:none;stroke-width:2;stroke-linecap:butt;stroke-linejoin:miter;stroke:rgb(50.196078%,50.196078%,50.196078%);stroke-opacity:1;stroke-miterlimit:4;" d="M 161.390625 47.507812 C 167.390625 70.195312 129.960938 76.5 125.976562 54.46875 " transform="matrix(0.166667,0,0,0.166667,0,0)"/>
<path style="fill:none;stroke-width:2;stroke-linecap:butt;stroke-linejoin:miter;stroke:rgb(27.843137%,49.411765%,52.941176%);stroke-opacity:1;stroke-miterlimit:4;" d="M 80.484375 62.0625 C 84.632812 68.859375 90.890625 71.835938 99.257812 70.96875 C 114.539062 69.445312 122.554688 53.132812 111.890625 41.039062 " transform="matrix(0.166667,0,0,0.166667,0,0)"/>
<path style="fill:none;stroke-width:2;stroke-linecap:butt;stroke-linejoin:miter;stroke:rgb(31.764706%,57.254902%,60.392157%);stroke-opacity:1;stroke-miterlimit:4;" d="M 111.890625 41.039062 C 104.695312 33.445312 92.53125 34.101562 84.679688 39.914062 C 78.398438 44.601562 75.773438 54.867188 80.484375 62.0625 " transform="matrix(0.166667,0,0,0.166667,0,0)"/>
<path style="fill:none;stroke-width:2;stroke-linecap:butt;stroke-linejoin:miter;stroke:rgb(17.647059%,22.352941%,23.529412%);stroke-opacity:1;stroke-miterlimit:4;" d="M 111.890625 41.039062 C 111.1875 41.015625 110.882812 41.226562 110.976562 41.648438 " transform="matrix(0.166667,0,0,0.166667,0,0)"/>
<path style="fill:none;stroke-width:2;stroke-linecap:butt;stroke-linejoin:miter;stroke:rgb(60.784314%,65.098039%,65.490196%);stroke-opacity:1;stroke-miterlimit:4;" d="M 110.976562 41.648438 C 104.484375 36.1875 94.898438 35.648438 87.914062 39.726562 C 79.546875 44.578125 77.835938 53.601562 81.773438 62.203125 " transform="matrix(0.166667,0,0,0.166667,0,0)"/>
<path style="fill:none;stroke-width:2;stroke-linecap:butt;stroke-linejoin:miter;stroke:rgb(17.647059%,22.352941%,23.529412%);stroke-opacity:1;stroke-miterlimit:4;" d="M 81.773438 62.203125 C 80.554688 61.265625 80.132812 61.21875 80.484375 62.0625 " transform="matrix(0.166667,0,0,0.166667,0,0)"/>
<path style="fill:none;stroke-width:2;stroke-linecap:butt;stroke-linejoin:miter;stroke:rgb(56.862745%,57.254902%,58.039216%);stroke-opacity:1;stroke-miterlimit:4;" d="M 110.976562 41.648438 C 121.289062 53.25 113.15625 69.375 98.015625 70.03125 C 90.84375 70.359375 85.429688 67.734375 81.773438 62.203125 " transform="matrix(0.166667,0,0,0.166667,0,0)"/>
<path style="fill:none;stroke-width:2;stroke-linecap:butt;stroke-linejoin:miter;stroke:rgb(27.843137%,49.411765%,52.941176%);stroke-opacity:1;stroke-miterlimit:4;" d="M 112.734375 83.25 C 112.851562 85.101562 112.992188 86.953125 113.15625 88.78125 C 113.507812 93 117.304688 96.28125 120.75 92.484375 " transform="matrix(0.166667,0,0,0.166667,0,0)"/>
<path style="fill:none;stroke-width:2;stroke-linecap:butt;stroke-linejoin:miter;stroke:rgb(20.784314%,42.352941%,45.098039%);stroke-opacity:1;stroke-miterlimit:4;" d="M 120.75 92.484375 C 121.476562 91.828125 122.203125 91.898438 122.976562 92.671875 C 125.8125 95.554688 130.945312 94.171875 130.6875 89.742188 C 130.570312 87.796875 130.476562 85.851562 130.429688 83.859375 C 130.40625 83.484375 130.59375 83.34375 130.96875 83.390625 C 133.804688 83.882812 135.914062 83.085938 137.320312 80.976562 C 140.507812 76.195312 134.929688 72.09375 131.320312 70.101562 C 131.039062 69.9375 130.851562 69.703125 130.78125 69.375 C 130.195312 66.703125 128.8125 65.039062 126.585938 64.382812 C 121.710938 62.929688 116.109375 64.007812 114.140625 69.539062 C 114.023438 69.867188 113.8125 70.078125 113.507812 70.195312 C 109.570312 71.742188 107.71875 74.484375 107.976562 78.421875 C 108.164062 81.210938 109.992188 83.039062 112.734375 83.25 " transform="matrix(0.166667,0,0,0.166667,0,0)"/>
<path style="fill:none;stroke-width:2;stroke-linecap:butt;stroke-linejoin:miter;stroke:rgb(7.058824%,7.45098%,7.843137%);stroke-opacity:1;stroke-miterlimit:4;" d="M 120.75 92.484375 C 120.5625 92.625 120.46875 92.273438 120.515625 91.382812 " transform="matrix(0.166667,0,0,0.166667,0,0)"/>
<path style="fill:none;stroke-width:2;stroke-linecap:butt;stroke-linejoin:miter;stroke:rgb(50.196078%,50.196078%,50.196078%);stroke-opacity:1;stroke-miterlimit:4;" d="M 120.515625 91.382812 C 120.960938 91.242188 121.171875 90.960938 121.148438 90.492188 C 120.890625 87.5625 121.054688 84.703125 121.59375 81.960938 C 121.640625 81.726562 121.546875 81.515625 121.382812 81.375 C 121.21875 81.210938 121.007812 81.164062 120.796875 81.234375 L 114.046875 83.390625 " transform="matrix(0.166667,0,0,0.166667,0,0)"/>
<path style="fill:none;stroke-width:2;stroke-linecap:butt;stroke-linejoin:miter;stroke:rgb(7.058824%,7.45098%,7.843137%);stroke-opacity:1;stroke-miterlimit:4;" d="M 114.046875 83.390625 C 113.929688 83.4375 113.835938 83.53125 113.742188 83.601562 C 113.578125 83.765625 113.414062 83.765625 113.273438 83.578125 C 112.96875 83.15625 112.78125 83.0625 112.734375 83.25 " transform="matrix(0.166667,0,0,0.166667,0,0)"/>
<path style="fill:none;stroke-width:2;stroke-linecap:butt;stroke-linejoin:miter;stroke:rgb(56.862745%,57.254902%,58.039216%);stroke-opacity:1;stroke-miterlimit:4;" d="M 120.515625 91.382812 C 115.101562 97.359375 113.554688 86.8125 114.046875 83.390625 " transform="matrix(0.166667,0,0,0.166667,0,0)"/>
<path style="fill:none;stroke-width:2;stroke-linecap:butt;stroke-linejoin:miter;stroke:rgb(50.196078%,50.196078%,50.196078%);stroke-opacity:1;stroke-miterlimit:4;" d="M 134.554688 58.851562 C 137.484375 58.921875 139.898438 56.296875 139.96875 53.015625 C 140.039062 49.734375 137.695312 47.015625 134.765625 46.96875 C 131.835938 46.898438 129.421875 49.523438 129.351562 52.804688 C 129.28125 56.085938 131.625 58.804688 134.554688 58.851562 " transform="matrix(0.166667,0,0,0.166667,0,0)"/>
<path style="fill:none;stroke-width:2;stroke-linecap:butt;stroke-linejoin:miter;stroke:rgb(50.196078%,50.196078%,50.196078%);stroke-opacity:1;stroke-miterlimit:4;" d="M 83.882812 50.601562 C 81.5625 55.3125 84 61.195312 89.789062 60.210938 " transform="matrix(0.166667,0,0,0.166667,0,0)"/>
<path style="fill:none;stroke-width:2;stroke-linecap:butt;stroke-linejoin:miter;stroke:rgb(70.980392%,92.156863%,94.901961%);stroke-opacity:1;stroke-miterlimit:4;" d="M 89.789062 60.210938 C 91.335938 60.070312 92.320312 59.34375 92.765625 58.03125 " transform="matrix(0.166667,0,0,0.166667,0,0)"/>
<path style="fill:none;stroke-width:2;stroke-linecap:butt;stroke-linejoin:miter;stroke:rgb(50.196078%,50.196078%,50.196078%);stroke-opacity:1;stroke-miterlimit:4;" d="M 92.765625 58.03125 C 93.398438 57.164062 93.75 56.039062 93.820312 54.679688 " transform="matrix(0.166667,0,0,0.166667,0,0)"/>
<path style="fill:none;stroke-width:2;stroke-linecap:butt;stroke-linejoin:miter;stroke:rgb(70.980392%,92.156863%,94.901961%);stroke-opacity:1;stroke-miterlimit:4;" d="M 93.820312 54.679688 C 94.359375 53.484375 94.289062 52.382812 93.609375 51.421875 C 90.398438 46.851562 87.140625 46.570312 83.882812 50.601562 " transform="matrix(0.166667,0,0,0.166667,0,0)"/>
<path style="fill:none;stroke-width:2;stroke-linecap:butt;stroke-linejoin:miter;stroke:rgb(20.784314%,42.352941%,45.098039%);stroke-opacity:1;stroke-miterlimit:4;" d="M 93.820312 54.679688 C 92.578125 49.382812 89.109375 46.78125 83.882812 50.601562 " transform="matrix(0.166667,0,0,0.166667,0,0)"/>
<path style="fill:none;stroke-width:2;stroke-linecap:butt;stroke-linejoin:miter;stroke:rgb(20.784314%,42.352941%,45.098039%);stroke-opacity:1;stroke-miterlimit:4;" d="M 92.765625 58.03125 L 89.789062 60.210938 " transform="matrix(0.166667,0,0,0.166667,0,0)"/>
<path style="fill:none;stroke-width:2;stroke-linecap:butt;stroke-linejoin:miter;stroke:rgb(48.235294%,41.176471%,31.764706%);stroke-opacity:1;stroke-miterlimit:4;" d="M 55.078125 129.421875 C 54.773438 130.171875 54.234375 130.664062 53.4375 130.875 C 53.15625 130.96875 52.96875 131.226562 52.992188 131.507812 C 53.320312 136.992188 61.921875 131.085938 63.679688 130.078125 C 63.960938 129.914062 64.101562 129.679688 64.101562 129.375 L 64.335938 122.34375 C 64.359375 121.992188 64.195312 121.828125 63.867188 121.851562 C 59.34375 122.015625 52.710938 123.796875 51.445312 128.25 C 51.1875 129.140625 51.421875 129.75 52.148438 130.054688 C 52.40625 130.195312 52.6875 130.171875 52.945312 130.03125 L 54.632812 129.046875 C 54.75 128.976562 54.890625 128.976562 55.007812 129.070312 C 55.101562 129.164062 55.148438 129.304688 55.078125 129.421875 " transform="matrix(0.166667,0,0,0.166667,0,0)"/>
<path style="fill:none;stroke-width:2;stroke-linecap:butt;stroke-linejoin:miter;stroke:rgb(50.196078%,50.196078%,50.196078%);stroke-opacity:1;stroke-miterlimit:4;" d="M 138.46875 54.164062 C 138.46875 53.367188 137.835938 52.734375 137.039062 52.734375 C 136.242188 52.734375 135.585938 53.367188 135.585938 54.164062 C 135.585938 54.960938 136.242188 55.617188 137.039062 55.617188 C 137.835938 55.617188 138.46875 54.960938 138.46875 54.164062 " transform="matrix(0.166667,0,0,0.166667,0,0)"/>
<path style="fill:none;stroke-width:2;stroke-linecap:butt;stroke-linejoin:miter;stroke:rgb(50.196078%,50.196078%,50.196078%);stroke-opacity:1;stroke-miterlimit:4;" d="M 90.703125 57.257812 C 91.40625 57.304688 92.039062 56.648438 92.085938 55.757812 C 92.15625 54.890625 91.640625 54.140625 90.9375 54.09375 C 90.234375 54.023438 89.601562 54.703125 89.554688 55.570312 C 89.484375 56.4375 90 57.210938 90.703125 57.257812 " transform="matrix(0.166667,0,0,0.166667,0,0)"/>
<path style="fill:none;stroke-width:2;stroke-linecap:butt;stroke-linejoin:miter;stroke:rgb(48.235294%,41.176471%,31.764706%);stroke-opacity:1;stroke-miterlimit:4;" d="M 119.15625 80.71875 C 122.789062 79.710938 125.296875 79.96875 128.601562 81.375 C 131.859375 82.78125 134.507812 83.625 136.546875 80.367188 C 139.148438 76.171875 133.96875 72.304688 130.570312 71.132812 C 130.265625 71.015625 129.984375 71.0625 129.703125 71.25 C 125.742188 73.875 118.570312 75.117188 114.703125 71.390625 C 114.46875 71.15625 114.1875 71.085938 113.859375 71.203125 C 110.25 72.492188 108.632812 74.90625 109.007812 78.421875 C 109.664062 84.65625 115.851562 81.609375 119.15625 80.71875 " transform="matrix(0.166667,0,0,0.166667,0,0)"/>
<path style="fill:none;stroke-width:2;stroke-linecap:butt;stroke-linejoin:miter;stroke:rgb(50.196078%,50.196078%,50.196078%);stroke-opacity:1;stroke-miterlimit:4;" d="M 122.789062 82.125 C 122.671875 84.820312 121.640625 89.929688 123.679688 92.039062 C 124.570312 92.953125 125.414062 93.375 126.234375 93.28125 C 131.179688 92.765625 129.46875 87.820312 129.46875 84.140625 C 129.46875 83.203125 129.023438 82.59375 128.132812 82.289062 L 124.3125 81.070312 C 123.351562 80.765625 122.835938 81.117188 122.789062 82.125 " transform="matrix(0.166667,0,0,0.166667,0,0)"/>
<path style="fill:none;stroke-width:2;stroke-linecap:butt;stroke-linejoin:miter;stroke:rgb(48.235294%,41.176471%,31.764706%);stroke-opacity:1;stroke-miterlimit:4;" d="M 192.65625 128.460938 L 194.039062 129.492188 C 194.367188 129.726562 194.648438 129.703125 194.929688 129.421875 C 195.539062 128.765625 195.65625 127.875 195.234375 127.03125 C 193.289062 123.117188 188.53125 121.382812 184.382812 121.3125 C 184.054688 121.3125 183.914062 121.453125 183.9375 121.78125 L 184.429688 129.539062 C 184.453125 129.890625 184.617188 130.125 184.898438 130.265625 C 186.515625 131.039062 193.078125 135.492188 193.804688 131.179688 C 193.875 130.851562 193.757812 130.570312 193.5 130.359375 C 193.054688 130.03125 192.609375 129.703125 192.164062 129.375 C 192.046875 129.304688 191.976562 129.210938 191.953125 129.117188 C 191.882812 128.976562 191.882812 128.8125 191.929688 128.695312 C 192.046875 128.25 192.304688 128.179688 192.65625 128.460938 " transform="matrix(0.166667,0,0,0.166667,0,0)"/>
<path style="fill:none;stroke-width:2;stroke-linecap:butt;stroke-linejoin:miter;stroke:rgb(55.294118%,48.627451%,39.607843%);stroke-opacity:1;stroke-miterlimit:4;" d="M 172.5 211.78125 C 172.617188 211.734375 172.734375 211.734375 172.828125 211.828125 C 174.140625 213.234375 175.054688 214.875 175.5 216.75 C 175.546875 216.9375 175.710938 217.078125 175.875 217.101562 C 176.0625 217.148438 176.25 217.054688 176.367188 216.890625 C 179.4375 212.367188 173.460938 206.554688 170.109375 204.070312 C 169.992188 203.976562 169.875 203.976562 169.757812 204.070312 L 161.789062 209.8125 C 161.742188 209.859375 161.695312 209.929688 161.695312 210 C 161.671875 210.070312 161.71875 210.140625 161.765625 210.1875 C 163.945312 212.460938 166.21875 214.875 168.5625 217.429688 C 170.273438 219.257812 172.195312 219.585938 174.351562 218.4375 C 174.65625 218.273438 174.773438 217.921875 174.609375 217.617188 L 172.101562 212.53125 C 172.007812 212.320312 172.078125 212.085938 172.265625 211.945312 L 172.5 211.78125 " transform="matrix(0.166667,0,0,0.166667,0,0)"/>
<path style="fill:none;stroke-width:2;stroke-linecap:butt;stroke-linejoin:miter;stroke:rgb(55.294118%,48.627451%,39.607843%);stroke-opacity:1;stroke-miterlimit:4;" d="M 73.335938 213.375 C 73.453125 213.445312 73.476562 213.609375 73.40625 213.726562 C 72.304688 215.34375 68.789062 219.304688 72.210938 220.6875 C 74.039062 221.414062 77.25 219.398438 78.539062 218.320312 C 81.515625 215.71875 84.257812 213.703125 86.765625 212.203125 C 86.976562 212.085938 86.976562 211.945312 86.789062 211.828125 L 77.179688 205.617188 C 76.898438 205.429688 76.617188 205.429688 76.3125 205.617188 C 73.125 207.65625 69.375 210.210938 68.0625 213.960938 C 67.710938 214.96875 67.78125 215.953125 68.25 216.914062 L 68.507812 217.429688 C 68.882812 218.132812 69.28125 218.15625 69.703125 217.476562 L 72.46875 213.070312 C 72.5625 212.90625 72.703125 212.882812 72.867188 213 L 73.335938 213.375 " transform="matrix(0.166667,0,0,0.166667,0,0)"/>
<path style=" stroke:none;fill-rule:nonzero;fill:rgb(87.45098%,98.431373%,100%);fill-opacity:1;" d="M 18.992188 0 L 20.871094 0 C 31.34375 0.59375 39.246094 8.546875 40 18.980469 L 40 20.789062 C 39.441406 31.351562 31.386719 39.355469 20.851562 40 L 19.210938 40 C 14.957031 39.785156 11.226562 38.457031 8.019531 36.023438 C 3.070312 32.257812 0.394531 27.179688 0 20.777344 L 0 19.128906 C 0.640625 8.6875 8.535156 0.6875 18.992188 0 Z M 9.195312 8.804688 C 9.472656 9.429688 9.941406 9.859375 10.601562 10.101562 C 10.664062 10.125 10.6875 10.167969 10.679688 10.230469 C 10.648438 10.421875 10.59375 10.761719 10.507812 11.25 C 10.195312 13.050781 10.410156 14.839844 10.484375 16.710938 C 10.503906 17.265625 10.542969 17.824219 10.589844 18.378906 C 10.636719 18.921875 10.671875 19.46875 10.699219 20.023438 C 10.703125 20.078125 10.675781 20.113281 10.621094 20.121094 C 9.847656 20.21875 9.183594 20.324219 8.632812 20.957031 C 8.351562 21.28125 8.335938 21.578125 8.585938 21.855469 C 8.625 21.898438 8.652344 21.945312 8.664062 22.003906 C 8.886719 22.929688 9.96875 22.265625 10.484375 21.941406 C 10.613281 21.859375 10.675781 21.898438 10.667969 22.050781 L 10.484375 25.921875 C 10.4375 28.839844 10.285156 30.867188 11.820312 33.109375 C 12.035156 33.417969 12.328125 33.671875 12.59375 33.941406 C 12.621094 33.964844 12.632812 34 12.628906 34.03125 C 12.628906 34.066406 12.609375 34.097656 12.582031 34.121094 C 12.324219 34.324219 12.058594 34.53125 11.785156 34.742188 C 11.214844 35.1875 10.78125 36.265625 11.644531 36.667969 C 11.695312 36.691406 11.738281 36.726562 11.777344 36.769531 C 12.371094 37.457031 13.589844 36.203125 14.039062 35.839844 C 14.339844 35.59375 14.757812 35.464844 15.167969 35.574219 C 15.75 35.730469 16.339844 35.976562 16.898438 36.097656 C 18.578125 36.464844 19.980469 36.457031 22.117188 36.398438 C 22.21875 36.398438 22.339844 36.378906 22.476562 36.339844 C 22.765625 36.257812 23.191406 36.253906 23.390625 36.214844 C 24.511719 36.007812 25.554688 35.667969 26.523438 35.199219 C 26.652344 35.136719 26.808594 35.167969 26.902344 35.273438 C 27.359375 35.792969 28.105469 36.835938 28.832031 36.703125 C 29.21875 36.632812 29.492188 36.4375 29.652344 36.121094 C 30.097656 35.238281 29.082031 34.367188 28.523438 33.878906 C 28.503906 33.863281 28.488281 33.835938 28.488281 33.804688 C 28.488281 33.777344 28.496094 33.75 28.515625 33.726562 C 29.425781 32.757812 30.039062 31.605469 30.347656 30.277344 C 30.589844 29.707031 30.652344 28.933594 30.730469 28.324219 C 30.792969 27.851562 30.824219 27.304688 30.828125 26.671875 C 30.832031 25.089844 30.8125 23.515625 30.765625 21.949219 C 30.765625 21.921875 30.78125 21.898438 30.804688 21.886719 C 30.828125 21.878906 30.855469 21.882812 30.875 21.898438 C 31.21875 22.199219 31.855469 22.472656 32.296875 22.234375 C 32.355469 22.203125 32.398438 22.148438 32.414062 22.085938 L 32.484375 21.828125 C 32.503906 21.757812 32.542969 21.703125 32.597656 21.660156 C 33.042969 21.320312 32.414062 20.621094 32.097656 20.425781 C 31.9375 20.324219 31.695312 20.234375 31.371094 20.15625 C 31.101562 20.089844 30.847656 20.027344 30.609375 19.96875 C 30.574219 18.273438 30.722656 16.511719 30.582031 14.667969 C 30.550781 14.195312 30.535156 13.714844 30.53125 13.230469 C 30.527344 12.914062 30.421875 12.609375 30.398438 12.277344 C 30.355469 11.585938 30.246094 11.015625 30.125 10.375 C 30.089844 10.199219 29.957031 10.078125 29.992188 9.867188 C 30.003906 9.8125 30.03125 9.769531 30.082031 9.746094 C 30.9375 9.339844 31.703125 8.472656 31.566406 7.546875 C 31.371094 6.230469 30.074219 5.003906 28.667969 5.339844 C 28.511719 5.375 28.179688 5.5 27.671875 5.710938 C 27.621094 5.734375 27.570312 5.726562 27.523438 5.695312 C 26.265625 4.78125 25.113281 4.320312 23.617188 4.089844 C 22.714844 3.949219 21.746094 4.019531 20.796875 4.039062 C 20.789062 4.042969 20.371094 4.03125 19.539062 4.007812 C 17.476562 3.957031 14.738281 4.667969 13.191406 5.976562 C 13.074219 6.078125 12.90625 6.097656 12.769531 6.023438 C 10.851562 5.011719 8.652344 6.65625 9.195312 8.804688 Z M 9.195312 8.804688 "/>
<path style=" stroke:none;fill-rule:nonzero;fill:rgb(21.568627%,30.196078%,30.980392%);fill-opacity:1;" d="M 30.582031 14.667969 L 30.554688 19.21875 C 30.476562 19.445312 30.441406 19.691406 30.445312 19.960938 C 30.328125 16.425781 30.503906 12.976562 29.683594 9.507812 C 29.808594 9.441406 29.863281 9.386719 29.847656 9.34375 C 29.851562 9.386719 29.863281 9.421875 29.882812 9.449219 C 29.917969 9.496094 29.960938 9.507812 30.015625 9.488281 C 32.792969 8.417969 30.539062 4.292969 27.949219 5.875 C 27.898438 5.90625 27.890625 5.949219 27.921875 6 C 27.980469 6.101562 28.066406 6.195312 28.171875 6.285156 C 28.039062 6.289062 27.976562 6.332031 27.984375 6.410156 C 26.535156 4.980469 24.578125 4.238281 22.542969 4.171875 C 20.605469 4.105469 19.046875 4.066406 16.917969 4.546875 C 14.59375 5.066406 12.660156 6.230469 11.546875 8.339844 C 11.503906 8.097656 11.585938 7.902344 11.792969 7.746094 C 11.835938 7.714844 11.855469 7.660156 11.839844 7.609375 C 11.761719 7.285156 11.136719 7.34375 10.867188 7.328125 C 11.148438 7.183594 11.4375 7.183594 11.738281 7.328125 C 11.796875 7.355469 11.84375 7.347656 11.882812 7.300781 L 12.707031 6.363281 C 12.75 6.3125 12.742188 6.273438 12.683594 6.242188 C 11.980469 5.878906 11.308594 5.847656 10.667969 6.144531 C 9.625 6.628906 9.183594 7.46875 9.347656 8.671875 C 9.328125 8.691406 9.304688 8.695312 9.277344 8.679688 C 9.246094 8.664062 9.226562 8.671875 9.21875 8.707031 L 9.195312 8.804688 C 8.652344 6.65625 10.851562 5.011719 12.769531 6.023438 C 12.90625 6.097656 13.074219 6.078125 13.191406 5.976562 C 14.738281 4.667969 17.476562 3.957031 19.539062 4.007812 C 20.371094 4.03125 20.789062 4.042969 20.796875 4.039062 C 21.746094 4.019531 22.714844 3.949219 23.617188 4.089844 C 25.113281 4.320312 26.265625 4.78125 27.523438 5.695312 C 27.570312 5.726562 27.621094 5.734375 27.671875 5.710938 C 28.179688 5.5 28.511719 5.375 28.667969 5.339844 C 30.074219 5.003906 31.371094 6.230469 31.566406 7.546875 C 31.703125 8.472656 30.9375 9.339844 30.082031 9.746094 C 30.03125 9.769531 30.003906 9.8125 29.992188 9.867188 C 29.957031 10.078125 30.089844 10.199219 30.125 10.375 C 30.246094 11.015625 30.355469 11.585938 30.398438 12.277344 C 30.421875 12.609375 30.527344 12.914062 30.53125 13.230469 C 30.535156 13.714844 30.550781 14.195312 30.582031 14.667969 Z M 30.582031 14.667969 "/>
<path style=" stroke:none;fill-rule:nonzero;fill:rgb(41.568627%,84.313725%,89.803922%);fill-opacity:1;" d="M 27.984375 6.410156 C 28.632812 7.054688 29.011719 7.542969 29.125 7.875 C 29.3125 8.417969 29.5 8.960938 29.683594 9.507812 C 30.503906 12.976562 30.328125 16.425781 30.445312 19.960938 C 30.695312 23.046875 30.992188 26.960938 30.203125 30.191406 C 29.503906 32.492188 28.457031 33.964844 26.242188 35.066406 C 23.835938 36.261719 21.171875 36.355469 18.542969 36.175781 C 15.183594 35.949219 11.703125 34.148438 10.894531 30.582031 C 10.523438 28.949219 10.625 27.453125 10.601562 25.867188 C 10.621094 25.121094 10.644531 24.636719 10.671875 24.417969 C 10.925781 22.148438 10.96875 20.132812 10.800781 18.375 C 10.503906 15.292969 10.210938 12.316406 11.113281 9.292969 C 11.199219 9.003906 11.34375 8.6875 11.546875 8.339844 C 12.660156 6.230469 14.59375 5.066406 16.917969 4.546875 C 19.046875 4.066406 20.605469 4.105469 22.542969 4.171875 C 24.578125 4.238281 26.535156 4.980469 27.984375 6.410156 Z M 20.820312 9.117188 C 21.5 12.921875 28.117188 12.023438 27.050781 7.738281 C 26.105469 4.125 20.328125 5.394531 20.820312 9.117188 Z M 13.414062 10.34375 C 14.105469 11.476562 15.148438 11.972656 16.542969 11.828125 C 19.089844 11.574219 20.425781 8.855469 18.648438 6.839844 C 17.449219 5.574219 15.421875 5.683594 14.113281 6.652344 C 13.066406 7.433594 12.628906 9.144531 13.414062 10.34375 Z M 18.789062 13.875 C 18.808594 14.183594 18.832031 14.492188 18.859375 14.796875 C 18.917969 15.5 19.550781 16.046875 20.125 15.414062 C 20.246094 15.304688 20.367188 15.316406 20.496094 15.445312 C 20.96875 15.925781 21.824219 15.695312 21.78125 14.957031 C 21.761719 14.632812 21.746094 14.308594 21.738281 13.976562 C 21.734375 13.914062 21.765625 13.890625 21.828125 13.898438 C 22.300781 13.980469 22.652344 13.847656 22.886719 13.496094 C 23.417969 12.699219 22.488281 12.015625 21.886719 11.683594 C 21.839844 11.65625 21.808594 11.617188 21.796875 11.5625 C 21.699219 11.117188 21.46875 10.839844 21.097656 10.730469 C 20.285156 10.488281 19.351562 10.667969 19.023438 11.589844 C 19.003906 11.644531 18.96875 11.679688 18.917969 11.699219 C 18.261719 11.957031 17.953125 12.414062 17.996094 13.070312 C 18.027344 13.535156 18.332031 13.839844 18.789062 13.875 Z M 18.789062 13.875 "/>
<path style=" stroke:none;fill-rule:nonzero;fill:rgb(41.568627%,84.313725%,89.803922%);fill-opacity:1;" d="M 29.847656 9.34375 L 29.441406 8.230469 C 29.417969 8.167969 29.425781 8.105469 29.457031 8.046875 L 29.65625 7.707031 C 29.679688 7.667969 29.6875 7.628906 29.683594 7.585938 C 29.640625 6.957031 29.3125 6.691406 28.699219 6.785156 C 28.636719 6.796875 28.582031 6.773438 28.542969 6.726562 L 28.171875 6.285156 C 28.066406 6.195312 27.980469 6.101562 27.921875 6 C 27.890625 5.949219 27.898438 5.90625 27.949219 5.875 C 30.539062 4.292969 32.792969 8.417969 30.015625 9.488281 C 29.960938 9.507812 29.917969 9.496094 29.882812 9.449219 C 29.863281 9.421875 29.851562 9.386719 29.847656 9.34375 Z M 29.847656 9.34375 "/>
<path style=" stroke:none;fill-rule:nonzero;fill:rgb(21.568627%,30.196078%,30.980392%);fill-opacity:1;" d="M 27.050781 7.738281 C 27.03125 7.757812 27.007812 7.769531 26.984375 7.773438 C 26.945312 7.78125 26.921875 7.800781 26.914062 7.839844 L 26.898438 7.917969 C 25.898438 4.445312 20.679688 5.605469 20.996094 9.078125 L 20.917969 8.601562 C 20.914062 8.582031 20.902344 8.570312 20.878906 8.574219 L 20.875 8.578125 C 20.859375 8.578125 20.847656 8.589844 20.847656 8.613281 L 20.820312 9.117188 C 20.328125 5.394531 26.105469 4.125 27.050781 7.738281 Z M 27.050781 7.738281 "/>
<path style=" stroke:none;fill-rule:nonzero;fill:rgb(100%,100%,100%);fill-opacity:1;" d="M 26.898438 7.917969 C 27.898438 11.699219 21.660156 12.75 20.996094 9.078125 C 20.679688 5.605469 25.898438 4.445312 26.898438 7.917969 Z M 22.425781 9.808594 C 22.914062 9.820312 23.316406 9.382812 23.328125 8.835938 C 23.339844 8.289062 22.949219 7.835938 22.460938 7.828125 C 21.972656 7.816406 21.570312 8.253906 21.558594 8.800781 C 21.546875 9.347656 21.9375 9.800781 22.425781 9.808594 Z M 22.425781 9.808594 "/>
<path style=" stroke:none;fill-rule:nonzero;fill:rgb(21.568627%,30.196078%,30.980392%);fill-opacity:1;" d="M 18.648438 6.839844 C 18.53125 6.835938 18.480469 6.871094 18.496094 6.941406 C 17.414062 6.03125 15.816406 5.941406 14.652344 6.621094 C 13.257812 7.429688 12.972656 8.933594 13.628906 10.367188 C 13.425781 10.210938 13.355469 10.203125 13.414062 10.34375 C 12.628906 9.144531 13.066406 7.433594 14.113281 6.652344 C 15.421875 5.683594 17.449219 5.574219 18.648438 6.839844 Z M 18.648438 6.839844 "/>
<path style=" stroke:none;fill-rule:nonzero;fill:rgb(41.568627%,84.313725%,89.803922%);fill-opacity:1;" d="M 10.867188 7.328125 C 10.484375 7.652344 10.402344 8.015625 10.625 8.410156 C 10.65625 8.46875 10.695312 8.511719 10.75 8.546875 L 11.011719 8.71875 C 11.082031 8.765625 11.101562 8.824219 11.078125 8.902344 L 10.765625 9.875 C 10.746094 9.929688 10.707031 9.949219 10.652344 9.929688 C 10.007812 9.722656 9.574219 9.304688 9.347656 8.671875 C 9.183594 7.46875 9.625 6.628906 10.667969 6.144531 C 11.308594 5.847656 11.980469 5.878906 12.683594 6.242188 C 12.742188 6.273438 12.75 6.3125 12.707031 6.363281 L 11.882812 7.300781 C 11.84375 7.347656 11.796875 7.355469 11.738281 7.328125 C 11.4375 7.183594 11.148438 7.183594 10.867188 7.328125 Z M 10.867188 7.328125 "/>
<path style=" stroke:none;fill-rule:nonzero;fill:rgb(100%,100%,100%);fill-opacity:1;" d="M 18.496094 6.941406 C 20.214844 8.875 18.859375 11.5625 16.335938 11.671875 C 15.140625 11.726562 14.238281 11.289062 13.628906 10.367188 C 12.972656 8.933594 13.257812 7.429688 14.652344 6.621094 C 15.816406 5.941406 17.414062 6.03125 18.496094 6.941406 Z M 13.980469 8.433594 C 13.59375 9.21875 14 10.199219 14.964844 10.035156 C 15.222656 10.011719 15.386719 9.890625 15.460938 9.671875 C 15.566406 9.527344 15.625 9.339844 15.636719 9.113281 C 15.726562 8.914062 15.714844 8.730469 15.601562 8.570312 C 15.066406 7.808594 14.523438 7.761719 13.980469 8.433594 Z M 13.980469 8.433594 "/>
<path style=" stroke:none;fill-rule:nonzero;fill:rgb(0%,0%,0%);fill-opacity:1;" d="M 28.171875 6.285156 L 28.542969 6.726562 C 28.582031 6.773438 28.636719 6.796875 28.699219 6.785156 C 29.3125 6.691406 29.640625 6.957031 29.683594 7.585938 C 29.6875 7.628906 29.679688 7.667969 29.65625 7.707031 L 29.457031 8.046875 C 29.425781 8.105469 29.417969 8.167969 29.441406 8.230469 L 29.847656 9.34375 C 29.863281 9.386719 29.808594 9.441406 29.683594 9.507812 C 29.5 8.960938 29.3125 8.417969 29.125 7.875 C 29.011719 7.542969 28.632812 7.054688 27.984375 6.410156 C 27.976562 6.332031 28.039062 6.289062 28.171875 6.285156 Z M 28.171875 6.285156 "/>
<path style=" stroke:none;fill-rule:nonzero;fill:rgb(13.72549%,14.509804%,15.686275%);fill-opacity:1;" d="M 18.648438 6.839844 C 20.425781 8.855469 19.089844 11.574219 16.542969 11.828125 C 15.148438 11.972656 14.105469 11.476562 13.414062 10.34375 C 13.355469 10.203125 13.425781 10.210938 13.628906 10.367188 C 14.238281 11.289062 15.140625 11.726562 16.335938 11.671875 C 18.859375 11.5625 20.214844 8.875 18.496094 6.941406 C 18.480469 6.871094 18.53125 6.835938 18.648438 6.839844 Z M 18.648438 6.839844 "/>
<path style=" stroke:none;fill-rule:nonzero;fill:rgb(0%,0%,0%);fill-opacity:1;" d="M 10.867188 7.328125 C 11.136719 7.34375 11.761719 7.285156 11.839844 7.609375 C 11.855469 7.660156 11.835938 7.714844 11.792969 7.746094 C 11.585938 7.902344 11.503906 8.097656 11.546875 8.339844 C 11.34375 8.6875 11.199219 9.003906 11.113281 9.292969 C 10.210938 12.316406 10.503906 15.292969 10.800781 18.375 C 10.96875 20.132812 10.925781 22.148438 10.671875 24.417969 C 10.644531 24.636719 10.621094 25.121094 10.601562 25.867188 L 10.566406 26.105469 C 10.558594 26.15625 10.542969 26.160156 10.519531 26.113281 C 10.496094 26.066406 10.484375 26.003906 10.484375 25.921875 L 10.667969 22.050781 C 10.675781 21.898438 10.613281 21.859375 10.484375 21.941406 C 9.96875 22.265625 8.886719 22.929688 8.664062 22.003906 C 8.652344 21.945312 8.625 21.898438 8.585938 21.855469 C 8.335938 21.578125 8.351562 21.28125 8.632812 20.957031 C 9.183594 20.324219 9.847656 20.21875 10.621094 20.121094 C 10.675781 20.113281 10.703125 20.078125 10.699219 20.023438 C 10.671875 19.46875 10.636719 18.921875 10.589844 18.378906 C 10.542969 17.824219 10.503906 17.265625 10.484375 16.710938 C 10.410156 14.839844 10.195312 13.050781 10.507812 11.25 C 10.59375 10.761719 10.648438 10.421875 10.679688 10.230469 C 10.6875 10.167969 10.664062 10.125 10.601562 10.101562 C 9.941406 9.859375 9.472656 9.429688 9.195312 8.804688 L 9.21875 8.707031 C 9.226562 8.671875 9.246094 8.664062 9.277344 8.679688 C 9.304688 8.695312 9.328125 8.691406 9.347656 8.671875 C 9.574219 9.304688 10.007812 9.722656 10.652344 9.929688 C 10.707031 9.949219 10.746094 9.929688 10.765625 9.875 L 11.078125 8.902344 C 11.101562 8.824219 11.082031 8.765625 11.011719 8.71875 L 10.75 8.546875 C 10.695312 8.511719 10.65625 8.46875 10.625 8.410156 C 10.402344 8.015625 10.484375 7.652344 10.867188 7.328125 Z M 9.179688 21.570312 C 9.128906 21.695312 9.039062 21.777344 8.90625 21.8125 C 8.859375 21.828125 8.828125 21.871094 8.832031 21.917969 C 8.886719 22.832031 10.320312 21.847656 10.613281 21.679688 C 10.660156 21.652344 10.683594 21.613281 10.683594 21.5625 L 10.722656 20.390625 C 10.726562 20.332031 10.699219 20.304688 10.644531 20.308594 C 9.890625 20.335938 8.785156 20.632812 8.574219 21.375 C 8.53125 21.523438 8.570312 21.625 8.691406 21.675781 C 8.734375 21.699219 8.78125 21.695312 8.824219 21.671875 L 9.105469 21.507812 C 9.125 21.496094 9.148438 21.496094 9.167969 21.511719 C 9.183594 21.527344 9.191406 21.550781 9.179688 21.570312 Z M 9.179688 21.570312 "/>
<path style=" stroke:none;fill-rule:nonzero;fill:rgb(0%,0%,0%);fill-opacity:1;" d="M 27.050781 7.738281 C 28.117188 12.023438 21.5 12.921875 20.820312 9.117188 L 20.847656 8.613281 C 20.847656 8.589844 20.859375 8.578125 20.875 8.578125 L 20.878906 8.574219 C 20.902344 8.570312 20.914062 8.582031 20.917969 8.601562 L 20.996094 9.078125 C 21.660156 12.75 27.898438 11.699219 26.898438 7.917969 L 26.914062 7.839844 C 26.921875 7.800781 26.945312 7.78125 26.984375 7.773438 C 27.007812 7.769531 27.03125 7.757812 27.050781 7.738281 Z M 27.050781 7.738281 "/>
<path style=" stroke:none;fill-rule:nonzero;fill:rgb(0%,0%,0%);fill-opacity:1;" d="M 22.425781 9.808594 C 21.9375 9.800781 21.546875 9.347656 21.558594 8.800781 C 21.570312 8.253906 21.972656 7.816406 22.460938 7.828125 C 22.949219 7.835938 23.339844 8.289062 23.328125 8.835938 C 23.316406 9.382812 22.914062 9.820312 22.425781 9.808594 Z M 23.078125 9.027344 C 23.078125 8.894531 22.972656 8.789062 22.839844 8.789062 C 22.707031 8.789062 22.597656 8.894531 22.597656 9.027344 C 22.597656 9.160156 22.707031 9.269531 22.839844 9.269531 C 22.972656 9.269531 23.078125 9.160156 23.078125 9.027344 Z M 23.078125 9.027344 "/>
<path style=" stroke:none;fill-rule:nonzero;fill:rgb(41.568627%,84.313725%,89.803922%);fill-opacity:1;" d="M 15.636719 9.113281 C 15.429688 8.230469 14.851562 7.796875 13.980469 8.433594 C 14.523438 7.761719 15.066406 7.808594 15.601562 8.570312 C 15.714844 8.730469 15.726562 8.914062 15.636719 9.113281 Z M 15.636719 9.113281 "/>
<path style=" stroke:none;fill-rule:nonzero;fill:rgb(0%,0%,0%);fill-opacity:1;" d="M 15.636719 9.113281 C 15.625 9.339844 15.566406 9.527344 15.460938 9.671875 L 14.964844 10.035156 C 14 10.199219 13.59375 9.21875 13.980469 8.433594 C 14.851562 7.796875 15.429688 8.230469 15.636719 9.113281 Z M 15.117188 9.542969 C 15.234375 9.550781 15.339844 9.441406 15.347656 9.292969 C 15.359375 9.148438 15.273438 9.023438 15.15625 9.015625 C 15.039062 9.003906 14.933594 9.117188 14.925781 9.261719 C 14.914062 9.40625 15 9.535156 15.117188 9.542969 Z M 15.117188 9.542969 "/>
<path style=" stroke:none;fill-rule:nonzero;fill:rgb(100%,100%,100%);fill-opacity:1;" d="M 23.078125 9.027344 C 23.078125 9.160156 22.972656 9.269531 22.839844 9.269531 C 22.707031 9.269531 22.597656 9.160156 22.597656 9.027344 C 22.597656 8.894531 22.707031 8.789062 22.839844 8.789062 C 22.972656 8.789062 23.078125 8.894531 23.078125 9.027344 Z M 23.078125 9.027344 "/>
<path style=" stroke:none;fill-rule:nonzero;fill:rgb(100%,100%,100%);fill-opacity:1;" d="M 15.117188 9.542969 C 15.234375 9.550781 15.339844 9.441406 15.347656 9.292969 C 15.359375 9.148438 15.273438 9.023438 15.15625 9.015625 C 15.039062 9.003906 14.933594 9.117188 14.925781 9.261719 C 14.914062 9.40625 15 9.535156 15.117188 9.542969 Z M 15.117188 9.542969 "/>
<path style=" stroke:none;fill-rule:nonzero;fill:rgb(41.568627%,84.313725%,89.803922%);fill-opacity:1;" d="M 15.460938 9.671875 C 15.386719 9.890625 15.222656 10.011719 14.964844 10.035156 Z M 15.460938 9.671875 "/>
<path style=" stroke:none;fill-rule:nonzero;fill:rgb(0%,0%,0%);fill-opacity:1;" d="M 20.125 15.414062 C 20.09375 15.4375 20.078125 15.378906 20.085938 15.230469 C 20.160156 15.207031 20.195312 15.160156 20.191406 15.082031 C 20.148438 14.59375 20.175781 14.117188 20.265625 13.660156 C 20.273438 13.621094 20.257812 13.585938 20.230469 13.5625 C 20.203125 13.535156 20.167969 13.527344 20.132812 13.539062 L 19.007812 13.898438 C 18.988281 13.90625 18.972656 13.921875 18.957031 13.933594 C 18.929688 13.960938 18.902344 13.960938 18.878906 13.929688 C 18.828125 13.859375 18.796875 13.84375 18.789062 13.875 C 18.332031 13.839844 18.027344 13.535156 17.996094 13.070312 C 17.953125 12.414062 18.261719 11.957031 18.917969 11.699219 C 18.96875 11.679688 19.003906 11.644531 19.023438 11.589844 C 19.351562 10.667969 20.285156 10.488281 21.097656 10.730469 C 21.46875 10.839844 21.699219 11.117188 21.796875 11.5625 C 21.808594 11.617188 21.839844 11.65625 21.886719 11.683594 C 22.488281 12.015625 23.417969 12.699219 22.886719 13.496094 C 22.652344 13.847656 22.300781 13.980469 21.828125 13.898438 C 21.765625 13.890625 21.734375 13.914062 21.738281 13.976562 C 21.746094 14.308594 21.761719 14.632812 21.78125 14.957031 C 21.824219 15.695312 20.96875 15.925781 20.496094 15.445312 C 20.367188 15.316406 20.246094 15.304688 20.125 15.414062 Z M 19.859375 13.453125 C 20.464844 13.285156 20.882812 13.328125 21.433594 13.5625 C 21.976562 13.796875 22.417969 13.9375 22.757812 13.394531 C 23.191406 12.695312 22.328125 12.050781 21.761719 11.855469 C 21.710938 11.835938 21.664062 11.84375 21.617188 11.875 C 20.957031 12.3125 19.761719 12.519531 19.117188 11.898438 C 19.078125 11.859375 19.03125 11.847656 18.976562 11.867188 C 18.375 12.082031 18.105469 12.484375 18.167969 13.070312 C 18.277344 14.109375 19.308594 13.601562 19.859375 13.453125 Z M 20.464844 13.6875 C 20.445312 14.136719 20.273438 14.988281 20.613281 15.339844 C 20.761719 15.492188 20.902344 15.5625 21.039062 15.546875 C 21.863281 15.460938 21.578125 14.636719 21.578125 14.023438 C 21.578125 13.867188 21.503906 13.765625 21.355469 13.714844 L 20.71875 13.511719 C 20.558594 13.460938 20.472656 13.519531 20.464844 13.6875 Z M 20.464844 13.6875 "/>
<path style=" stroke:none;fill-rule:nonzero;fill:rgb(96.470588%,82.352941%,63.529412%);fill-opacity:1;" d="M 19.859375 13.453125 C 19.308594 13.601562 18.277344 14.109375 18.167969 13.070312 C 18.105469 12.484375 18.375 12.082031 18.976562 11.867188 C 19.03125 11.847656 19.078125 11.859375 19.117188 11.898438 C 19.761719 12.519531 20.957031 12.3125 21.617188 11.875 C 21.664062 11.84375 21.710938 11.835938 21.761719 11.855469 C 22.328125 12.050781 23.191406 12.695312 22.757812 13.394531 C 22.417969 13.9375 21.976562 13.796875 21.433594 13.5625 C 20.882812 13.328125 20.464844 13.285156 19.859375 13.453125 Z M 19.859375 13.453125 "/>
<path style=" stroke:none;fill-rule:nonzero;fill:rgb(100%,100%,100%);fill-opacity:1;" d="M 20.613281 15.339844 C 20.273438 14.988281 20.445312 14.136719 20.464844 13.6875 C 20.472656 13.519531 20.558594 13.460938 20.71875 13.511719 L 21.355469 13.714844 C 21.503906 13.765625 21.578125 13.867188 21.578125 14.023438 C 21.578125 14.636719 21.863281 15.460938 21.039062 15.546875 C 20.902344 15.5625 20.761719 15.492188 20.613281 15.339844 Z M 20.613281 15.339844 "/>
<path style=" stroke:none;fill-rule:nonzero;fill:rgb(100%,100%,100%);fill-opacity:1;" d="M 20.085938 15.230469 C 19.183594 16.226562 18.925781 14.46875 19.007812 13.898438 L 20.132812 13.539062 C 20.167969 13.527344 20.203125 13.535156 20.230469 13.5625 C 20.257812 13.585938 20.273438 13.621094 20.265625 13.660156 C 20.175781 14.117188 20.148438 14.59375 20.191406 15.082031 C 20.195312 15.160156 20.160156 15.207031 20.085938 15.230469 Z M 20.085938 15.230469 "/>
<path style=" stroke:none;fill-rule:nonzero;fill:rgb(13.72549%,14.509804%,15.686275%);fill-opacity:1;" d="M 18.789062 13.875 C 18.796875 13.84375 18.828125 13.859375 18.878906 13.929688 C 18.902344 13.960938 18.929688 13.960938 18.957031 13.933594 C 18.972656 13.921875 18.988281 13.90625 19.007812 13.898438 C 18.925781 14.46875 19.183594 16.226562 20.085938 15.230469 C 20.078125 15.378906 20.09375 15.4375 20.125 15.414062 C 19.550781 16.046875 18.917969 15.5 18.859375 14.796875 C 18.832031 14.492188 18.808594 14.183594 18.789062 13.875 Z M 18.789062 13.875 "/>
<path style=" stroke:none;fill-rule:nonzero;fill:rgb(41.568627%,84.313725%,89.803922%);fill-opacity:1;" d="M 30.582031 14.667969 C 30.722656 16.511719 30.574219 18.273438 30.609375 19.96875 L 30.554688 19.21875 Z M 30.582031 14.667969 "/>
<path style=" stroke:none;fill-rule:nonzero;fill:rgb(0%,0%,0%);fill-opacity:1;" d="M 30.554688 19.21875 L 30.609375 19.96875 C 30.847656 20.027344 31.101562 20.089844 31.371094 20.15625 C 31.695312 20.234375 31.9375 20.324219 32.097656 20.425781 C 32.414062 20.621094 33.042969 21.320312 32.597656 21.660156 C 32.542969 21.703125 32.503906 21.757812 32.484375 21.828125 L 32.414062 22.085938 C 32.398438 22.148438 32.355469 22.203125 32.296875 22.234375 C 31.855469 22.472656 31.21875 22.199219 30.875 21.898438 C 30.855469 21.882812 30.828125 21.878906 30.804688 21.886719 C 30.78125 21.898438 30.765625 21.921875 30.765625 21.949219 C 30.8125 23.515625 30.832031 25.089844 30.828125 26.671875 C 30.824219 27.304688 30.792969 27.851562 30.730469 28.324219 C 30.652344 28.933594 30.589844 29.707031 30.347656 30.277344 C 30.3125 30.304688 30.285156 30.339844 30.261719 30.382812 C 30.238281 30.417969 30.226562 30.417969 30.222656 30.375 L 30.203125 30.191406 C 30.992188 26.960938 30.695312 23.046875 30.445312 19.960938 C 30.441406 19.691406 30.476562 19.445312 30.554688 19.21875 Z M 32.109375 21.410156 L 32.339844 21.582031 C 32.394531 21.621094 32.441406 21.617188 32.488281 21.570312 C 32.589844 21.460938 32.609375 21.3125 32.539062 21.171875 C 32.214844 20.519531 31.421875 20.230469 30.730469 20.21875 C 30.675781 20.21875 30.652344 20.242188 30.65625 20.296875 L 30.738281 21.589844 C 30.742188 21.648438 30.769531 21.6875 30.816406 21.710938 C 31.085938 21.839844 32.179688 22.582031 32.300781 21.863281 C 32.3125 21.808594 32.292969 21.761719 32.25 21.726562 C 32.175781 21.671875 32.101562 21.617188 32.027344 21.5625 C 32.007812 21.550781 31.996094 21.535156 31.992188 21.519531 C 31.980469 21.496094 31.980469 21.46875 31.988281 21.449219 C 32.007812 21.375 32.050781 21.363281 32.109375 21.410156 Z M 32.109375 21.410156 "/>
<path style=" stroke:none;fill-rule:nonzero;fill:rgb(96.470588%,82.352941%,63.529412%);fill-opacity:1;" d="M 31.988281 21.449219 C 31.980469 21.46875 31.980469 21.496094 31.992188 21.519531 C 31.996094 21.535156 32.007812 21.550781 32.027344 21.5625 C 32.101562 21.617188 32.175781 21.671875 32.25 21.726562 C 32.292969 21.761719 32.3125 21.808594 32.300781 21.863281 C 32.179688 22.582031 31.085938 21.839844 30.816406 21.710938 C 30.769531 21.6875 30.742188 21.648438 30.738281 21.589844 L 30.65625 20.296875 C 30.652344 20.242188 30.675781 20.21875 30.730469 20.21875 C 31.421875 20.230469 32.214844 20.519531 32.539062 21.171875 C 32.609375 21.3125 32.589844 21.460938 32.488281 21.570312 C 32.441406 21.617188 32.394531 21.621094 32.339844 21.582031 L 32.109375 21.410156 C 32.050781 21.363281 32.007812 21.375 31.988281 21.449219 Z M 31.988281 21.449219 "/>
<path style=" stroke:none;fill-rule:nonzero;fill:rgb(96.470588%,82.352941%,63.529412%);fill-opacity:1;" d="M 9.105469 21.507812 L 8.824219 21.671875 C 8.78125 21.695312 8.734375 21.699219 8.691406 21.675781 C 8.570312 21.625 8.53125 21.523438 8.574219 21.375 C 8.785156 20.632812 9.890625 20.335938 10.644531 20.308594 C 10.699219 20.304688 10.726562 20.332031 10.722656 20.390625 L 10.683594 21.5625 C 10.683594 21.613281 10.660156 21.652344 10.613281 21.679688 C 10.320312 21.847656 8.886719 22.832031 8.832031 21.917969 C 8.828125 21.871094 8.859375 21.828125 8.90625 21.8125 C 9.039062 21.777344 9.128906 21.695312 9.179688 21.570312 C 9.191406 21.550781 9.183594 21.527344 9.167969 21.511719 C 9.148438 21.496094 9.125 21.496094 9.105469 21.507812 Z M 9.105469 21.507812 "/>
<path style=" stroke:none;fill-rule:nonzero;fill:rgb(13.72549%,14.509804%,15.686275%);fill-opacity:1;" d="M 10.601562 25.867188 C 10.625 27.453125 10.523438 28.949219 10.894531 30.582031 C 11.703125 34.148438 15.183594 35.949219 18.542969 36.175781 C 21.171875 36.355469 23.835938 36.261719 26.242188 35.066406 C 28.457031 33.964844 29.503906 32.492188 30.203125 30.191406 L 30.222656 30.375 C 30.226562 30.417969 30.238281 30.417969 30.261719 30.382812 C 30.285156 30.339844 30.3125 30.304688 30.347656 30.277344 C 30.039062 31.605469 29.425781 32.757812 28.515625 33.726562 C 28.496094 33.75 28.488281 33.777344 28.488281 33.804688 C 28.488281 33.835938 28.503906 33.863281 28.523438 33.878906 C 29.082031 34.367188 30.097656 35.238281 29.652344 36.121094 C 29.492188 36.4375 29.21875 36.632812 28.832031 36.703125 C 28.105469 36.835938 27.359375 35.792969 26.902344 35.273438 C 26.808594 35.167969 26.652344 35.136719 26.523438 35.199219 C 25.554688 35.667969 24.511719 36.007812 23.390625 36.214844 C 23.191406 36.253906 22.765625 36.257812 22.476562 36.339844 C 22.339844 36.378906 22.21875 36.398438 22.117188 36.398438 C 19.980469 36.457031 18.578125 36.464844 16.898438 36.097656 C 16.339844 35.976562 15.75 35.730469 15.167969 35.574219 C 14.757812 35.464844 14.339844 35.59375 14.039062 35.839844 C 13.589844 36.203125 12.371094 37.457031 11.777344 36.769531 C 11.738281 36.726562 11.695312 36.691406 11.644531 36.667969 C 10.78125 36.265625 11.214844 35.1875 11.785156 34.742188 C 12.058594 34.53125 12.324219 34.324219 12.582031 34.121094 C 12.609375 34.097656 12.628906 34.066406 12.628906 34.03125 C 12.632812 34 12.621094 33.964844 12.59375 33.941406 C 12.328125 33.671875 12.035156 33.417969 11.820312 33.109375 C 10.285156 30.867188 10.4375 28.839844 10.484375 25.921875 C 10.484375 26.003906 10.496094 26.066406 10.519531 26.113281 C 10.542969 26.160156 10.558594 26.15625 10.566406 26.105469 Z M 28.75 35.296875 C 28.769531 35.289062 28.789062 35.289062 28.804688 35.304688 C 29.023438 35.539062 29.175781 35.8125 29.25 36.125 C 29.257812 36.15625 29.285156 36.179688 29.3125 36.183594 C 29.34375 36.191406 29.375 36.175781 29.394531 36.148438 C 29.90625 35.394531 28.910156 34.425781 28.351562 34.011719 C 28.332031 33.996094 28.3125 33.996094 28.292969 34.011719 L 26.964844 34.96875 C 26.957031 34.976562 26.949219 34.988281 26.949219 35 C 26.945312 35.011719 26.953125 35.023438 26.960938 35.03125 C 27.324219 35.410156 27.703125 35.8125 28.09375 36.238281 C 28.378906 36.542969 28.699219 36.597656 29.058594 36.40625 C 29.109375 36.378906 29.128906 36.320312 29.101562 36.269531 L 28.683594 35.421875 C 28.667969 35.386719 28.679688 35.347656 28.710938 35.324219 Z M 12.222656 35.5625 C 12.242188 35.574219 12.246094 35.601562 12.234375 35.621094 C 12.050781 35.890625 11.464844 36.550781 12.035156 36.78125 C 12.339844 36.902344 12.875 36.566406 13.089844 36.386719 C 13.585938 35.953125 14.042969 35.617188 14.460938 35.367188 C 14.496094 35.347656 14.496094 35.324219 14.464844 35.304688 L 12.863281 34.269531 C 12.816406 34.238281 12.769531 34.238281 12.71875 34.269531 C 12.1875 34.609375 11.5625 35.035156 11.34375 35.660156 C 11.285156 35.828125 11.296875 35.992188 11.375 36.152344 L 11.417969 36.238281 C 11.480469 36.355469 11.546875 36.359375 11.617188 36.246094 L 12.078125 35.511719 C 12.09375 35.484375 12.117188 35.480469 12.144531 35.5 Z M 12.222656 35.5625 "/>
<path style=" stroke:none;fill-rule:nonzero;fill:rgb(96.470588%,82.352941%,63.529412%);fill-opacity:1;" d="M 28.75 35.296875 L 28.710938 35.324219 C 28.679688 35.347656 28.667969 35.386719 28.683594 35.421875 L 29.101562 36.269531 C 29.128906 36.320312 29.109375 36.378906 29.058594 36.40625 C 28.699219 36.597656 28.378906 36.542969 28.09375 36.238281 C 27.703125 35.8125 27.324219 35.410156 26.960938 35.03125 C 26.953125 35.023438 26.945312 35.011719 26.949219 35 C 26.949219 34.988281 26.957031 34.976562 26.964844 34.96875 L 28.292969 34.011719 C 28.3125 33.996094 28.332031 33.996094 28.351562 34.011719 C 28.910156 34.425781 29.90625 35.394531 29.394531 36.148438 C 29.375 36.175781 29.34375 36.191406 29.3125 36.183594 C 29.285156 36.179688 29.257812 36.15625 29.25 36.125 C 29.175781 35.8125 29.023438 35.539062 28.804688 35.304688 C 28.789062 35.289062 28.769531 35.289062 28.75 35.296875 Z M 28.75 35.296875 "/>
<path style=" stroke:none;fill-rule:nonzero;fill:rgb(96.470588%,82.352941%,63.529412%);fill-opacity:1;" d="M 12.078125 35.511719 L 11.617188 36.246094 C 11.546875 36.359375 11.480469 36.355469 11.417969 36.238281 L 11.375 36.152344 C 11.296875 35.992188 11.285156 35.828125 11.34375 35.660156 C 11.5625 35.035156 12.1875 34.609375 12.71875 34.269531 C 12.769531 34.238281 12.816406 34.238281 12.863281 34.269531 L 14.464844 35.304688 C 14.496094 35.324219 14.496094 35.347656 14.460938 35.367188 C 14.042969 35.617188 13.585938 35.953125 13.089844 36.386719 C 12.875 36.566406 12.339844 36.902344 12.035156 36.78125 C 11.464844 36.550781 12.050781 35.890625 12.234375 35.621094 C 12.246094 35.601562 12.242188 35.574219 12.222656 35.5625 L 12.144531 35.5 C 12.117188 35.480469 12.09375 35.484375 12.078125 35.511719 Z M 12.078125 35.511719 "/>
</g>
</svg>
