<?xml version="1.0" encoding="UTF-8"?>
<svg xmlns="http://www.w3.org/2000/svg" xmlns:xlink="http://www.w3.org/1999/xlink" width="240px" height="240px" viewBox="0 0 240 240" version="1.1">
<g id="surface1">
<path style="fill:none;stroke-width:2;stroke-linecap:butt;stroke-linejoin:miter;stroke:rgb(97.254902%,62.745098%,49.019608%);stroke-opacity:1;stroke-miterlimit:4;" d="M 70.78125 208.050781 C 71.921875 208.703125 73.144531 209.011719 74.449219 208.96875 "/>
<path style="fill:none;stroke-width:2;stroke-linecap:butt;stroke-linejoin:miter;stroke:rgb(94.901961%,58.039216%,48.235294%);stroke-opacity:1;stroke-miterlimit:4;" d="M 74.449219 208.96875 C 88.285156 212.84375 102.132812 216.683594 116 220.488281 C 117.820312 220.988281 120.820312 221.328125 122.25 220.929688 C 142.503906 215.324219 162.695312 209.777344 182.828125 204.289062 C 183.183594 204.195312 183.375 203.964844 183.398438 203.601562 L 197.421875 46.5 C 197.464844 46.011719 197.242188 45.769531 196.75 45.769531 L 43.25 45.769531 C 42.757812 45.769531 42.53125 46.015625 42.570312 46.511719 L 56.558594 203.460938 C 56.605469 203.992188 56.890625 204.328125 57.410156 204.46875 L 70.78125 208.050781 "/>
<path style="fill:none;stroke-width:2;stroke-linecap:butt;stroke-linejoin:miter;stroke:rgb(92.156863%,35.686275%,15.686275%);stroke-opacity:1;stroke-miterlimit:4;" d="M 74.449219 208.96875 C 73.335938 208.203125 72.113281 207.898438 70.78125 208.050781 "/>
<path style="fill:none;stroke-width:2;stroke-linecap:butt;stroke-linejoin:miter;stroke:rgb(90.980392%,61.568627%,53.72549%);stroke-opacity:1;stroke-miterlimit:4;" d="M 119.21875 78.140625 L 72.03125 78.011719 C 71.496094 78.011719 71.253906 78.273438 71.300781 78.800781 L 75.929688 130.289062 "/>
<path style="fill:none;stroke-width:2;stroke-linecap:butt;stroke-linejoin:miter;stroke:rgb(92.156863%,35.686275%,15.686275%);stroke-opacity:1;stroke-miterlimit:4;" d="M 75.929688 130.289062 L 76.300781 136.660156 "/>
<path style="fill:none;stroke-width:2;stroke-linecap:butt;stroke-linejoin:miter;stroke:rgb(90.980392%,61.568627%,53.72549%);stroke-opacity:1;stroke-miterlimit:4;" d="M 76.300781 136.660156 L 119.78125 136.808594 "/>
<path style="fill:none;stroke-width:2;stroke-linecap:butt;stroke-linejoin:miter;stroke:rgb(92.156863%,35.686275%,15.686275%);stroke-opacity:1;stroke-miterlimit:4;" d="M 119.78125 136.808594 C 120.054688 146.011719 120.15625 155.238281 120.089844 164.5 C 120.082031 165.292969 120.238281 166.054688 120.550781 166.78125 C 120.683594 167.09375 120.601562 167.328125 120.300781 167.488281 L 120.019531 167.648438 "/>
<path style="fill:none;stroke-width:2;stroke-linecap:butt;stroke-linejoin:miter;stroke:rgb(90.980392%,61.568627%,53.72549%);stroke-opacity:1;stroke-miterlimit:4;" d="M 120.019531 167.648438 L 98.738281 162.25 C 98.464844 162.183594 98.316406 162.011719 98.289062 161.730469 L 96.921875 147.21875 C 96.878906 146.792969 96.648438 146.578125 96.21875 146.578125 L 78.019531 146.539062 C 77.558594 146.535156 77.351562 146.761719 77.390625 147.230469 L 80.039062 176.660156 C 80.066406 176.988281 80.238281 177.191406 80.550781 177.28125 L 120.050781 188.21875 "/>
<path style="fill:none;stroke-width:2;stroke-linecap:butt;stroke-linejoin:miter;stroke:rgb(92.156863%,35.686275%,15.686275%);stroke-opacity:1;stroke-miterlimit:4;" d="M 120.050781 188.21875 L 120.011719 207.828125 C 120.011719 208.171875 120.171875 208.292969 120.5 208.199219 L 170.78125 194.25 C 171.171875 194.136719 171.390625 193.875 171.429688 193.46875 L 183.410156 59.210938 C 183.421875 59.085938 183.378906 58.964844 183.292969 58.871094 C 183.207031 58.78125 183.085938 58.730469 182.960938 58.730469 L 120.480469 58.75 C 120.242188 58.75 120.050781 58.9375 120.050781 59.171875 C 119.9375 65.164062 119.964844 71.191406 120.140625 77.25 C 120.152344 77.757812 119.847656 78.054688 119.21875 78.140625 "/>
<path style="fill:none;stroke-width:2;stroke-linecap:butt;stroke-linejoin:miter;stroke:rgb(93.333333%,66.27451%,54.509804%);stroke-opacity:1;stroke-miterlimit:4;" d="M 120.050781 188.21875 C 119.097656 188.152344 119.414062 188.039062 121 187.878906 "/>
<path style="fill:none;stroke-width:2;stroke-linecap:butt;stroke-linejoin:miter;stroke:rgb(97.254902%,70.196078%,58.431373%);stroke-opacity:1;stroke-miterlimit:4;" d="M 121 187.878906 L 135.679688 183.820312 "/>
<path style="fill:none;stroke-width:2;stroke-linecap:butt;stroke-linejoin:miter;stroke:rgb(97.254902%,62.745098%,49.019608%);stroke-opacity:1;stroke-miterlimit:4;" d="M 135.679688 183.820312 C 137.367188 183.691406 138.886719 183.273438 140.238281 182.558594 "/>
<path style="fill:none;stroke-width:2;stroke-linecap:butt;stroke-linejoin:miter;stroke:rgb(97.254902%,70.196078%,58.431373%);stroke-opacity:1;stroke-miterlimit:4;" d="M 140.238281 182.558594 L 159.320312 177.28125 C 159.601562 177.207031 159.753906 177.023438 159.78125 176.730469 L 165.058594 117.980469 C 165.074219 117.851562 165.03125 117.726562 164.945312 117.628906 C 164.855469 117.535156 164.730469 117.480469 164.601562 117.480469 L 120.25 117.480469 "/>
<path style="fill:none;stroke-width:2;stroke-linecap:butt;stroke-linejoin:miter;stroke:rgb(92.156863%,35.686275%,15.686275%);stroke-opacity:1;stroke-miterlimit:4;" d="M 120.25 117.480469 C 119.949219 111.351562 119.917969 105.28125 120.148438 99.261719 C 120.175781 98.6875 119.953125 98.121094 119.480469 97.558594 "/>
<path style="fill:none;stroke-width:2;stroke-linecap:butt;stroke-linejoin:miter;stroke:rgb(93.333333%,66.27451%,54.509804%);stroke-opacity:1;stroke-miterlimit:4;" d="M 119.480469 97.558594 L 119.929688 97.488281 "/>
<path style="fill:none;stroke-width:2;stroke-linecap:butt;stroke-linejoin:miter;stroke:rgb(97.254902%,70.196078%,58.431373%);stroke-opacity:1;stroke-miterlimit:4;" d="M 119.929688 97.488281 L 166.429688 97.5 C 166.761719 97.5 166.945312 97.332031 166.980469 97 L 168.578125 78.511719 C 168.585938 78.433594 168.558594 78.359375 168.507812 78.304688 C 168.457031 78.25 168.386719 78.21875 168.308594 78.21875 L 119.929688 78.230469 "/>
<path style="fill:none;stroke-width:2;stroke-linecap:butt;stroke-linejoin:miter;stroke:rgb(93.333333%,66.27451%,54.509804%);stroke-opacity:1;stroke-miterlimit:4;" d="M 119.929688 78.230469 L 119.21875 78.140625 "/>
<path style="fill:none;stroke-width:2;stroke-linecap:butt;stroke-linejoin:miter;stroke:rgb(96.078431%,96.078431%,96.078431%);stroke-opacity:1;stroke-miterlimit:4;" d="M 119.929688 78.230469 L 119.929688 97.488281 "/>
<path style="fill:none;stroke-width:2;stroke-linecap:butt;stroke-linejoin:miter;stroke:rgb(90.980392%,61.568627%,53.72549%);stroke-opacity:1;stroke-miterlimit:4;" d="M 119.480469 97.558594 L 92.988281 97.550781 C 92.664062 97.550781 92.511719 97.714844 92.539062 98.039062 L 94.171875 116.960938 C 94.203125 117.328125 94.398438 117.511719 94.761719 117.511719 L 119.859375 117.511719 "/>
<path style="fill:none;stroke-width:2;stroke-linecap:butt;stroke-linejoin:miter;stroke:rgb(96.078431%,96.078431%,96.078431%);stroke-opacity:1;stroke-miterlimit:4;" d="M 119.859375 117.511719 L 119.96875 134.960938 C 119.976562 136.066406 120.535156 136.621094 121.640625 136.621094 L 141.039062 136.648438 "/>
<path style="fill:none;stroke-width:2;stroke-linecap:butt;stroke-linejoin:miter;stroke:rgb(93.333333%,66.27451%,54.509804%);stroke-opacity:1;stroke-miterlimit:4;" d="M 141.039062 136.648438 L 119.78125 136.808594 "/>
<path style="fill:none;stroke-width:2;stroke-linecap:butt;stroke-linejoin:miter;stroke:rgb(93.333333%,66.27451%,54.509804%);stroke-opacity:1;stroke-miterlimit:4;" d="M 76.300781 136.660156 L 75.929688 130.289062 "/>
<path style="fill:none;stroke-width:2;stroke-linecap:butt;stroke-linejoin:miter;stroke:rgb(94.901961%,65.490196%,57.647059%);stroke-opacity:1;stroke-miterlimit:4;" d="M 120.25 117.480469 C 120.125 117.492188 119.992188 117.503906 119.859375 117.511719 "/>
<path style="fill:none;stroke-width:2;stroke-linecap:butt;stroke-linejoin:miter;stroke:rgb(100%,92.54902%,90.588235%);stroke-opacity:1;stroke-miterlimit:4;" d="M 140.238281 182.558594 C 138.925781 182.292969 137.40625 182.714844 135.679688 183.820312 "/>
<path style="fill:none;stroke-width:2;stroke-linecap:butt;stroke-linejoin:miter;stroke:rgb(96.078431%,96.078431%,96.078431%);stroke-opacity:1;stroke-miterlimit:4;" d="M 121 187.878906 C 120.3125 187.761719 119.96875 187.464844 119.96875 187 C 119.976562 181.085938 119.980469 175.171875 119.980469 169.25 C 119.980469 168.984375 120.148438 168.492188 120.480469 167.78125 "/>
<path style="fill:none;stroke-width:2;stroke-linecap:butt;stroke-linejoin:miter;stroke:rgb(97.254902%,70.196078%,58.431373%);stroke-opacity:1;stroke-miterlimit:4;" d="M 120.480469 167.78125 L 140.511719 162.390625 C 141.140625 162.222656 141.597656 161.675781 141.660156 161.019531 L 143.859375 137.480469 C 143.894531 137.101562 143.71875 136.894531 143.339844 136.859375 L 141.039062 136.648438 "/>
<path style="fill:none;stroke-width:2;stroke-linecap:butt;stroke-linejoin:miter;stroke:rgb(93.333333%,66.27451%,54.509804%);stroke-opacity:1;stroke-miterlimit:4;" d="M 120.480469 167.78125 C 120.328125 167.78125 120.171875 167.738281 120.019531 167.648438 "/>
<path style=" stroke:none;fill-rule:nonzero;fill:rgb(100%,85.098039%,81.176471%);fill-opacity:1;" d="M 113.929688 0 L 125.230469 0 C 188 3.628906 235.609375 51.289062 240 113.910156 L 240 124.738281 C 236.71875 187.789062 188.890625 235.46875 126.109375 240 L 114.769531 240 C 88.75 238.539062 66.011719 230.183594 46.558594 214.929688 C 18.105469 192.625 2.585938 162.855469 0 125.628906 L 0 114.761719 C 3.929688 52.101562 51.148438 4.121094 113.929688 0 Z M 70.78125 208.050781 C 71.921875 208.703125 73.144531 209.011719 74.449219 208.96875 C 88.285156 212.84375 102.132812 216.683594 116 220.488281 C 117.820312 220.988281 120.820312 221.328125 122.25 220.929688 C 142.503906 215.324219 162.695312 209.777344 182.828125 204.289062 C 183.183594 204.195312 183.375 203.964844 183.398438 203.601562 L 197.421875 46.5 C 197.464844 46.011719 197.242188 45.769531 196.75 45.769531 L 43.25 45.769531 C 42.757812 45.769531 42.53125 46.015625 42.570312 46.511719 L 56.558594 203.460938 C 56.605469 203.992188 56.890625 204.328125 57.410156 204.46875 Z M 70.78125 208.050781 "/>
<path style=" stroke:none;fill-rule:nonzero;fill:rgb(89.411765%,30.980392%,14.901961%);fill-opacity:1;" d="M 74.449219 208.96875 C 73.335938 208.203125 72.113281 207.898438 70.78125 208.050781 L 57.410156 204.46875 C 56.890625 204.328125 56.605469 203.992188 56.558594 203.460938 L 42.570312 46.511719 C 42.53125 46.015625 42.757812 45.769531 43.25 45.769531 L 196.75 45.769531 C 197.242188 45.769531 197.464844 46.011719 197.421875 46.5 L 183.398438 203.601562 C 183.375 203.964844 183.183594 204.195312 182.828125 204.289062 C 162.695312 209.777344 142.503906 215.324219 122.25 220.929688 C 120.820312 221.328125 117.820312 220.988281 116 220.488281 C 102.132812 216.683594 88.285156 212.84375 74.449219 208.96875 Z M 119.21875 78.140625 L 72.03125 78.011719 C 71.496094 78.011719 71.253906 78.273438 71.300781 78.800781 L 75.929688 130.289062 L 76.300781 136.660156 L 119.78125 136.808594 C 120.054688 146.011719 120.15625 155.238281 120.089844 164.5 C 120.082031 165.292969 120.238281 166.054688 120.550781 166.78125 C 120.683594 167.09375 120.601562 167.328125 120.300781 167.488281 L 120.019531 167.648438 L 98.738281 162.25 C 98.464844 162.183594 98.316406 162.011719 98.289062 161.730469 L 96.921875 147.21875 C 96.878906 146.792969 96.648438 146.578125 96.21875 146.578125 L 78.019531 146.539062 C 77.558594 146.535156 77.351562 146.761719 77.390625 147.230469 L 80.039062 176.660156 C 80.066406 176.988281 80.238281 177.191406 80.550781 177.28125 L 120.050781 188.21875 L 120.011719 207.828125 C 120.011719 208.171875 120.171875 208.292969 120.5 208.199219 L 170.78125 194.25 C 171.171875 194.136719 171.390625 193.875 171.429688 193.46875 L 183.410156 59.210938 C 183.421875 59.085938 183.378906 58.964844 183.292969 58.871094 C 183.207031 58.78125 183.085938 58.730469 182.960938 58.730469 L 120.480469 58.75 C 120.242188 58.75 120.050781 58.9375 120.050781 59.171875 C 119.9375 65.164062 119.964844 71.191406 120.140625 77.25 C 120.152344 77.757812 119.847656 78.054688 119.21875 78.140625 Z M 119.21875 78.140625 "/>
<path style=" stroke:none;fill-rule:nonzero;fill:rgb(94.509804%,40%,16.470588%);fill-opacity:1;" d="M 120.050781 188.21875 C 119.097656 188.152344 119.414062 188.039062 121 187.878906 L 135.679688 183.820312 C 137.367188 183.691406 138.886719 183.273438 140.238281 182.558594 L 159.320312 177.28125 C 159.601562 177.207031 159.753906 177.023438 159.78125 176.730469 L 165.058594 117.980469 C 165.074219 117.851562 165.03125 117.726562 164.945312 117.628906 C 164.855469 117.535156 164.730469 117.480469 164.601562 117.480469 L 120.25 117.480469 C 119.949219 111.351562 119.917969 105.28125 120.148438 99.261719 C 120.175781 98.6875 119.953125 98.121094 119.480469 97.558594 L 119.929688 97.488281 L 166.429688 97.5 C 166.761719 97.5 166.945312 97.332031 166.980469 97 L 168.578125 78.511719 C 168.585938 78.433594 168.558594 78.359375 168.507812 78.304688 C 168.457031 78.25 168.386719 78.21875 168.308594 78.21875 L 119.929688 78.230469 L 119.21875 78.140625 C 119.847656 78.054688 120.152344 77.757812 120.140625 77.25 C 119.964844 71.191406 119.9375 65.164062 120.050781 59.171875 C 120.050781 58.9375 120.242188 58.75 120.480469 58.75 L 182.960938 58.730469 C 183.085938 58.730469 183.207031 58.78125 183.292969 58.871094 C 183.378906 58.964844 183.421875 59.085938 183.410156 59.210938 L 171.429688 193.46875 C 171.390625 193.875 171.171875 194.136719 170.78125 194.25 L 120.5 208.199219 C 120.171875 208.292969 120.011719 208.171875 120.011719 207.828125 Z M 120.050781 188.21875 "/>
<path style=" stroke:none;fill-rule:nonzero;fill:rgb(92.156863%,92.156863%,92.156863%);fill-opacity:1;" d="M 119.21875 78.140625 L 119.929688 78.230469 L 119.929688 97.488281 L 119.480469 97.558594 L 92.988281 97.550781 C 92.664062 97.550781 92.511719 97.714844 92.539062 98.039062 L 94.171875 116.960938 C 94.203125 117.328125 94.398438 117.511719 94.761719 117.511719 L 119.859375 117.511719 L 119.96875 134.960938 C 119.976562 136.066406 120.535156 136.621094 121.640625 136.621094 L 141.039062 136.648438 L 119.78125 136.808594 L 76.300781 136.660156 L 75.929688 130.289062 L 71.300781 78.800781 C 71.253906 78.273438 71.496094 78.011719 72.03125 78.011719 Z M 119.21875 78.140625 "/>
<path style=" stroke:none;fill-rule:nonzero;fill:rgb(100%,100%,100%);fill-opacity:1;" d="M 119.929688 78.230469 L 168.308594 78.21875 C 168.386719 78.21875 168.457031 78.25 168.507812 78.304688 C 168.558594 78.359375 168.585938 78.433594 168.578125 78.511719 L 166.980469 97 C 166.945312 97.332031 166.761719 97.5 166.429688 97.5 L 119.929688 97.488281 Z M 119.929688 78.230469 "/>
<path style=" stroke:none;fill-rule:nonzero;fill:rgb(89.411765%,30.980392%,14.901961%);fill-opacity:1;" d="M 119.480469 97.558594 C 119.953125 98.121094 120.175781 98.6875 120.148438 99.261719 C 119.917969 105.28125 119.949219 111.351562 120.25 117.480469 C 120.125 117.492188 119.992188 117.503906 119.859375 117.511719 L 94.761719 117.511719 C 94.398438 117.511719 94.203125 117.328125 94.171875 116.960938 L 92.539062 98.039062 C 92.511719 97.714844 92.664062 97.550781 92.988281 97.550781 Z M 119.480469 97.558594 "/>
<path style=" stroke:none;fill-rule:nonzero;fill:rgb(100%,100%,100%);fill-opacity:1;" d="M 119.859375 117.511719 C 119.992188 117.503906 120.125 117.492188 120.25 117.480469 L 164.601562 117.480469 C 164.730469 117.480469 164.855469 117.535156 164.945312 117.628906 C 165.03125 117.726562 165.074219 117.851562 165.058594 117.980469 L 159.78125 176.730469 C 159.753906 177.023438 159.601562 177.207031 159.320312 177.28125 L 140.238281 182.558594 C 138.925781 182.292969 137.40625 182.714844 135.679688 183.820312 L 121 187.878906 C 120.3125 187.761719 119.96875 187.464844 119.96875 187 C 119.976562 181.085938 119.980469 175.171875 119.980469 169.25 C 119.980469 168.984375 120.148438 168.492188 120.480469 167.78125 L 140.511719 162.390625 C 141.140625 162.222656 141.597656 161.675781 141.660156 161.019531 L 143.859375 137.480469 C 143.894531 137.101562 143.71875 136.894531 143.339844 136.859375 L 141.039062 136.648438 L 121.640625 136.621094 C 120.535156 136.621094 119.976562 136.066406 119.96875 134.960938 Z M 119.859375 117.511719 "/>
<path style=" stroke:none;fill-rule:nonzero;fill:rgb(94.509804%,40%,16.470588%);fill-opacity:1;" d="M 75.929688 130.289062 L 76.300781 136.660156 Z M 75.929688 130.289062 "/>
<path style=" stroke:none;fill-rule:nonzero;fill:rgb(94.509804%,40%,16.470588%);fill-opacity:1;" d="M 119.78125 136.808594 L 141.039062 136.648438 L 143.339844 136.859375 C 143.71875 136.894531 143.894531 137.101562 143.859375 137.480469 L 141.660156 161.019531 C 141.597656 161.675781 141.140625 162.222656 140.511719 162.390625 L 120.480469 167.78125 C 120.328125 167.78125 120.171875 167.738281 120.019531 167.648438 L 120.300781 167.488281 C 120.601562 167.328125 120.683594 167.09375 120.550781 166.78125 C 120.238281 166.054688 120.082031 165.292969 120.089844 164.5 C 120.15625 155.238281 120.054688 146.011719 119.78125 136.808594 Z M 119.78125 136.808594 "/>
<path style=" stroke:none;fill-rule:nonzero;fill:rgb(92.156863%,92.156863%,92.156863%);fill-opacity:1;" d="M 120.019531 167.648438 C 120.171875 167.738281 120.328125 167.78125 120.480469 167.78125 C 120.148438 168.492188 119.980469 168.984375 119.980469 169.25 C 119.980469 175.171875 119.976562 181.085938 119.96875 187 C 119.96875 187.464844 120.3125 187.761719 121 187.878906 C 119.414062 188.039062 119.097656 188.152344 120.050781 188.21875 L 80.550781 177.28125 C 80.238281 177.191406 80.066406 176.988281 80.039062 176.660156 L 77.390625 147.230469 C 77.351562 146.761719 77.558594 146.535156 78.019531 146.539062 L 96.21875 146.578125 C 96.648438 146.578125 96.878906 146.792969 96.921875 147.21875 L 98.289062 161.730469 C 98.316406 162.011719 98.464844 162.183594 98.738281 162.25 Z M 120.019531 167.648438 "/>
<path style=" stroke:none;fill-rule:nonzero;fill:rgb(100%,85.098039%,81.176471%);fill-opacity:1;" d="M 140.238281 182.558594 C 138.886719 183.273438 137.367188 183.691406 135.679688 183.820312 C 137.40625 182.714844 138.925781 182.292969 140.238281 182.558594 Z M 140.238281 182.558594 "/>
<path style=" stroke:none;fill-rule:nonzero;fill:rgb(94.509804%,40%,16.470588%);fill-opacity:1;" d="M 70.78125 208.050781 C 72.113281 207.898438 73.335938 208.203125 74.449219 208.96875 C 73.144531 209.011719 71.921875 208.703125 70.78125 208.050781 Z M 70.78125 208.050781 "/>
</g>
</svg>
