<?xml version="1.0" encoding="UTF-8"?>
<svg xmlns="http://www.w3.org/2000/svg" xmlns:xlink="http://www.w3.org/1999/xlink" width="160px" height="160px" viewBox="0 0 160 160" version="1.1">
<g id="surface1">
<path style="fill:none;stroke-width:2;stroke-linecap:butt;stroke-linejoin:miter;stroke:rgb(96.470588%,77.254902%,47.45098%);stroke-opacity:1;stroke-miterlimit:4;" d="M 121.482422 213.017578 C 141.070312 207.837891 160.658203 202.189453 180.087891 196.599609 C 180.638672 196.441406 181.03125 195.966797 181.078125 195.398438 C 183.726562 165.392578 186.398438 135.363281 189.099609 105.310547 C 189.099609 105.275391 189.181641 103.734375 189.351562 100.6875 C 189.439453 99.029297 189.638672 96.884766 189.960938 94.248047 C 190.96875 85.828125 191.824219 74.982422 192.527344 61.710938 C 192.667969 59.068359 193.658203 56.009766 193.359375 52.751953 C 193.259766 51.697266 193.488281 50.988281 194.039062 50.619141 C 194.220703 50.507812 194.302734 50.291016 194.244141 50.085938 C 194.185547 49.880859 193.992188 49.746094 193.78125 49.751953 L 46.248047 49.728516 C 46.019531 49.728516 45.867188 49.845703 45.808594 50.080078 C 45.287109 52.212891 46.259766 53.900391 46.248047 55.757812 C 46.212891 59.601562 46.980469 63.931641 47.191406 67.089844 C 47.525391 72.076172 47.818359 75.298828 48.070312 76.751953 C 48.890625 81.421875 48.779297 86.167969 49.417969 90.761719 C 49.910156 94.248047 49.740234 97.962891 50.320312 101.601562 C 50.601562 103.400391 50.361328 105.351562 50.689453 107.232422 C 51.298828 110.677734 51.222656 113.320312 51.550781 116.490234 C 52.769531 128.261719 53.876953 140.044922 54.867188 151.839844 C 55.3125 157.060547 56.091797 161.882812 56.378906 167.501953 C 56.537109 170.765625 57.333984 178.517578 58.757812 190.757812 C 58.974609 192.580078 59.103516 194.53125 59.150391 196.611328 C 59.162109 197.255859 59.601562 197.8125 60.222656 197.970703 C 78.503906 202.664062 96.931641 207.498047 115.5 212.472656 C 117.621094 213.041016 119.238281 213.621094 121.482422 213.017578 " transform="matrix(0.666667,0,0,0.666667,0,0)"/>
<path style="fill:none;stroke-width:2;stroke-linecap:butt;stroke-linejoin:miter;stroke:rgb(94.509804%,72.941176%,17.647059%);stroke-opacity:1;stroke-miterlimit:4;" d="M 117.580078 197.830078 C 117.580078 197.982422 117.65625 198.128906 117.779297 198.222656 C 117.902344 198.316406 118.060547 198.351562 118.212891 198.310547 L 167.349609 184.617188 C 167.548828 184.564453 167.695312 184.388672 167.712891 184.177734 L 178.259766 61.78125 C 178.271484 61.640625 178.224609 61.505859 178.130859 61.40625 C 178.037109 61.300781 177.908203 61.242188 177.767578 61.242188 L 118.089844 61.201172 C 117.814453 61.201172 117.591797 61.423828 117.591797 61.699219 L 117.580078 197.830078 " transform="matrix(0.666667,0,0,0.666667,0,0)"/>
<path style="fill:none;stroke-width:2;stroke-linecap:butt;stroke-linejoin:miter;stroke:rgb(94.901961%,79.215686%,55.294118%);stroke-opacity:1;stroke-miterlimit:4;" d="M 67.3125 156.017578 C 67.3125 156.287109 67.511719 156.515625 67.78125 156.550781 L 112.148438 162.708984 C 112.300781 162.732422 112.458984 162.685547 112.576172 162.580078 C 112.693359 162.480469 112.757812 162.333984 112.757812 162.181641 L 112.757812 85.869141 C 112.757812 85.570312 112.517578 85.330078 112.21875 85.330078 L 98.0625 85.289062 C 97.763672 85.289062 97.517578 85.529297 97.517578 85.828125 L 97.552734 145.96875 C 97.552734 146.267578 97.306641 146.507812 97.007812 146.507812 L 82.880859 146.501953 C 82.587891 146.496094 82.347656 146.255859 82.347656 145.962891 L 82.412109 138.808594 C 82.412109 138.515625 82.171875 138.275391 81.878906 138.269531 L 67.927734 138.257812 C 67.628906 138.257812 67.388672 138.503906 67.388672 138.802734 L 67.3125 156.017578 " transform="matrix(0.666667,0,0,0.666667,0,0)"/>
<path style="fill:none;stroke-width:2;stroke-linecap:butt;stroke-linejoin:miter;stroke:rgb(94.117647%,86.27451%,54.117647%);stroke-opacity:1;stroke-miterlimit:4;" d="M 137.267578 116.431641 C 136.980469 116.431641 136.751953 116.197266 136.751953 115.910156 L 136.751953 101.308594 C 136.751953 101.021484 136.980469 100.787109 137.267578 100.787109 L 165.140625 100.869141 C 165.28125 100.869141 165.421875 100.810547 165.521484 100.705078 C 165.615234 100.605469 165.667969 100.464844 165.662109 100.318359 L 165.099609 89.982422 C 165.087891 89.724609 164.894531 89.519531 164.642578 89.490234 L 122.970703 85.388672 C 122.824219 85.376953 122.683594 85.423828 122.572266 85.517578 C 122.466797 85.617188 122.402344 85.751953 122.402344 85.898438 L 122.378906 131.232422 C 122.378906 131.519531 122.613281 131.748047 122.900391 131.748047 L 150.820312 131.742188 C 151.107422 131.742188 151.341797 131.970703 151.341797 132.257812 L 151.371094 146.712891 C 151.371094 147 151.136719 147.228516 150.849609 147.228516 L 122.958984 147.240234 C 122.671875 147.240234 122.4375 147.474609 122.4375 147.761719 L 122.367188 162.1875 C 122.367188 162.339844 122.431641 162.474609 122.537109 162.574219 C 122.648438 162.673828 122.794922 162.726562 122.941406 162.708984 L 164.53125 158.660156 C 164.789062 158.636719 164.988281 158.419922 165 158.162109 L 165.732422 116.929688 C 165.732422 116.789062 165.679688 116.654297 165.580078 116.554688 C 165.486328 116.455078 165.351562 116.402344 165.210938 116.402344 L 137.267578 116.431641 " transform="matrix(0.666667,0,0,0.666667,0,0)"/>
<path style=" stroke:none;fill-rule:nonzero;fill:rgb(97.254902%,89.019608%,75.686275%);fill-opacity:1;" d="M 75.914062 0 L 83.488281 0 C 125.332031 2.421875 157.066406 34.191406 160 75.941406 L 160 83.148438 C 159.152344 100.171875 153.792969 115.152344 143.921875 128.085938 C 129.105469 147.492188 109.15625 158.128906 84.066406 160 L 76.527344 160 C 58.953125 159.027344 43.582031 153.277344 30.414062 142.753906 C 11.8125 127.878906 1.675781 108.203125 0 83.734375 L 0 76.511719 C 0.828125 61.273438 5.238281 47.738281 13.238281 35.90625 C 27.976562 14.097656 48.867188 2.128906 75.914062 0 Z M 80.988281 142.011719 C 94.046875 138.558594 107.105469 134.792969 120.058594 131.066406 C 120.425781 130.960938 120.6875 130.644531 120.71875 130.265625 C 122.484375 110.261719 124.265625 90.242188 126.066406 70.207031 C 126.066406 70.183594 126.121094 69.15625 126.234375 67.125 C 126.292969 66.019531 126.425781 64.589844 126.640625 62.832031 C 127.3125 57.21875 127.882812 49.988281 128.351562 41.140625 C 128.445312 39.378906 129.105469 37.339844 128.90625 35.167969 C 128.839844 34.464844 128.992188 33.992188 129.359375 33.746094 C 129.480469 33.671875 129.535156 33.527344 129.496094 33.390625 C 129.457031 33.253906 129.328125 33.164062 129.1875 33.167969 L 30.832031 33.152344 C 30.679688 33.152344 30.578125 33.230469 30.539062 33.386719 C 30.191406 34.808594 30.839844 35.933594 30.832031 37.171875 C 30.808594 39.734375 31.320312 42.621094 31.460938 44.726562 C 31.683594 48.050781 31.878906 50.199219 32.046875 51.167969 C 32.59375 54.28125 32.519531 57.445312 32.945312 60.507812 C 33.273438 62.832031 33.160156 65.308594 33.546875 67.734375 C 33.734375 68.933594 33.574219 70.234375 33.792969 71.488281 C 34.199219 73.785156 34.148438 75.546875 34.367188 77.660156 C 35.179688 85.507812 35.917969 93.363281 36.578125 101.226562 C 36.875 104.707031 37.394531 107.921875 37.585938 111.667969 C 37.691406 113.84375 38.222656 119.011719 39.171875 127.171875 C 39.316406 128.386719 39.402344 129.6875 39.433594 131.074219 C 39.441406 131.503906 39.734375 131.875 40.148438 131.980469 C 52.335938 135.109375 64.621094 138.332031 77 141.648438 C 78.414062 142.027344 79.492188 142.414062 80.988281 142.011719 Z M 80.988281 142.011719 "/>
<path style=" stroke:none;fill-rule:nonzero;fill:rgb(95.294118%,65.490196%,18.823529%);fill-opacity:1;" d="M 120.058594 131.066406 C 107.105469 134.792969 94.046875 138.558594 80.988281 142.011719 C 79.492188 142.414062 78.414062 142.027344 77 141.648438 C 64.621094 138.332031 52.335938 135.109375 40.148438 131.980469 C 39.734375 131.875 39.441406 131.503906 39.433594 131.074219 C 39.402344 129.6875 39.316406 128.386719 39.171875 127.171875 C 38.222656 119.011719 37.691406 113.84375 37.585938 111.667969 C 37.394531 107.921875 36.875 104.707031 36.578125 101.226562 C 35.917969 93.363281 35.179688 85.507812 34.367188 77.660156 C 34.148438 75.546875 34.199219 73.785156 33.792969 71.488281 C 33.574219 70.234375 33.734375 68.933594 33.546875 67.734375 C 33.160156 65.308594 33.273438 62.832031 32.945312 60.507812 C 32.519531 57.445312 32.59375 54.28125 32.046875 51.167969 C 31.878906 50.199219 31.683594 48.050781 31.460938 44.726562 C 31.320312 42.621094 30.808594 39.734375 30.832031 37.171875 C 30.839844 35.933594 30.191406 34.808594 30.539062 33.386719 C 30.578125 33.230469 30.679688 33.152344 30.832031 33.152344 L 129.1875 33.167969 C 129.328125 33.164062 129.457031 33.253906 129.496094 33.390625 C 129.535156 33.527344 129.480469 33.671875 129.359375 33.746094 C 128.992188 33.992188 128.839844 34.464844 128.90625 35.167969 C 129.105469 37.339844 128.445312 39.378906 128.351562 41.140625 C 127.882812 49.988281 127.3125 57.21875 126.640625 62.832031 C 126.425781 64.589844 126.292969 66.019531 126.234375 67.125 C 126.121094 69.15625 126.066406 70.183594 126.066406 70.207031 C 124.265625 90.242188 122.484375 110.261719 120.71875 130.265625 C 120.6875 130.644531 120.425781 130.960938 120.058594 131.066406 Z M 78.386719 131.886719 C 78.386719 131.988281 78.4375 132.085938 78.519531 132.148438 C 78.601562 132.210938 78.707031 132.234375 78.808594 132.207031 L 111.566406 123.078125 C 111.699219 123.042969 111.796875 122.925781 111.808594 122.785156 L 118.839844 41.1875 C 118.847656 41.09375 118.816406 41.003906 118.753906 40.9375 C 118.691406 40.867188 118.605469 40.828125 118.511719 40.828125 L 78.726562 40.800781 C 78.542969 40.800781 78.394531 40.949219 78.394531 41.132812 Z M 44.875 104.011719 C 44.875 104.191406 45.007812 104.34375 45.1875 104.367188 L 74.765625 108.472656 C 74.867188 108.488281 74.972656 108.457031 75.050781 108.386719 C 75.128906 108.320312 75.171875 108.222656 75.171875 108.121094 L 75.171875 57.246094 C 75.171875 57.046875 75.011719 56.886719 74.8125 56.886719 L 65.375 56.859375 C 65.175781 56.859375 65.011719 57.019531 65.011719 57.21875 L 65.035156 97.3125 C 65.035156 97.511719 64.871094 97.671875 64.671875 97.671875 L 55.253906 97.667969 C 55.058594 97.664062 54.898438 97.503906 54.898438 97.308594 L 54.941406 92.539062 C 54.941406 92.34375 54.78125 92.183594 54.585938 92.179688 L 45.285156 92.171875 C 45.085938 92.171875 44.925781 92.335938 44.925781 92.535156 Z M 44.875 104.011719 "/>
<path style=" stroke:none;fill-rule:nonzero;fill:rgb(93.72549%,80%,16.470588%);fill-opacity:1;" d="M 78.386719 131.886719 L 78.394531 41.132812 C 78.394531 40.949219 78.542969 40.800781 78.726562 40.800781 L 118.511719 40.828125 C 118.605469 40.828125 118.691406 40.867188 118.753906 40.9375 C 118.816406 41.003906 118.847656 41.09375 118.839844 41.1875 L 111.808594 122.785156 C 111.796875 122.925781 111.699219 123.042969 111.566406 123.078125 L 78.808594 132.207031 C 78.707031 132.234375 78.601562 132.210938 78.519531 132.148438 C 78.4375 132.085938 78.386719 131.988281 78.386719 131.886719 Z M 91.511719 77.621094 C 91.320312 77.621094 91.167969 77.464844 91.167969 77.273438 L 91.167969 67.539062 C 91.167969 67.347656 91.320312 67.191406 91.511719 67.191406 L 110.09375 67.246094 C 110.1875 67.246094 110.28125 67.207031 110.347656 67.136719 C 110.410156 67.070312 110.445312 66.976562 110.441406 66.878906 L 110.066406 59.988281 C 110.058594 59.816406 109.929688 59.679688 109.761719 59.660156 L 81.980469 56.925781 C 81.882812 56.917969 81.789062 56.949219 81.714844 57.011719 C 81.644531 57.078125 81.601562 57.167969 81.601562 57.265625 L 81.585938 87.488281 C 81.585938 87.679688 81.742188 87.832031 81.933594 87.832031 L 100.546875 87.828125 C 100.738281 87.828125 100.894531 87.980469 100.894531 88.171875 L 100.914062 97.808594 C 100.914062 98 100.757812 98.152344 100.566406 98.152344 L 81.972656 98.160156 C 81.78125 98.160156 81.625 98.316406 81.625 98.507812 L 81.578125 108.125 C 81.578125 108.226562 81.621094 108.316406 81.691406 108.382812 C 81.765625 108.449219 81.863281 108.484375 81.960938 108.472656 L 109.6875 105.773438 C 109.859375 105.757812 109.992188 105.613281 110 105.441406 L 110.488281 77.953125 C 110.488281 77.859375 110.453125 77.769531 110.386719 77.703125 C 110.324219 77.636719 110.234375 77.601562 110.140625 77.601562 Z M 91.511719 77.621094 "/>
<path style=" stroke:none;fill-rule:nonzero;fill:rgb(94.509804%,92.54902%,91.372549%);fill-opacity:1;" d="M 44.875 104.011719 L 44.925781 92.535156 C 44.925781 92.335938 45.085938 92.171875 45.285156 92.171875 L 54.585938 92.179688 C 54.78125 92.183594 54.941406 92.34375 54.941406 92.539062 L 54.898438 97.308594 C 54.898438 97.503906 55.058594 97.664062 55.253906 97.667969 L 64.671875 97.671875 C 64.871094 97.671875 65.035156 97.511719 65.035156 97.3125 L 65.011719 57.21875 C 65.011719 57.019531 65.175781 56.859375 65.375 56.859375 L 74.8125 56.886719 C 75.011719 56.886719 75.171875 57.046875 75.171875 57.246094 L 75.171875 108.121094 C 75.171875 108.222656 75.128906 108.320312 75.050781 108.386719 C 74.972656 108.457031 74.867188 108.488281 74.765625 108.472656 L 45.1875 104.367188 C 45.007812 104.34375 44.875 104.191406 44.875 104.011719 Z M 44.875 104.011719 "/>
<path style=" stroke:none;fill-rule:nonzero;fill:rgb(94.509804%,92.54902%,91.372549%);fill-opacity:1;" d="M 91.511719 77.621094 L 110.140625 77.601562 C 110.234375 77.601562 110.324219 77.636719 110.386719 77.703125 C 110.453125 77.769531 110.488281 77.859375 110.488281 77.953125 L 110 105.441406 C 109.992188 105.613281 109.859375 105.757812 109.6875 105.773438 L 81.960938 108.472656 C 81.863281 108.484375 81.765625 108.449219 81.691406 108.382812 C 81.621094 108.316406 81.578125 108.226562 81.578125 108.125 L 81.625 98.507812 C 81.625 98.316406 81.78125 98.160156 81.972656 98.160156 L 100.566406 98.152344 C 100.757812 98.152344 100.914062 98 100.914062 97.808594 L 100.894531 88.171875 C 100.894531 87.980469 100.738281 87.828125 100.546875 87.828125 L 81.933594 87.832031 C 81.742188 87.832031 81.585938 87.679688 81.585938 87.488281 L 81.601562 57.265625 C 81.601562 57.167969 81.644531 57.078125 81.714844 57.011719 C 81.789062 56.949219 81.882812 56.917969 81.980469 56.925781 L 109.761719 59.660156 C 109.929688 59.679688 110.058594 59.816406 110.066406 59.988281 L 110.441406 66.878906 C 110.445312 66.976562 110.410156 67.070312 110.347656 67.136719 C 110.28125 67.207031 110.1875 67.246094 110.09375 67.246094 L 91.511719 67.191406 C 91.320312 67.191406 91.167969 67.347656 91.167969 67.539062 L 91.167969 77.273438 C 91.167969 77.464844 91.320312 77.621094 91.511719 77.621094 Z M 91.511719 77.621094 "/>
</g>
</svg>
