<?xml version="1.0" encoding="UTF-8"?>
<svg xmlns="http://www.w3.org/2000/svg" xmlns:xlink="http://www.w3.org/1999/xlink" width="80px" height="80px" viewBox="0 0 80 80" version="1.1">
<g id="surface1">
<path style="fill:none;stroke-width:2;stroke-linecap:butt;stroke-linejoin:miter;stroke:rgb(65.098039%,55.294118%,49.803922%);stroke-opacity:1;stroke-miterlimit:4;" d="M 78.703125 60.480469 C 75.527344 59.425781 72.585938 59.214844 69.867188 59.847656 C 67.007812 60.515625 63.972656 60.890625 61.945312 61.40625 C 46.710938 65.378906 36.433594 75.515625 24.949219 87.679688 C 23.707031 89.003906 22.523438 90.867188 20.988281 92.425781 C 18.984375 94.453125 17.109375 96.691406 15.375 99.152344 C 14.953125 99.738281 15.035156 100.546875 15.574219 101.039062 L 30.105469 114.433594 " transform="matrix(0.333333,0,0,0.333333,0,0)"/>
<path style="fill:none;stroke-width:2;stroke-linecap:butt;stroke-linejoin:miter;stroke:rgb(61.568627%,52.941176%,48.235294%);stroke-opacity:1;stroke-miterlimit:4;" d="M 30.105469 114.433594 L 40.019531 134.25 " transform="matrix(0.333333,0,0,0.333333,0,0)"/>
<path style="fill:none;stroke-width:2;stroke-linecap:butt;stroke-linejoin:miter;stroke:rgb(65.098039%,55.294118%,49.803922%);stroke-opacity:1;stroke-miterlimit:4;" d="M 40.019531 134.25 C 41.121094 135.574219 42.304688 136.757812 43.535156 137.800781 C 45.011719 139.054688 47.273438 138.691406 47.660156 136.863281 C 47.976562 135.375 48.515625 133.652344 49.277344 131.660156 " transform="matrix(0.333333,0,0,0.333333,0,0)"/>
<path style="fill:none;stroke-width:2;stroke-linecap:butt;stroke-linejoin:miter;stroke:rgb(88.235294%,78.431373%,69.019608%);stroke-opacity:1;stroke-miterlimit:4;" d="M 49.277344 131.660156 C 50.34375 135.246094 51.175781 138.679688 51.785156 141.949219 C 52.042969 143.34375 52.3125 144.257812 52.59375 144.679688 C 54.386719 147.433594 56.261719 150.152344 58.21875 152.824219 C 62.285156 158.378906 61.535156 165.058594 66.011719 170.214844 C 70.148438 174.996094 75.058594 177.878906 80.753906 178.863281 " transform="matrix(0.333333,0,0,0.333333,0,0)"/>
<path style="fill:none;stroke-width:2;stroke-linecap:butt;stroke-linejoin:miter;stroke:rgb(61.568627%,52.941176%,48.235294%);stroke-opacity:1;stroke-miterlimit:4;" d="M 80.753906 178.863281 C 83.003906 179.753906 85.335938 180.351562 87.75 180.667969 C 90.960938 181.078125 93.269531 181.476562 94.675781 181.863281 C 107.730469 185.320312 119.050781 184.605469 131.601562 184.476562 C 137.566406 184.429688 143.296875 182.753906 148.921875 180.949219 C 153.164062 179.589844 157.171875 180.984375 161.039062 178.382812 " transform="matrix(0.333333,0,0,0.333333,0,0)"/>
<path style="fill:none;stroke-width:2;stroke-linecap:butt;stroke-linejoin:miter;stroke:rgb(88.235294%,78.431373%,69.019608%);stroke-opacity:1;stroke-miterlimit:4;" d="M 161.039062 178.382812 C 161.707031 178.664062 162.175781 178.746094 162.457031 178.652344 C 172.652344 175.089844 178.664062 167.976562 180.515625 157.3125 C 180.808594 155.660156 181.148438 154.582031 181.546875 154.054688 C 184.300781 150.445312 187.101562 147.140625 188.671875 142.875 C 189.644531 140.226562 190.535156 137.414062 191.320312 134.4375 " transform="matrix(0.333333,0,0,0.333333,0,0)"/>
<path style="fill:none;stroke-width:2;stroke-linecap:butt;stroke-linejoin:miter;stroke:rgb(65.098039%,55.294118%,49.803922%);stroke-opacity:1;stroke-miterlimit:4;" d="M 191.320312 134.4375 C 192.011719 136.195312 192.667969 137.425781 193.324219 138.128906 C 193.933594 138.808594 194.953125 138.925781 195.714844 138.398438 C 197.355469 137.261719 198.785156 135.808594 200.003906 134.039062 " transform="matrix(0.333333,0,0,0.333333,0,0)"/>
<path style="fill:none;stroke-width:2;stroke-linecap:butt;stroke-linejoin:miter;stroke:rgb(61.568627%,52.941176%,48.235294%);stroke-opacity:1;stroke-miterlimit:4;" d="M 200.003906 134.039062 L 209.285156 115.453125 " transform="matrix(0.333333,0,0,0.333333,0,0)"/>
<path style="fill:none;stroke-width:2;stroke-linecap:butt;stroke-linejoin:miter;stroke:rgb(65.098039%,55.294118%,49.803922%);stroke-opacity:1;stroke-miterlimit:4;" d="M 209.285156 115.453125 L 223.558594 101.308594 C 224.730469 100.148438 224.777344 98.953125 223.675781 97.710938 C 216.234375 89.285156 209.0625 81.175781 200.578125 73.792969 C 196.171875 69.949219 192.164062 67.160156 188.554688 65.425781 C 180.269531 61.417969 170.355469 58.933594 161.144531 59.929688 " transform="matrix(0.333333,0,0,0.333333,0,0)"/>
<path style="fill:none;stroke-width:2;stroke-linecap:butt;stroke-linejoin:miter;stroke:rgb(94.901961%,85.098039%,73.72549%);stroke-opacity:1;stroke-miterlimit:4;" d="M 161.144531 59.929688 C 151.886719 57.808594 141.996094 56.601562 131.496094 56.285156 C 113.542969 55.769531 95.941406 57.164062 78.703125 60.480469 " transform="matrix(0.333333,0,0,0.333333,0,0)"/>
<path style="fill:none;stroke-width:2;stroke-linecap:butt;stroke-linejoin:miter;stroke:rgb(63.921569%,50.196078%,40.784314%);stroke-opacity:1;stroke-miterlimit:4;" d="M 161.144531 59.929688 C 167.144531 65.121094 172.160156 70.816406 176.191406 77.003906 " transform="matrix(0.333333,0,0,0.333333,0,0)"/>
<path style="fill:none;stroke-width:2;stroke-linecap:butt;stroke-linejoin:miter;stroke:rgb(87.058824%,73.72549%,60%);stroke-opacity:1;stroke-miterlimit:4;" d="M 176.191406 77.003906 C 178.734375 81.644531 181.113281 86.261719 183.339844 90.855469 C 183.925781 92.050781 184.066406 93.714844 183.246094 94.675781 C 182.625 95.414062 181.96875 95.4375 181.289062 94.746094 C 177.914062 91.3125 174.984375 87.503906 172.535156 83.332031 C 172.195312 82.78125 171.984375 82.816406 171.902344 83.460938 C 171.820312 84.058594 172.019531 84.902344 172.488281 86.015625 C 172.699219 86.472656 172.78125 86.753906 172.746094 86.847656 C 172.464844 87.585938 171.667969 87.972656 170.90625 87.75 C 163.875 85.664062 157.042969 84.960938 150.421875 85.652344 C 146.109375 86.097656 145.933594 88.21875 147.140625 91.828125 C 148.417969 95.671875 149.039062 99.65625 149.015625 103.757812 C 148.992188 105.996094 147.984375 107.320312 145.992188 107.730469 C 145.734375 107.777344 145.535156 107.988281 145.488281 108.257812 C 145.453125 108.515625 145.582031 108.773438 145.804688 108.902344 L 152.332031 112.546875 " transform="matrix(0.333333,0,0,0.333333,0,0)"/>
<path style="fill:none;stroke-width:2;stroke-linecap:butt;stroke-linejoin:miter;stroke:rgb(47.058824%,40.392157%,32.54902%);stroke-opacity:1;stroke-miterlimit:4;" d="M 152.332031 112.546875 C 154.980469 116.074219 158.285156 119.15625 162.246094 121.816406 " transform="matrix(0.333333,0,0,0.333333,0,0)"/>
<path style="fill:none;stroke-width:2;stroke-linecap:butt;stroke-linejoin:miter;stroke:rgb(87.058824%,73.72549%,60%);stroke-opacity:1;stroke-miterlimit:4;" d="M 162.246094 121.816406 C 164.671875 127.078125 167.601562 129.105469 171.035156 127.875 C 178.933594 125.074219 183.457031 120.503906 185.144531 112.183594 C 185.191406 111.925781 185.332031 111.84375 185.566406 111.960938 L 185.894531 112.125 C 186.210938 112.265625 186.398438 112.582031 186.386719 112.933594 C 186.011719 123.292969 191.871094 139.722656 184.195312 147.175781 C 182.753906 148.582031 179.214844 151.125 173.589844 154.792969 C 172.699219 155.367188 171.820312 155.824219 170.964844 156.140625 C 170.414062 156.339844 169.792969 156.304688 169.277344 156.035156 C 168.75 155.765625 168.375 155.285156 168.234375 154.710938 L 167.226562 150.785156 " transform="matrix(0.333333,0,0,0.333333,0,0)"/>
<path style="fill:none;stroke-width:2;stroke-linecap:butt;stroke-linejoin:miter;stroke:rgb(63.921569%,50.196078%,40.784314%);stroke-opacity:1;stroke-miterlimit:4;" d="M 167.226562 150.785156 C 168.105469 138.398438 161.34375 130.289062 153.199219 122.554688 C 148.828125 118.40625 143.765625 115.453125 137.976562 113.695312 " transform="matrix(0.333333,0,0,0.333333,0,0)"/>
<path style="fill:none;stroke-width:2;stroke-linecap:butt;stroke-linejoin:miter;stroke:rgb(87.058824%,73.72549%,60%);stroke-opacity:1;stroke-miterlimit:4;" d="M 137.976562 113.695312 C 137.167969 110.964844 136.277344 109.3125 135.304688 108.703125 C 129.761719 105.269531 127.476562 102.105469 120.257812 103.066406 C 114.433594 103.851562 109.675781 105.667969 105.714844 109.605469 C 104.25 111.058594 102.785156 111.609375 102.257812 113.964844 " transform="matrix(0.333333,0,0,0.333333,0,0)"/>
<path style="fill:none;stroke-width:2;stroke-linecap:butt;stroke-linejoin:miter;stroke:rgb(63.921569%,50.196078%,40.784314%);stroke-opacity:1;stroke-miterlimit:4;" d="M 102.257812 113.964844 L 92.578125 119.53125 " transform="matrix(0.333333,0,0,0.333333,0,0)"/>
<path style="fill:none;stroke-width:2;stroke-linecap:butt;stroke-linejoin:miter;stroke:rgb(87.058824%,73.72549%,60%);stroke-opacity:1;stroke-miterlimit:4;" d="M 92.578125 119.53125 C 89.425781 119.566406 87 120.984375 85.300781 123.761719 C 85.125 124.042969 84.890625 124.253906 84.597656 124.394531 C 82.054688 125.613281 78.65625 129.433594 77.402344 132.128906 C 76.535156 133.957031 75.621094 135.234375 74.566406 136.804688 C 74.402344 137.039062 74.332031 137.308594 74.367188 137.601562 C 74.460938 138.269531 74.285156 138.867188 73.851562 139.382812 C 73.640625 139.628906 73.523438 139.921875 73.5 140.238281 C 73.394531 141.375 73.277344 142.171875 73.136719 142.628906 C 72.046875 146.015625 71.707031 149.964844 72.117188 154.476562 C 72.1875 155.308594 71.847656 156.09375 71.074219 156.808594 C 70.851562 157.007812 70.640625 157.007812 70.417969 156.832031 C 69.351562 155.988281 67.453125 154.804688 64.734375 153.304688 C 63.09375 152.402344 60.609375 150.433594 57.304688 147.398438 C 55.582031 145.828125 54.375 144.164062 53.660156 142.382812 C 52.605469 139.722656 52.21875 137.425781 52.476562 135.492188 C 53.378906 128.929688 54.09375 122.355469 54.621094 115.746094 C 54.714844 114.539062 55.207031 114.035156 56.085938 114.222656 C 56.367188 114.28125 56.578125 114.480469 56.660156 114.75 C 57.785156 118.21875 59.261719 121.535156 62.25 123.773438 C 64.242188 125.261719 72.914062 129.984375 74.90625 127.171875 C 76.171875 125.378906 77.425781 123.667969 78.65625 122.050781 " transform="matrix(0.333333,0,0,0.333333,0,0)"/>
<path style="fill:none;stroke-width:2;stroke-linecap:butt;stroke-linejoin:miter;stroke:rgb(47.058824%,40.392157%,32.54902%);stroke-opacity:1;stroke-miterlimit:4;" d="M 78.65625 122.050781 L 89.097656 112.382812 " transform="matrix(0.333333,0,0,0.333333,0,0)"/>
<path style="fill:none;stroke-width:2;stroke-linecap:butt;stroke-linejoin:miter;stroke:rgb(87.058824%,73.72549%,60%);stroke-opacity:1;stroke-miterlimit:4;" d="M 89.097656 112.382812 L 95.355469 108.679688 C 97.03125 107.695312 96.867188 107.203125 94.886719 107.214844 C 89.695312 107.214844 92.742188 94.535156 93.410156 91.921875 C 94.324219 88.429688 94.59375 85.582031 90.023438 85.535156 C 84.515625 85.464844 81.023438 85.570312 79.535156 85.816406 C 76.21875 86.390625 72.667969 86.976562 68.859375 87.585938 C 68.53125 87.644531 68.191406 87.515625 67.980469 87.257812 C 67.757812 87.011719 67.699219 86.660156 67.804688 86.34375 C 68.050781 85.570312 68.085938 84.785156 67.910156 84.011719 C 67.769531 83.414062 67.546875 83.390625 67.253906 83.917969 C 66.574219 85.125 66.140625 86.332031 65.273438 87.375 C 63.339844 89.695312 61.40625 92.074219 59.449219 94.535156 C 59.144531 94.910156 58.605469 95.015625 58.171875 94.792969 L 57.679688 94.535156 C 57.386719 94.371094 57.292969 94.136719 57.398438 93.820312 C 59.460938 87.527344 62.214844 83.8125 65.367188 78.890625 C 67.722656 75.234375 69.714844 73.101562 70.125 68.390625 " transform="matrix(0.333333,0,0,0.333333,0,0)"/>
<path style="fill:none;stroke-width:2;stroke-linecap:butt;stroke-linejoin:miter;stroke:rgb(63.921569%,50.196078%,40.784314%);stroke-opacity:1;stroke-miterlimit:4;" d="M 70.125 68.390625 L 78.703125 60.480469 " transform="matrix(0.333333,0,0,0.333333,0,0)"/>
<path style="fill:none;stroke-width:2;stroke-linecap:butt;stroke-linejoin:miter;stroke:rgb(57.254902%,43.921569%,36.078431%);stroke-opacity:1;stroke-miterlimit:4;" d="M 70.125 68.390625 C 61.535156 78.082031 54.773438 89.414062 52.324219 102.351562 C 50.660156 111.058594 50.425781 119.460938 49.511719 128.214844 C 49.371094 129.539062 49.289062 130.6875 49.277344 131.660156 " transform="matrix(0.333333,0,0,0.333333,0,0)"/>
<path style="fill:none;stroke-width:2;stroke-linecap:butt;stroke-linejoin:miter;stroke:rgb(30.196078%,18.039216%,15.294118%);stroke-opacity:1;stroke-miterlimit:4;" d="M 40.019531 134.25 C 40.804688 134.097656 40.875 133.335938 40.21875 131.964844 C 40.078125 131.671875 40.03125 131.332031 40.078125 131.015625 C 40.242188 129.972656 40.347656 128.953125 40.371094 127.945312 C 40.394531 126.9375 41.261719 126.140625 41.460938 125.074219 C 42.128906 121.394531 42.773438 117.855469 42.832031 114.09375 C 42.855469 112.96875 43.03125 111.867188 43.394531 110.789062 C 43.980469 108.984375 43.945312 107.109375 44.824219 105.363281 C 44.964844 105.082031 45.035156 104.777344 45.035156 104.472656 C 45.058594 101.988281 45.703125 99.714844 46.992188 97.664062 C 48.984375 94.488281 49.230469 90.832031 51.082031 87.820312 C 53.753906 83.496094 55.640625 79.957031 56.742188 77.203125 C 56.929688 76.722656 56.988281 76.347656 56.894531 76.078125 C 56.8125 75.796875 56.566406 75.585938 56.273438 75.527344 C 55.980469 75.480469 55.675781 75.597656 55.488281 75.832031 C 53.894531 77.871094 52.21875 79.933594 50.484375 82.007812 C 48.714844 84.105469 47.378906 86.660156 45.632812 88.945312 C 41.074219 94.839844 37.863281 102.011719 34.640625 108.714844 C 34.628906 108.738281 34.371094 109.453125 33.890625 110.859375 C 33.351562 112.40625 32.097656 113.601562 30.105469 114.433594 " transform="matrix(0.333333,0,0,0.333333,0,0)"/>
<path style="fill:none;stroke-width:2;stroke-linecap:butt;stroke-linejoin:miter;stroke:rgb(30.196078%,18.039216%,15.294118%);stroke-opacity:1;stroke-miterlimit:4;" d="M 209.285156 115.453125 C 207.011719 113.507812 205.582031 110.988281 205.019531 107.882812 C 204.761719 106.453125 204.375 105.269531 203.847656 104.332031 C 202.3125 101.519531 201.011719 98.636719 199.21875 96.035156 C 196.265625 91.769531 193.652344 87.785156 191.203125 83.203125 C 191.039062 82.898438 190.816406 82.652344 190.535156 82.453125 C 188.484375 80.976562 186.820312 79.160156 185.542969 77.003906 C 185.402344 76.769531 185.15625 76.617188 184.875 76.628906 C 184.605469 76.628906 184.359375 76.78125 184.230469 77.015625 L 184.054688 77.355469 C 183.667969 78.058594 183.679688 78.761719 184.089844 79.453125 C 189.5625 88.628906 192.210938 94.628906 194.847656 104.683594 C 195.375 106.675781 196.605469 108.796875 197.015625 110.753906 C 197.625 113.613281 198.175781 117.386719 198.679688 122.0625 C 198.890625 123.984375 199.851562 124.523438 199.3125 126.714844 C 198.925781 128.355469 199.464844 129.785156 199.125 131.34375 C 198.996094 131.894531 198.890625 132.445312 198.820312 133.007812 C 198.714844 133.746094 199.101562 134.085938 200.003906 134.039062 " transform="matrix(0.333333,0,0,0.333333,0,0)"/>
<path style="fill:none;stroke-width:2;stroke-linecap:butt;stroke-linejoin:miter;stroke:rgb(57.254902%,43.921569%,36.078431%);stroke-opacity:1;stroke-miterlimit:4;" d="M 191.320312 134.4375 C 190.476562 126.902344 189.667969 119.097656 188.871094 111.035156 C 188.566406 107.90625 188.144531 104.8125 187.605469 101.71875 C 186.035156 92.835938 181.335938 83.484375 176.191406 77.003906 " transform="matrix(0.333333,0,0,0.333333,0,0)"/>
<path style="fill:none;stroke-width:2;stroke-linecap:butt;stroke-linejoin:miter;stroke:rgb(40.392157%,33.72549%,27.843137%);stroke-opacity:1;stroke-miterlimit:4;" d="M 89.097656 112.382812 C 90.175781 108.960938 89.917969 105.5625 88.324219 102.175781 C 84.222656 93.457031 72.105469 90.503906 65.214844 97.6875 C 55.03125 108.28125 64.265625 125.414062 78.65625 122.050781 " transform="matrix(0.333333,0,0,0.333333,0,0)"/>
<path style="fill:none;stroke-width:2;stroke-linecap:butt;stroke-linejoin:miter;stroke:rgb(57.254902%,43.921569%,36.078431%);stroke-opacity:1;stroke-miterlimit:4;" d="M 92.578125 119.53125 C 82.734375 128.0625 74.484375 136.675781 74.753906 150.234375 C 74.800781 152.390625 74.835938 154.558594 74.882812 156.714844 " transform="matrix(0.333333,0,0,0.333333,0,0)"/>
<path style="fill:none;stroke-width:2;stroke-linecap:butt;stroke-linejoin:miter;stroke:rgb(53.72549%,41.568627%,34.509804%);stroke-opacity:1;stroke-miterlimit:4;" d="M 74.882812 156.714844 C 74.964844 164.402344 75.855469 172.429688 80.753906 178.863281 " transform="matrix(0.333333,0,0,0.333333,0,0)"/>
<path style="fill:none;stroke-width:2;stroke-linecap:butt;stroke-linejoin:miter;stroke:rgb(53.72549%,41.568627%,34.509804%);stroke-opacity:1;stroke-miterlimit:4;" d="M 161.039062 178.382812 C 166.195312 171.832031 166.804688 162.175781 166.875 153.9375 " transform="matrix(0.333333,0,0,0.333333,0,0)"/>
<path style="fill:none;stroke-width:2;stroke-linecap:butt;stroke-linejoin:miter;stroke:rgb(57.254902%,43.921569%,36.078431%);stroke-opacity:1;stroke-miterlimit:4;" d="M 166.875 153.9375 C 167.273438 152.824219 167.390625 151.78125 167.226562 150.785156 " transform="matrix(0.333333,0,0,0.333333,0,0)"/>
<path style="fill:none;stroke-width:2;stroke-linecap:butt;stroke-linejoin:miter;stroke:rgb(40.392157%,33.72549%,27.843137%);stroke-opacity:1;stroke-miterlimit:4;" d="M 162.246094 121.816406 C 165.890625 122.988281 169.535156 122.613281 173.191406 120.679688 C 178.710938 117.75 181.289062 112.171875 180.503906 106.007812 C 178.453125 90.234375 156 89.472656 152.285156 104.988281 C 152.039062 106.03125 152.0625 108.5625 152.332031 112.546875 " transform="matrix(0.333333,0,0,0.333333,0,0)"/>
<path style="fill:none;stroke-width:2;stroke-linecap:butt;stroke-linejoin:miter;stroke:rgb(30.196078%,18.039216%,15.294118%);stroke-opacity:1;stroke-miterlimit:4;" d="M 166.875 153.9375 C 166.78125 152.871094 166.148438 152.554688 164.976562 152.964844 C 163.933594 153.339844 163.066406 154.160156 162.375 155.425781 C 162.210938 155.71875 161.953125 155.964844 161.648438 156.117188 C 158.34375 157.792969 156.199219 160.628906 153.269531 162.246094 C 149.988281 164.0625 146.695312 165.644531 143.425781 167.015625 C 143.167969 167.121094 142.875 167.121094 142.628906 167.003906 C 142.382812 166.886719 142.195312 166.664062 142.113281 166.394531 L 140.179688 159.996094 C 140.121094 159.796875 139.992188 159.726562 139.792969 159.796875 L 139.523438 159.902344 C 139.417969 159.9375 139.394531 160.007812 139.441406 160.101562 C 140.460938 162.339844 140.425781 164.449219 139.324219 166.441406 C 139.160156 166.734375 138.925781 166.933594 138.609375 167.039062 C 128.484375 170.566406 121.136719 172.042969 110.683594 169.769531 C 108.632812 169.324219 106.582031 168.925781 104.519531 168.574219 C 100.628906 167.894531 102.234375 164.367188 102.035156 161.976562 C 101.90625 160.371094 101.53125 160.3125 100.933594 161.8125 C 100.21875 163.582031 99.65625 165.410156 99.246094 167.296875 C 99.199219 167.507812 99.058594 167.695312 98.871094 167.789062 C 98.671875 167.882812 98.449219 167.882812 98.25 167.789062 C 93.386719 165.46875 87.738281 163.570312 83.660156 159.925781 C 81.832031 158.285156 77.636719 155.660156 76.582031 153.65625 C 75.832031 152.238281 75.292969 152.308594 74.988281 153.902344 C 74.859375 154.558594 74.824219 155.496094 74.882812 156.714844 " transform="matrix(0.333333,0,0,0.333333,0,0)"/>
<path style="fill:none;stroke-width:2;stroke-linecap:butt;stroke-linejoin:miter;stroke:rgb(57.254902%,43.921569%,36.078431%);stroke-opacity:1;stroke-miterlimit:4;" d="M 137.976562 113.695312 C 132.386719 108.445312 126.644531 105.761719 120.75 105.65625 C 116.554688 105.585938 112.957031 106.980469 109.945312 109.839844 C 107.320312 112.335938 105.445312 112.980469 102.257812 113.964844 " transform="matrix(0.333333,0,0,0.333333,0,0)"/>
<path style="fill:none;stroke-width:2;stroke-linecap:butt;stroke-linejoin:miter;stroke:rgb(87.058824%,73.72549%,60%);stroke-opacity:1;stroke-miterlimit:4;" d="M 99.9375 79.722656 C 98.238281 79.5 96.351562 78.902344 94.675781 79.183594 C 94.054688 79.289062 94.054688 79.40625 94.675781 79.546875 C 96.703125 80.015625 98.964844 80.566406 101.472656 81.199219 C 106.300781 82.417969 105.527344 89.355469 103.710938 92.390625 C 103.40625 92.894531 103.5 92.988281 103.992188 92.648438 C 109.21875 89.121094 114.304688 87.328125 119.25 87.304688 C 126.304688 87.246094 131.507812 89.660156 137.15625 93.503906 C 137.261719 93.574219 137.402344 93.585938 137.519531 93.527344 C 137.636719 93.46875 137.707031 93.363281 137.71875 93.234375 C 138.175781 86.871094 139.136719 82.605469 145.605469 80.285156 C 147.761719 79.511719 150.222656 80.074219 152.296875 79.722656 C 153.140625 79.582031 153.140625 79.417969 152.308594 79.242188 C 148.5 78.433594 144.46875 79.054688 140.214844 81.09375 C 137.074219 82.582031 136.746094 85.066406 135.820312 87.714844 C 135.621094 88.265625 135.1875 88.699219 134.636719 88.898438 C 134.085938 89.085938 133.476562 89.015625 132.984375 88.699219 C 126.984375 84.867188 113.695312 84.375 107.789062 88.570312 C 107.542969 88.746094 107.203125 88.757812 106.945312 88.59375 C 106.6875 88.429688 106.546875 88.136719 106.605469 87.832031 L 106.851562 86.191406 C 106.898438 85.875 106.875 85.570312 106.757812 85.277344 C 105.5625 81.996094 103.289062 80.144531 99.9375 79.722656 " transform="matrix(0.333333,0,0,0.333333,0,0)"/>
<path style="fill:none;stroke-width:2;stroke-linecap:butt;stroke-linejoin:miter;stroke:rgb(87.058824%,73.72549%,60%);stroke-opacity:1;stroke-miterlimit:4;" d="M 136.335938 98.917969 C 137.027344 99.257812 137.742188 99.5625 138.492188 99.855469 C 138.609375 99.902344 138.738281 99.855469 138.808594 99.75 C 138.878906 99.644531 138.867188 99.492188 138.785156 99.398438 C 137.285156 97.804688 133.886719 96.773438 131.4375 95.824219 C 121.242188 91.875 110.753906 94.195312 102.609375 101.367188 C 102.585938 101.402344 102.574219 101.425781 102.597656 101.449219 L 102.761719 101.660156 C 102.855469 101.789062 102.984375 101.8125 103.125 101.71875 C 113.402344 94.875 125.121094 93.375 136.335938 98.917969 " transform="matrix(0.333333,0,0,0.333333,0,0)"/>
<path style="fill:none;stroke-width:2;stroke-linecap:butt;stroke-linejoin:miter;stroke:rgb(87.058824%,73.72549%,60%);stroke-opacity:1;stroke-miterlimit:4;" d="M 184.382812 126.234375 C 181.464844 131.765625 176.8125 134.402344 170.4375 134.144531 C 170.355469 134.132812 170.296875 134.167969 170.261719 134.25 C 170.214844 134.320312 170.179688 134.402344 170.144531 134.484375 C 170.074219 134.625 170.121094 134.707031 170.273438 134.753906 C 173.472656 135.597656 176.449219 135.316406 179.179688 133.875 C 181.171875 132.832031 184.96875 128.824219 184.769531 126.304688 C 184.734375 125.835938 184.605469 125.8125 184.382812 126.234375 " transform="matrix(0.333333,0,0,0.333333,0,0)"/>
<path style="fill:none;stroke-width:2;stroke-linecap:butt;stroke-linejoin:miter;stroke:rgb(87.058824%,73.72549%,60%);stroke-opacity:1;stroke-miterlimit:4;" d="M 57 128.285156 C 56.765625 127.980469 56.625 127.804688 56.589844 127.757812 C 56.003906 127.007812 55.828125 127.089844 56.0625 128.015625 C 56.953125 131.625 59.273438 133.886719 63.023438 134.8125 C 66.375 135.632812 70.933594 135.855469 73.488281 133.066406 C 74.671875 131.789062 74.519531 131.578125 73.007812 132.46875 C 67.359375 135.808594 60.703125 132.984375 57 128.285156 " transform="matrix(0.333333,0,0,0.333333,0,0)"/>
<path style="fill:none;stroke-width:2;stroke-linecap:butt;stroke-linejoin:miter;stroke:rgb(50.196078%,50.196078%,50.196078%);stroke-opacity:1;stroke-miterlimit:4;" d="M 83.109375 101.4375 C 83.109375 99.246094 81.328125 97.464844 79.125 97.464844 C 76.933594 97.464844 75.152344 99.246094 75.152344 101.4375 C 75.152344 103.640625 76.933594 105.421875 79.125 105.421875 C 81.328125 105.421875 83.109375 103.640625 83.109375 101.4375 " transform="matrix(0.333333,0,0,0.333333,0,0)"/>
<path style="fill:none;stroke-width:2;stroke-linecap:butt;stroke-linejoin:miter;stroke:rgb(50.196078%,50.196078%,50.196078%);stroke-opacity:1;stroke-miterlimit:4;" d="M 166.324219 101.425781 C 166.324219 99.257812 164.566406 97.488281 162.386719 97.488281 C 160.21875 97.488281 158.449219 99.257812 158.449219 101.425781 C 158.449219 103.605469 160.21875 105.375 162.386719 105.375 C 164.566406 105.375 166.324219 103.605469 166.324219 101.425781 " transform="matrix(0.333333,0,0,0.333333,0,0)"/>
<path style="fill:none;stroke-width:2;stroke-linecap:butt;stroke-linejoin:miter;stroke:rgb(17.254902%,10.588235%,8.627451%);stroke-opacity:1;stroke-miterlimit:4;" d="M 124.617188 115.066406 C 125.015625 114.949219 125.074219 114.082031 124.769531 113.15625 C 124.464844 112.230469 123.902344 111.585938 123.515625 111.703125 C 123.128906 111.832031 123.058594 112.6875 123.363281 113.625 C 123.667969 114.550781 124.230469 115.195312 124.617188 115.066406 " transform="matrix(0.333333,0,0,0.333333,0,0)"/>
<path style="fill:none;stroke-width:2;stroke-linecap:butt;stroke-linejoin:miter;stroke:rgb(17.254902%,10.588235%,8.627451%);stroke-opacity:1;stroke-miterlimit:4;" d="M 116.613281 113.625 L 115.875 114.351562 C 115.804688 114.433594 115.792969 114.515625 115.863281 114.609375 L 116.0625 114.902344 C 116.203125 115.113281 116.484375 115.171875 116.695312 115.03125 C 117.140625 114.726562 117.28125 114.304688 117.105469 113.742188 C 117 113.425781 116.835938 113.390625 116.613281 113.625 " transform="matrix(0.333333,0,0,0.333333,0,0)"/>
<path style="fill:none;stroke-width:2;stroke-linecap:butt;stroke-linejoin:miter;stroke:rgb(17.254902%,10.588235%,8.627451%);stroke-opacity:1;stroke-miterlimit:4;" d="M 120.1875 137.660156 C 111.667969 140.695312 105.984375 145.464844 103.195312 154.40625 C 103.148438 154.570312 103.207031 154.675781 103.359375 154.734375 L 103.605469 154.839844 C 103.628906 154.851562 103.652344 154.839844 103.664062 154.804688 C 107.191406 147.527344 111.691406 141.972656 119.589844 139.265625 C 120.304688 139.03125 121.148438 139.078125 122.121094 139.40625 C 132.433594 142.945312 135.9375 148.980469 139.359375 158.613281 C 139.371094 158.625 139.371094 158.625 139.394531 158.625 C 139.417969 158.601562 139.40625 158.613281 139.324219 158.636719 C 139.300781 158.648438 139.277344 158.648438 139.277344 158.613281 C 138.539062 151.851562 135.65625 146.402344 130.617188 142.265625 C 128.261719 140.320312 124.605469 138.902344 122.238281 137.484375 C 121.875 137.261719 121.804688 136.980469 122.027344 136.628906 C 122.191406 136.371094 122.273438 136.089844 122.25 135.785156 C 121.933594 130.863281 121.722656 125.929688 121.605469 120.984375 C 121.570312 119.671875 122.132812 118.945312 123.304688 118.804688 C 123.832031 118.734375 123.855469 118.582031 123.386719 118.347656 C 122.742188 118.03125 122.25 117.550781 121.921875 116.90625 C 121.722656 116.507812 121.464844 116.472656 121.160156 116.8125 C 120.398438 117.65625 119.449219 118.136719 118.324219 118.253906 C 117.796875 118.300781 117.773438 118.441406 118.242188 118.6875 C 118.675781 118.921875 119.15625 119.074219 119.660156 119.144531 C 120.082031 119.214844 120.292969 119.460938 120.28125 119.894531 C 120.128906 125.460938 119.496094 131.542969 120.574219 136.992188 C 120.632812 137.320312 120.515625 137.542969 120.1875 137.660156 " transform="matrix(0.333333,0,0,0.333333,0,0)"/>
<path style=" stroke:none;fill-rule:nonzero;fill:rgb(96.078431%,89.803922%,82.745098%);fill-opacity:1;" d="M 37.96875 0 L 41.738281 0 C 62.671875 1.191406 78.519531 17.101562 80 37.96875 L 80 41.578125 C 78.875 62.578125 62.96875 78.53125 42.035156 80 L 38.261719 80 C 29.734375 79.535156 22.238281 76.804688 15.769531 71.808594 C 6.125 64.359375 0.867188 54.378906 0 41.867188 L 0 38.257812 C 1.125 17.429688 17.214844 1.363281 37.96875 0 Z M 26.234375 20.160156 C 25.175781 19.808594 24.195312 19.738281 23.289062 19.949219 C 22.335938 20.171875 21.324219 20.296875 20.648438 20.46875 C 15.570312 21.792969 12.144531 25.171875 8.316406 29.226562 C 7.902344 29.667969 7.507812 30.289062 6.996094 30.808594 C 6.328125 31.484375 5.703125 32.230469 5.125 33.050781 C 4.984375 33.246094 5.011719 33.515625 5.191406 33.679688 L 10.035156 38.144531 L 13.339844 44.75 C 13.707031 45.191406 14.101562 45.585938 14.511719 45.933594 C 15.003906 46.351562 15.757812 46.230469 15.886719 45.621094 C 15.992188 45.125 16.171875 44.550781 16.425781 43.886719 C 16.78125 45.082031 17.058594 46.226562 17.261719 47.316406 C 17.347656 47.78125 17.4375 48.085938 17.53125 48.226562 C 18.128906 49.144531 18.753906 50.050781 19.40625 50.941406 C 20.761719 52.792969 20.511719 55.019531 22.003906 56.738281 C 23.382812 58.332031 25.019531 59.292969 26.917969 59.621094 C 27.667969 59.917969 28.445312 60.117188 29.25 60.222656 C 30.320312 60.359375 31.089844 60.492188 31.558594 60.621094 C 35.910156 61.773438 39.683594 61.535156 43.867188 61.492188 C 45.855469 61.476562 47.765625 60.917969 49.640625 60.316406 C 51.054688 59.863281 52.390625 60.328125 53.679688 59.460938 C 53.902344 59.554688 54.058594 59.582031 54.152344 59.550781 C 57.550781 58.363281 59.554688 55.992188 60.171875 52.4375 C 60.269531 51.886719 60.382812 51.527344 60.515625 51.351562 C 61.433594 50.148438 62.367188 49.046875 62.890625 47.625 C 63.214844 46.742188 63.511719 45.804688 63.773438 44.8125 C 64.003906 45.398438 64.222656 45.808594 64.441406 46.042969 C 64.644531 46.269531 64.984375 46.308594 65.238281 46.132812 C 65.785156 45.753906 66.261719 45.269531 66.667969 44.679688 L 69.761719 38.484375 L 74.519531 33.769531 C 74.910156 33.382812 74.925781 32.984375 74.558594 32.570312 C 72.078125 29.761719 69.6875 27.058594 66.859375 24.597656 C 65.390625 23.316406 64.054688 22.386719 62.851562 21.808594 C 60.089844 20.472656 56.785156 19.644531 53.714844 19.976562 C 50.628906 19.269531 47.332031 18.867188 43.832031 18.761719 C 37.847656 18.589844 31.980469 19.054688 26.234375 20.160156 Z M 26.234375 20.160156 "/>
<path style=" stroke:none;fill-rule:nonzero;fill:rgb(93.72549%,80%,64.313725%);fill-opacity:1;" d="M 53.714844 19.976562 C 55.714844 21.707031 57.386719 23.605469 58.730469 25.667969 C 59.578125 27.214844 60.371094 28.753906 61.113281 30.285156 C 61.308594 30.683594 61.355469 31.238281 61.082031 31.558594 C 60.875 31.804688 60.65625 31.8125 60.429688 31.582031 C 59.304688 30.4375 58.328125 29.167969 57.511719 27.777344 C 57.398438 27.59375 57.328125 27.605469 57.300781 27.820312 C 57.273438 28.019531 57.339844 28.300781 57.496094 28.671875 C 57.566406 28.824219 57.59375 28.917969 57.582031 28.949219 C 57.488281 29.195312 57.222656 29.324219 56.96875 29.25 C 54.625 28.554688 52.347656 28.320312 50.140625 28.550781 C 48.703125 28.699219 48.644531 29.40625 49.046875 30.609375 C 49.472656 31.890625 49.679688 33.21875 49.671875 34.585938 C 49.664062 35.332031 49.328125 35.773438 48.664062 35.910156 C 48.578125 35.925781 48.511719 35.996094 48.496094 36.085938 C 48.484375 36.171875 48.527344 36.257812 48.601562 36.300781 L 50.777344 37.515625 C 51.660156 38.691406 52.761719 39.71875 54.082031 40.605469 C 54.890625 42.359375 55.867188 43.035156 57.011719 42.625 C 59.644531 41.691406 61.152344 40.167969 61.714844 37.394531 C 61.730469 37.308594 61.777344 37.28125 61.855469 37.320312 L 61.964844 37.375 C 62.070312 37.421875 62.132812 37.527344 62.128906 37.644531 C 62.003906 41.097656 63.957031 46.574219 61.398438 49.058594 C 60.917969 49.527344 59.738281 50.375 57.863281 51.597656 C 57.566406 51.789062 57.273438 51.941406 56.988281 52.046875 C 56.804688 52.113281 56.597656 52.101562 56.425781 52.011719 C 56.25 51.921875 56.125 51.761719 56.078125 51.570312 L 55.742188 50.261719 C 56.035156 46.132812 53.78125 43.429688 51.066406 40.851562 C 49.609375 39.46875 47.921875 38.484375 45.992188 37.898438 C 45.722656 36.988281 45.425781 36.4375 45.101562 36.234375 C 43.253906 35.089844 42.492188 34.035156 40.085938 34.355469 C 38.144531 34.617188 36.558594 35.222656 35.238281 36.535156 C 34.75 37.019531 34.261719 37.203125 34.085938 37.988281 L 30.859375 39.84375 C 29.808594 39.855469 29 40.328125 28.433594 41.253906 C 28.375 41.347656 28.296875 41.417969 28.199219 41.464844 C 27.351562 41.871094 26.21875 43.144531 25.800781 44.042969 C 25.511719 44.652344 25.207031 45.078125 24.855469 45.601562 C 24.800781 45.679688 24.777344 45.769531 24.789062 45.867188 C 24.820312 46.089844 24.761719 46.289062 24.617188 46.460938 C 24.546875 46.542969 24.507812 46.640625 24.5 46.746094 C 24.464844 47.125 24.425781 47.390625 24.378906 47.542969 C 24.015625 48.671875 23.902344 49.988281 24.039062 51.492188 C 24.0625 51.769531 23.949219 52.03125 23.691406 52.269531 C 23.617188 52.335938 23.546875 52.335938 23.472656 52.277344 C 23.117188 51.996094 22.484375 51.601562 21.578125 51.101562 C 21.03125 50.800781 20.203125 50.144531 19.101562 49.132812 C 18.527344 48.609375 18.125 48.054688 17.886719 47.460938 C 17.535156 46.574219 17.40625 45.808594 17.492188 45.164062 C 17.792969 42.976562 18.03125 40.785156 18.207031 38.582031 C 18.238281 38.179688 18.402344 38.011719 18.695312 38.074219 C 18.789062 38.09375 18.859375 38.160156 18.886719 38.25 C 19.261719 39.40625 19.753906 40.511719 20.75 41.257812 C 21.414062 41.753906 24.304688 43.328125 24.96875 42.390625 C 25.390625 41.792969 25.808594 41.222656 26.21875 40.683594 L 29.699219 37.460938 L 31.785156 36.226562 C 32.34375 35.898438 32.289062 35.734375 31.628906 35.738281 C 29.898438 35.738281 30.914062 31.511719 31.136719 30.640625 C 31.441406 29.476562 31.53125 28.527344 30.007812 28.511719 C 28.171875 28.488281 27.007812 28.523438 26.511719 28.605469 C 25.40625 28.796875 24.222656 28.992188 22.953125 29.195312 C 22.84375 29.214844 22.730469 29.171875 22.660156 29.085938 C 22.585938 29.003906 22.566406 28.886719 22.601562 28.78125 C 22.683594 28.523438 22.695312 28.261719 22.636719 28.003906 C 22.589844 27.804688 22.515625 27.796875 22.417969 27.972656 C 22.191406 28.375 22.046875 28.777344 21.757812 29.125 C 21.113281 29.898438 20.46875 30.691406 19.816406 31.511719 C 19.714844 31.636719 19.535156 31.671875 19.390625 31.597656 L 19.226562 31.511719 C 19.128906 31.457031 19.097656 31.378906 19.132812 31.273438 C 19.820312 29.175781 20.738281 27.9375 21.789062 26.296875 C 22.574219 25.078125 23.238281 24.367188 23.375 22.796875 L 26.234375 20.160156 C 31.980469 19.054688 37.847656 18.589844 43.832031 18.761719 C 47.332031 18.867188 50.628906 19.269531 53.714844 19.976562 Z M 33.3125 26.574219 C 32.746094 26.5 32.117188 26.300781 31.558594 26.394531 C 31.351562 26.429688 31.351562 26.46875 31.558594 26.515625 C 32.234375 26.671875 32.988281 26.855469 33.824219 27.066406 C 35.433594 27.472656 35.175781 29.785156 34.570312 30.796875 C 34.46875 30.964844 34.5 30.996094 34.664062 30.882812 C 36.40625 29.707031 38.101562 29.109375 39.75 29.101562 C 42.101562 29.082031 43.835938 29.886719 45.71875 31.167969 C 45.753906 31.191406 45.800781 31.195312 45.839844 31.175781 C 45.878906 31.15625 45.902344 31.121094 45.90625 31.078125 C 46.058594 28.957031 46.378906 27.535156 48.535156 26.761719 C 49.253906 26.503906 50.074219 26.691406 50.765625 26.574219 C 51.046875 26.527344 51.046875 26.472656 50.769531 26.414062 C 49.5 26.144531 48.15625 26.351562 46.738281 27.03125 C 45.691406 27.527344 45.582031 28.355469 45.273438 29.238281 C 45.207031 29.421875 45.0625 29.566406 44.878906 29.632812 C 44.695312 29.695312 44.492188 29.671875 44.328125 29.566406 C 42.328125 28.289062 37.898438 28.125 35.929688 29.523438 C 35.847656 29.582031 35.734375 29.585938 35.648438 29.53125 C 35.5625 29.476562 35.515625 29.378906 35.535156 29.277344 L 35.617188 28.730469 C 35.632812 28.625 35.625 28.523438 35.585938 28.425781 C 35.1875 27.332031 34.429688 26.714844 33.3125 26.574219 Z M 45.445312 32.972656 C 45.675781 33.085938 45.914062 33.1875 46.164062 33.285156 C 46.203125 33.300781 46.246094 33.285156 46.269531 33.25 C 46.292969 33.214844 46.289062 33.164062 46.261719 33.132812 C 45.761719 32.601562 44.628906 32.257812 43.8125 31.941406 C 40.414062 30.625 36.917969 31.398438 34.203125 33.789062 C 34.195312 33.800781 34.191406 33.808594 34.199219 33.816406 L 34.253906 33.886719 C 34.285156 33.929688 34.328125 33.9375 34.375 33.90625 C 37.800781 31.625 41.707031 31.125 45.445312 32.972656 Z M 61.460938 42.078125 C 60.488281 43.921875 58.9375 44.800781 56.8125 44.714844 C 56.785156 44.710938 56.765625 44.722656 56.753906 44.75 C 56.738281 44.773438 56.726562 44.800781 56.714844 44.828125 C 56.691406 44.875 56.707031 44.902344 56.757812 44.917969 C 57.824219 45.199219 58.816406 45.105469 59.726562 44.625 C 60.390625 44.277344 61.65625 42.941406 61.589844 42.101562 C 61.578125 41.945312 61.535156 41.9375 61.460938 42.078125 Z M 19 42.761719 C 18.921875 42.660156 18.875 42.601562 18.863281 42.585938 C 18.667969 42.335938 18.609375 42.363281 18.6875 42.671875 C 18.984375 43.875 19.757812 44.628906 21.007812 44.9375 C 22.125 45.210938 23.644531 45.285156 24.496094 44.355469 C 24.890625 43.929688 24.839844 43.859375 24.335938 44.15625 C 22.453125 45.269531 20.234375 44.328125 19 42.761719 Z M 19 42.761719 "/>
<path style=" stroke:none;fill-rule:nonzero;fill:rgb(33.72549%,20.392157%,16.862745%);fill-opacity:1;" d="M 26.234375 20.160156 L 23.375 22.796875 C 20.511719 26.027344 18.257812 29.804688 17.441406 34.117188 C 16.886719 37.019531 16.808594 39.820312 16.503906 42.738281 C 16.457031 43.179688 16.429688 43.5625 16.425781 43.886719 C 16.171875 44.550781 15.992188 45.125 15.886719 45.621094 C 15.757812 46.230469 15.003906 46.351562 14.511719 45.933594 C 14.101562 45.585938 13.707031 45.191406 13.339844 44.75 C 13.601562 44.699219 13.625 44.445312 13.40625 43.988281 C 13.359375 43.890625 13.34375 43.777344 13.359375 43.671875 C 13.414062 43.324219 13.449219 42.984375 13.457031 42.648438 C 13.464844 42.3125 13.753906 42.046875 13.820312 41.691406 C 14.042969 40.464844 14.257812 39.285156 14.277344 38.03125 C 14.285156 37.65625 14.34375 37.289062 14.464844 36.929688 C 14.660156 36.328125 14.648438 35.703125 14.941406 35.121094 C 14.988281 35.027344 15.011719 34.925781 15.011719 34.824219 C 15.019531 33.996094 15.234375 33.238281 15.664062 32.554688 C 16.328125 31.496094 16.410156 30.277344 17.027344 29.273438 C 17.917969 27.832031 18.546875 26.652344 18.914062 25.734375 C 18.976562 25.574219 18.996094 25.449219 18.964844 25.359375 C 18.9375 25.265625 18.855469 25.195312 18.757812 25.175781 C 18.660156 25.160156 18.558594 25.199219 18.496094 25.277344 C 17.964844 25.957031 17.40625 26.644531 16.828125 27.335938 C 16.238281 28.035156 15.792969 28.886719 15.210938 29.648438 C 13.691406 31.613281 12.621094 34.003906 11.546875 36.238281 C 11.542969 36.246094 11.457031 36.484375 11.296875 36.953125 C 11.117188 37.46875 10.699219 37.867188 10.035156 38.144531 L 5.191406 33.679688 C 5.011719 33.515625 4.984375 33.246094 5.125 33.050781 C 5.703125 32.230469 6.328125 31.484375 6.996094 30.808594 C 7.507812 30.289062 7.902344 29.667969 8.316406 29.226562 C 12.144531 25.171875 15.570312 21.792969 20.648438 20.46875 C 21.324219 20.296875 22.335938 20.171875 23.289062 19.949219 C 24.195312 19.738281 25.175781 19.808594 26.234375 20.160156 Z M 26.234375 20.160156 "/>
<path style=" stroke:none;fill-rule:nonzero;fill:rgb(33.72549%,20.392157%,16.862745%);fill-opacity:1;" d="M 53.714844 19.976562 C 56.785156 19.644531 60.089844 20.472656 62.851562 21.808594 C 64.054688 22.386719 65.390625 23.316406 66.859375 24.597656 C 69.6875 27.058594 72.078125 29.761719 74.558594 32.570312 C 74.925781 32.984375 74.910156 33.382812 74.519531 33.769531 L 69.761719 38.484375 C 69.003906 37.835938 68.527344 36.996094 68.339844 35.960938 C 68.253906 35.484375 68.125 35.089844 67.949219 34.777344 C 67.4375 33.839844 67.003906 32.878906 66.40625 32.011719 C 65.421875 30.589844 64.550781 29.261719 63.734375 27.734375 C 63.679688 27.632812 63.605469 27.550781 63.511719 27.484375 C 62.828125 26.992188 62.273438 26.386719 61.847656 25.667969 C 61.800781 25.589844 61.71875 25.539062 61.625 25.542969 C 61.535156 25.542969 61.453125 25.59375 61.410156 25.671875 L 61.351562 25.785156 C 61.222656 26.019531 61.226562 26.253906 61.363281 26.484375 C 63.1875 29.542969 64.070312 31.542969 64.949219 34.894531 C 65.125 35.558594 65.535156 36.265625 65.671875 36.917969 C 65.875 37.871094 66.058594 39.128906 66.226562 40.6875 C 66.296875 41.328125 66.617188 41.507812 66.4375 42.238281 C 66.308594 42.785156 66.488281 43.261719 66.375 43.78125 C 66.332031 43.964844 66.296875 44.148438 66.273438 44.335938 C 66.238281 44.582031 66.367188 44.695312 66.667969 44.679688 C 66.261719 45.269531 65.785156 45.753906 65.238281 46.132812 C 64.984375 46.308594 64.644531 46.269531 64.441406 46.042969 C 64.222656 45.808594 64.003906 45.398438 63.773438 44.8125 C 63.492188 42.300781 63.222656 39.699219 62.957031 37.011719 C 62.855469 35.96875 62.714844 34.9375 62.535156 33.90625 C 62.011719 30.945312 60.445312 27.828125 58.730469 25.667969 C 57.386719 23.605469 55.714844 21.707031 53.714844 19.976562 Z M 53.714844 19.976562 "/>
<path style=" stroke:none;fill-rule:nonzero;fill:rgb(80.392157%,67.058824%,55.294118%);fill-opacity:1;" d="M 23.375 22.796875 C 23.238281 24.367188 22.574219 25.078125 21.789062 26.296875 C 20.738281 27.9375 19.820312 29.175781 19.132812 31.273438 C 19.097656 31.378906 19.128906 31.457031 19.226562 31.511719 L 19.390625 31.597656 C 19.535156 31.671875 19.714844 31.636719 19.816406 31.511719 C 20.46875 30.691406 21.113281 29.898438 21.757812 29.125 C 22.046875 28.777344 22.191406 28.375 22.417969 27.972656 C 22.515625 27.796875 22.589844 27.804688 22.636719 28.003906 C 22.695312 28.261719 22.683594 28.523438 22.601562 28.78125 C 22.566406 28.886719 22.585938 29.003906 22.660156 29.085938 C 22.730469 29.171875 22.84375 29.214844 22.953125 29.195312 C 24.222656 28.992188 25.40625 28.796875 26.511719 28.605469 C 27.007812 28.523438 28.171875 28.488281 30.007812 28.511719 C 31.53125 28.527344 31.441406 29.476562 31.136719 30.640625 C 30.914062 31.511719 29.898438 35.738281 31.628906 35.738281 C 32.289062 35.734375 32.34375 35.898438 31.785156 36.226562 L 29.699219 37.460938 C 30.058594 36.320312 29.972656 35.1875 29.441406 34.058594 C 28.074219 31.152344 24.035156 30.167969 21.738281 32.5625 C 18.34375 36.09375 21.421875 41.804688 26.21875 40.683594 C 25.808594 41.222656 25.390625 41.792969 24.96875 42.390625 C 24.304688 43.328125 21.414062 41.753906 20.75 41.257812 C 19.753906 40.511719 19.261719 39.40625 18.886719 38.25 C 18.859375 38.160156 18.789062 38.09375 18.695312 38.074219 C 18.402344 38.011719 18.238281 38.179688 18.207031 38.582031 C 18.03125 40.785156 17.792969 42.976562 17.492188 45.164062 C 17.40625 45.808594 17.535156 46.574219 17.886719 47.460938 C 18.125 48.054688 18.527344 48.609375 19.101562 49.132812 C 20.203125 50.144531 21.03125 50.800781 21.578125 51.101562 C 22.484375 51.601562 23.117188 51.996094 23.472656 52.277344 C 23.546875 52.335938 23.617188 52.335938 23.691406 52.269531 C 23.949219 52.03125 24.0625 51.769531 24.039062 51.492188 C 23.902344 49.988281 24.015625 48.671875 24.378906 47.542969 C 24.425781 47.390625 24.464844 47.125 24.5 46.746094 C 24.507812 46.640625 24.546875 46.542969 24.617188 46.460938 C 24.761719 46.289062 24.820312 46.089844 24.789062 45.867188 C 24.777344 45.769531 24.800781 45.679688 24.855469 45.601562 C 25.207031 45.078125 25.511719 44.652344 25.800781 44.042969 C 26.21875 43.144531 27.351562 41.871094 28.199219 41.464844 C 28.296875 41.417969 28.375 41.347656 28.433594 41.253906 C 29 40.328125 29.808594 39.855469 30.859375 39.84375 C 27.578125 42.6875 24.828125 45.558594 24.917969 50.078125 C 24.933594 50.796875 24.945312 51.519531 24.960938 52.238281 C 24.988281 54.800781 25.285156 57.476562 26.917969 59.621094 C 25.019531 59.292969 23.382812 58.332031 22.003906 56.738281 C 20.511719 55.019531 20.761719 52.792969 19.40625 50.941406 C 18.753906 50.050781 18.128906 49.144531 17.53125 48.226562 C 17.4375 48.085938 17.347656 47.78125 17.261719 47.316406 C 17.058594 46.226562 16.78125 45.082031 16.425781 43.886719 C 16.429688 43.5625 16.457031 43.179688 16.503906 42.738281 C 16.808594 39.820312 16.886719 37.019531 17.441406 34.117188 C 18.257812 29.804688 20.511719 26.027344 23.375 22.796875 Z M 23.375 22.796875 "/>
<path style=" stroke:none;fill-rule:nonzero;fill:rgb(26.666667%,15.686275%,13.72549%);fill-opacity:1;" d="M 13.339844 44.75 L 10.035156 38.144531 C 10.699219 37.867188 11.117188 37.46875 11.296875 36.953125 C 11.457031 36.484375 11.542969 36.246094 11.546875 36.238281 C 12.621094 34.003906 13.691406 31.613281 15.210938 29.648438 C 15.792969 28.886719 16.238281 28.035156 16.828125 27.335938 C 17.40625 26.644531 17.964844 25.957031 18.496094 25.277344 C 18.558594 25.199219 18.660156 25.160156 18.757812 25.175781 C 18.855469 25.195312 18.9375 25.265625 18.964844 25.359375 C 18.996094 25.449219 18.976562 25.574219 18.914062 25.734375 C 18.546875 26.652344 17.917969 27.832031 17.027344 29.273438 C 16.410156 30.277344 16.328125 31.496094 15.664062 32.554688 C 15.234375 33.238281 15.019531 33.996094 15.011719 34.824219 C 15.011719 34.925781 14.988281 35.027344 14.941406 35.121094 C 14.648438 35.703125 14.660156 36.328125 14.464844 36.929688 C 14.34375 37.289062 14.285156 37.65625 14.277344 38.03125 C 14.257812 39.285156 14.042969 40.464844 13.820312 41.691406 C 13.753906 42.046875 13.464844 42.3125 13.457031 42.648438 C 13.449219 42.984375 13.414062 43.324219 13.359375 43.671875 C 13.34375 43.777344 13.359375 43.890625 13.40625 43.988281 C 13.625 44.445312 13.601562 44.699219 13.339844 44.75 Z M 13.339844 44.75 "/>
<path style=" stroke:none;fill-rule:nonzero;fill:rgb(26.666667%,15.686275%,13.72549%);fill-opacity:1;" d="M 69.761719 38.484375 L 66.667969 44.679688 C 66.367188 44.695312 66.238281 44.582031 66.273438 44.335938 C 66.296875 44.148438 66.332031 43.964844 66.375 43.78125 C 66.488281 43.261719 66.308594 42.785156 66.4375 42.238281 C 66.617188 41.507812 66.296875 41.328125 66.226562 40.6875 C 66.058594 39.128906 65.875 37.871094 65.671875 36.917969 C 65.535156 36.265625 65.125 35.558594 64.949219 34.894531 C 64.070312 31.542969 63.1875 29.542969 61.363281 26.484375 C 61.226562 26.253906 61.222656 26.019531 61.351562 25.785156 L 61.410156 25.671875 C 61.453125 25.59375 61.535156 25.542969 61.625 25.542969 C 61.71875 25.539062 61.800781 25.589844 61.847656 25.667969 C 62.273438 26.386719 62.828125 26.992188 63.511719 27.484375 C 63.605469 27.550781 63.679688 27.632812 63.734375 27.734375 C 64.550781 29.261719 65.421875 30.589844 66.40625 32.011719 C 67.003906 32.878906 67.4375 33.839844 67.949219 34.777344 C 68.125 35.089844 68.253906 35.484375 68.339844 35.960938 C 68.527344 36.996094 69.003906 37.835938 69.761719 38.484375 Z M 69.761719 38.484375 "/>
<path style=" stroke:none;fill-rule:nonzero;fill:rgb(80.392157%,67.058824%,55.294118%);fill-opacity:1;" d="M 58.730469 25.667969 C 60.445312 27.828125 62.011719 30.945312 62.535156 33.90625 C 62.714844 34.9375 62.855469 35.96875 62.957031 37.011719 C 63.222656 39.699219 63.492188 42.300781 63.773438 44.8125 C 63.511719 45.804688 63.214844 46.742188 62.890625 47.625 C 62.367188 49.046875 61.433594 50.148438 60.515625 51.351562 C 60.382812 51.527344 60.269531 51.886719 60.171875 52.4375 C 59.554688 55.992188 57.550781 58.363281 54.152344 59.550781 C 54.058594 59.582031 53.902344 59.554688 53.679688 59.460938 C 55.398438 57.277344 55.601562 54.058594 55.625 51.3125 C 55.757812 50.941406 55.796875 50.59375 55.742188 50.261719 L 56.078125 51.570312 C 56.125 51.761719 56.25 51.921875 56.425781 52.011719 C 56.597656 52.101562 56.804688 52.113281 56.988281 52.046875 C 57.273438 51.941406 57.566406 51.789062 57.863281 51.597656 C 59.738281 50.375 60.917969 49.527344 61.398438 49.058594 C 63.957031 46.574219 62.003906 41.097656 62.128906 37.644531 C 62.132812 37.527344 62.070312 37.421875 61.964844 37.375 L 61.855469 37.320312 C 61.777344 37.28125 61.730469 37.308594 61.714844 37.394531 C 61.152344 40.167969 59.644531 41.691406 57.011719 42.625 C 55.867188 43.035156 54.890625 42.359375 54.082031 40.605469 C 55.296875 40.996094 56.511719 40.871094 57.730469 40.226562 C 59.570312 39.25 60.429688 37.390625 60.167969 35.335938 C 59.484375 30.078125 52 29.824219 50.761719 34.996094 C 50.679688 35.34375 50.6875 36.1875 50.777344 37.515625 L 48.601562 36.300781 C 48.527344 36.257812 48.484375 36.171875 48.496094 36.085938 C 48.511719 35.996094 48.578125 35.925781 48.664062 35.910156 C 49.328125 35.773438 49.664062 35.332031 49.671875 34.585938 C 49.679688 33.21875 49.472656 31.890625 49.046875 30.609375 C 48.644531 29.40625 48.703125 28.699219 50.140625 28.550781 C 52.347656 28.320312 54.625 28.554688 56.96875 29.25 C 57.222656 29.324219 57.488281 29.195312 57.582031 28.949219 C 57.59375 28.917969 57.566406 28.824219 57.496094 28.671875 C 57.339844 28.300781 57.273438 28.019531 57.300781 27.820312 C 57.328125 27.605469 57.398438 27.59375 57.511719 27.777344 C 58.328125 29.167969 59.304688 30.4375 60.429688 31.582031 C 60.65625 31.8125 60.875 31.804688 61.082031 31.558594 C 61.355469 31.238281 61.308594 30.683594 61.113281 30.285156 C 60.371094 28.753906 59.578125 27.214844 58.730469 25.667969 Z M 58.730469 25.667969 "/>
<path style=" stroke:none;fill-rule:nonzero;fill:rgb(80.392157%,67.058824%,55.294118%);fill-opacity:1;" d="M 33.3125 26.574219 C 34.429688 26.714844 35.1875 27.332031 35.585938 28.425781 C 35.625 28.523438 35.632812 28.625 35.617188 28.730469 L 35.535156 29.277344 C 35.515625 29.378906 35.5625 29.476562 35.648438 29.53125 C 35.734375 29.585938 35.847656 29.582031 35.929688 29.523438 C 37.898438 28.125 42.328125 28.289062 44.328125 29.566406 C 44.492188 29.671875 44.695312 29.695312 44.878906 29.632812 C 45.0625 29.566406 45.207031 29.421875 45.273438 29.238281 C 45.582031 28.355469 45.691406 27.527344 46.738281 27.03125 C 48.15625 26.351562 49.5 26.144531 50.769531 26.414062 C 51.046875 26.472656 51.046875 26.527344 50.765625 26.574219 C 50.074219 26.691406 49.253906 26.503906 48.535156 26.761719 C 46.378906 27.535156 46.058594 28.957031 45.90625 31.078125 C 45.902344 31.121094 45.878906 31.15625 45.839844 31.175781 C 45.800781 31.195312 45.753906 31.191406 45.71875 31.167969 C 43.835938 29.886719 42.101562 29.082031 39.75 29.101562 C 38.101562 29.109375 36.40625 29.707031 34.664062 30.882812 C 34.5 30.996094 34.46875 30.964844 34.570312 30.796875 C 35.175781 29.785156 35.433594 27.472656 33.824219 27.066406 C 32.988281 26.855469 32.234375 26.671875 31.558594 26.515625 C 31.351562 26.46875 31.351562 26.429688 31.558594 26.394531 C 32.117188 26.300781 32.746094 26.5 33.3125 26.574219 Z M 33.3125 26.574219 "/>
<path style=" stroke:none;fill-rule:nonzero;fill:rgb(0.392157%,0.392157%,0.392157%);fill-opacity:1;" d="M 29.699219 37.460938 L 26.21875 40.683594 C 21.421875 41.804688 18.34375 36.09375 21.738281 32.5625 C 24.035156 30.167969 28.074219 31.152344 29.441406 34.058594 C 29.972656 35.1875 30.058594 36.320312 29.699219 37.460938 Z M 27.703125 33.8125 C 27.703125 33.082031 27.109375 32.488281 26.375 32.488281 C 25.644531 32.488281 25.050781 33.082031 25.050781 33.8125 C 25.050781 34.546875 25.644531 35.140625 26.375 35.140625 C 27.109375 35.140625 27.703125 34.546875 27.703125 33.8125 Z M 27.703125 33.8125 "/>
<path style=" stroke:none;fill-rule:nonzero;fill:rgb(0.392157%,0.392157%,0.392157%);fill-opacity:1;" d="M 54.082031 40.605469 C 52.761719 39.71875 51.660156 38.691406 50.777344 37.515625 C 50.6875 36.1875 50.679688 35.34375 50.761719 34.996094 C 52 29.824219 59.484375 30.078125 60.167969 35.335938 C 60.429688 37.390625 59.570312 39.25 57.730469 40.226562 C 56.511719 40.871094 55.296875 40.996094 54.082031 40.605469 Z M 55.441406 33.808594 C 55.441406 33.085938 54.855469 32.496094 54.128906 32.496094 C 53.40625 32.496094 52.816406 33.085938 52.816406 33.808594 C 52.816406 34.535156 53.40625 35.125 54.128906 35.125 C 54.855469 35.125 55.441406 34.535156 55.441406 33.808594 Z M 55.441406 33.808594 "/>
<path style=" stroke:none;fill-rule:nonzero;fill:rgb(80.392157%,67.058824%,55.294118%);fill-opacity:1;" d="M 45.445312 32.972656 C 41.707031 31.125 37.800781 31.625 34.375 33.90625 C 34.328125 33.9375 34.285156 33.929688 34.253906 33.886719 L 34.199219 33.816406 C 34.191406 33.808594 34.195312 33.800781 34.203125 33.789062 C 36.917969 31.398438 40.414062 30.625 43.8125 31.941406 C 44.628906 32.257812 45.761719 32.601562 46.261719 33.132812 C 46.289062 33.164062 46.292969 33.214844 46.269531 33.25 C 46.246094 33.285156 46.203125 33.300781 46.164062 33.285156 C 45.914062 33.1875 45.675781 33.085938 45.445312 32.972656 Z M 45.445312 32.972656 "/>
<path style=" stroke:none;fill-rule:nonzero;fill:rgb(100%,100%,100%);fill-opacity:1;" d="M 27.703125 33.8125 C 27.703125 34.546875 27.109375 35.140625 26.375 35.140625 C 25.644531 35.140625 25.050781 34.546875 25.050781 33.8125 C 25.050781 33.082031 25.644531 32.488281 26.375 32.488281 C 27.109375 32.488281 27.703125 33.082031 27.703125 33.8125 Z M 27.703125 33.8125 "/>
<path style=" stroke:none;fill-rule:nonzero;fill:rgb(100%,100%,100%);fill-opacity:1;" d="M 55.441406 33.808594 C 55.441406 34.535156 54.855469 35.125 54.128906 35.125 C 53.40625 35.125 52.816406 34.535156 52.816406 33.808594 C 52.816406 33.085938 53.40625 32.496094 54.128906 32.496094 C 54.855469 32.496094 55.441406 33.085938 55.441406 33.808594 Z M 55.441406 33.808594 "/>
<path style=" stroke:none;fill-rule:nonzero;fill:rgb(80.392157%,67.058824%,55.294118%);fill-opacity:1;" d="M 45.992188 37.898438 C 44.128906 36.148438 42.214844 35.253906 40.25 35.21875 C 38.851562 35.195312 37.652344 35.660156 36.648438 36.613281 C 35.773438 37.445312 35.148438 37.660156 34.085938 37.988281 C 34.261719 37.203125 34.75 37.019531 35.238281 36.535156 C 36.558594 35.222656 38.144531 34.617188 40.085938 34.355469 C 42.492188 34.035156 43.253906 35.089844 45.101562 36.234375 C 45.425781 36.4375 45.722656 36.988281 45.992188 37.898438 Z M 45.992188 37.898438 "/>
<path style=" stroke:none;fill-rule:nonzero;fill:rgb(33.72549%,20.392157%,16.862745%);fill-opacity:1;" d="M 45.992188 37.898438 C 47.921875 38.484375 49.609375 39.46875 51.066406 40.851562 C 53.78125 43.429688 56.035156 46.132812 55.742188 50.261719 C 55.796875 50.59375 55.757812 50.941406 55.625 51.3125 C 55.59375 50.957031 55.382812 50.851562 54.992188 50.988281 C 54.644531 51.113281 54.355469 51.386719 54.125 51.808594 C 54.070312 51.90625 53.984375 51.988281 53.882812 52.039062 C 52.78125 52.597656 52.066406 53.542969 51.089844 54.082031 C 49.996094 54.6875 48.898438 55.214844 47.808594 55.671875 C 47.722656 55.707031 47.625 55.707031 47.542969 55.667969 C 47.460938 55.628906 47.398438 55.554688 47.371094 55.464844 L 46.726562 53.332031 C 46.707031 53.265625 46.664062 53.242188 46.597656 53.265625 L 46.507812 53.300781 C 46.472656 53.3125 46.464844 53.335938 46.480469 53.367188 C 46.820312 54.113281 46.808594 54.816406 46.441406 55.480469 C 46.386719 55.578125 46.308594 55.644531 46.203125 55.679688 C 42.828125 56.855469 40.378906 57.347656 36.894531 56.589844 C 36.210938 56.441406 35.527344 56.308594 34.839844 56.191406 C 33.542969 55.964844 34.078125 54.789062 34.011719 53.992188 C 33.96875 53.457031 33.84375 53.4375 33.644531 53.9375 C 33.40625 54.527344 33.21875 55.136719 33.082031 55.765625 C 33.066406 55.835938 33.019531 55.898438 32.957031 55.929688 C 32.890625 55.960938 32.816406 55.960938 32.75 55.929688 C 31.128906 55.15625 29.246094 54.523438 27.886719 53.308594 C 27.277344 52.761719 25.878906 51.886719 25.527344 51.21875 C 25.277344 50.746094 25.097656 50.769531 24.996094 51.300781 C 24.953125 51.519531 24.941406 51.832031 24.960938 52.238281 C 24.945312 51.519531 24.933594 50.796875 24.917969 50.078125 C 24.828125 45.558594 27.578125 42.6875 30.859375 39.84375 L 34.085938 37.988281 C 35.148438 37.660156 35.773438 37.445312 36.648438 36.613281 C 37.652344 35.660156 38.851562 35.195312 40.25 35.21875 C 42.214844 35.253906 44.128906 36.148438 45.992188 37.898438 Z M 41.539062 38.355469 C 41.671875 38.316406 41.691406 38.027344 41.589844 37.71875 C 41.488281 37.410156 41.300781 37.195312 41.171875 37.234375 C 41.042969 37.277344 41.019531 37.5625 41.121094 37.875 C 41.222656 38.183594 41.410156 38.398438 41.539062 38.355469 Z M 38.871094 37.875 L 38.625 38.117188 C 38.601562 38.144531 38.597656 38.171875 38.621094 38.203125 L 38.6875 38.300781 C 38.734375 38.371094 38.828125 38.390625 38.898438 38.34375 C 39.046875 38.242188 39.09375 38.101562 39.035156 37.914062 C 39 37.808594 38.945312 37.796875 38.871094 37.875 Z M 40.0625 45.886719 C 37.222656 46.898438 35.328125 48.488281 34.398438 51.46875 C 34.382812 51.523438 34.402344 51.558594 34.453125 51.578125 L 34.535156 51.613281 C 34.542969 51.617188 34.550781 51.613281 34.554688 51.601562 C 35.730469 49.175781 37.230469 47.324219 39.863281 46.421875 C 40.101562 46.34375 40.382812 46.359375 40.707031 46.46875 C 44.144531 47.648438 45.3125 49.660156 46.453125 52.871094 C 46.457031 52.875 46.457031 52.875 46.464844 52.875 C 46.472656 52.867188 46.46875 52.871094 46.441406 52.878906 C 46.433594 52.882812 46.425781 52.882812 46.425781 52.871094 C 46.179688 50.617188 45.21875 48.800781 43.539062 47.421875 C 42.753906 46.773438 41.535156 46.300781 40.746094 45.828125 C 40.625 45.753906 40.601562 45.660156 40.675781 45.542969 C 40.730469 45.457031 40.757812 45.363281 40.75 45.261719 C 40.644531 43.621094 40.574219 41.976562 40.535156 40.328125 C 40.523438 39.890625 40.710938 39.648438 41.101562 39.601562 C 41.277344 39.578125 41.285156 39.527344 41.128906 39.449219 C 40.914062 39.34375 40.75 39.183594 40.640625 38.96875 C 40.574219 38.835938 40.488281 38.824219 40.386719 38.9375 C 40.132812 39.21875 39.816406 39.378906 39.441406 39.417969 C 39.265625 39.433594 39.257812 39.480469 39.414062 39.5625 C 39.558594 39.640625 39.71875 39.691406 39.886719 39.714844 C 40.027344 39.738281 40.097656 39.820312 40.09375 39.964844 C 40.042969 41.820312 39.832031 43.847656 40.191406 45.664062 C 40.210938 45.773438 40.171875 45.847656 40.0625 45.886719 Z M 40.0625 45.886719 "/>
<path style=" stroke:none;fill-rule:nonzero;fill:rgb(0.392157%,0.392157%,0.392157%);fill-opacity:1;" d="M 41.539062 38.355469 C 41.671875 38.316406 41.691406 38.027344 41.589844 37.71875 C 41.488281 37.410156 41.300781 37.195312 41.171875 37.234375 C 41.042969 37.277344 41.019531 37.5625 41.121094 37.875 C 41.222656 38.183594 41.410156 38.398438 41.539062 38.355469 Z M 41.539062 38.355469 "/>
<path style=" stroke:none;fill-rule:nonzero;fill:rgb(0.392157%,0.392157%,0.392157%);fill-opacity:1;" d="M 39.035156 37.914062 C 39.09375 38.101562 39.046875 38.242188 38.898438 38.34375 C 38.828125 38.390625 38.734375 38.371094 38.6875 38.300781 L 38.621094 38.203125 C 38.597656 38.171875 38.601562 38.144531 38.625 38.117188 L 38.871094 37.875 C 38.945312 37.796875 39 37.808594 39.035156 37.914062 Z M 39.035156 37.914062 "/>
<path style=" stroke:none;fill-rule:nonzero;fill:rgb(0.392157%,0.392157%,0.392157%);fill-opacity:1;" d="M 40.191406 45.664062 C 39.832031 43.847656 40.042969 41.820312 40.09375 39.964844 C 40.097656 39.820312 40.027344 39.738281 39.886719 39.714844 C 39.71875 39.691406 39.558594 39.640625 39.414062 39.5625 C 39.257812 39.480469 39.265625 39.433594 39.441406 39.417969 C 39.816406 39.378906 40.132812 39.21875 40.386719 38.9375 C 40.488281 38.824219 40.574219 38.835938 40.640625 38.96875 C 40.75 39.183594 40.914062 39.34375 41.128906 39.449219 C 41.285156 39.527344 41.277344 39.578125 41.101562 39.601562 C 40.710938 39.648438 40.523438 39.890625 40.535156 40.328125 C 40.574219 41.976562 40.644531 43.621094 40.75 45.261719 C 40.757812 45.363281 40.730469 45.457031 40.675781 45.542969 C 40.601562 45.660156 40.625 45.753906 40.746094 45.828125 C 41.535156 46.300781 42.753906 46.773438 43.539062 47.421875 C 45.21875 48.800781 46.179688 50.617188 46.425781 52.871094 C 46.425781 52.882812 46.433594 52.882812 46.441406 52.878906 C 46.46875 52.871094 46.472656 52.867188 46.464844 52.875 C 46.457031 52.875 46.457031 52.875 46.453125 52.871094 C 45.3125 49.660156 44.144531 47.648438 40.707031 46.46875 C 40.382812 46.359375 40.101562 46.34375 39.863281 46.421875 C 37.230469 47.324219 35.730469 49.175781 34.554688 51.601562 C 34.550781 51.613281 34.542969 51.617188 34.535156 51.613281 L 34.453125 51.578125 C 34.402344 51.558594 34.382812 51.523438 34.398438 51.46875 C 35.328125 48.488281 37.222656 46.898438 40.0625 45.886719 C 40.171875 45.847656 40.210938 45.773438 40.191406 45.664062 Z M 40.191406 45.664062 "/>
<path style=" stroke:none;fill-rule:nonzero;fill:rgb(80.392157%,67.058824%,55.294118%);fill-opacity:1;" d="M 61.460938 42.078125 C 61.535156 41.9375 61.578125 41.945312 61.589844 42.101562 C 61.65625 42.941406 60.390625 44.277344 59.726562 44.625 C 58.816406 45.105469 57.824219 45.199219 56.757812 44.917969 C 56.707031 44.902344 56.691406 44.875 56.714844 44.828125 C 56.726562 44.800781 56.738281 44.773438 56.753906 44.75 C 56.765625 44.722656 56.785156 44.710938 56.8125 44.714844 C 58.9375 44.800781 60.488281 43.921875 61.460938 42.078125 Z M 61.460938 42.078125 "/>
<path style=" stroke:none;fill-rule:nonzero;fill:rgb(80.392157%,67.058824%,55.294118%);fill-opacity:1;" d="M 19 42.761719 C 20.234375 44.328125 22.453125 45.269531 24.335938 44.15625 C 24.839844 43.859375 24.890625 43.929688 24.496094 44.355469 C 23.644531 45.285156 22.125 45.210938 21.007812 44.9375 C 19.757812 44.628906 18.984375 43.875 18.6875 42.671875 C 18.609375 42.363281 18.667969 42.335938 18.863281 42.585938 C 18.875 42.601562 18.921875 42.660156 19 42.761719 Z M 19 42.761719 "/>
<path style=" stroke:none;fill-rule:nonzero;fill:rgb(26.666667%,15.686275%,13.72549%);fill-opacity:1;" d="M 55.625 51.3125 C 55.601562 54.058594 55.398438 57.277344 53.679688 59.460938 C 52.390625 60.328125 51.054688 59.863281 49.640625 60.316406 C 47.765625 60.917969 45.855469 61.476562 43.867188 61.492188 C 39.683594 61.535156 35.910156 61.773438 31.558594 60.621094 C 31.089844 60.492188 30.320312 60.359375 29.25 60.222656 C 28.445312 60.117188 27.667969 59.917969 26.917969 59.621094 C 25.285156 57.476562 24.988281 54.800781 24.960938 52.238281 C 24.941406 51.832031 24.953125 51.519531 24.996094 51.300781 C 25.097656 50.769531 25.277344 50.746094 25.527344 51.21875 C 25.878906 51.886719 27.277344 52.761719 27.886719 53.308594 C 29.246094 54.523438 31.128906 55.15625 32.75 55.929688 C 32.816406 55.960938 32.890625 55.960938 32.957031 55.929688 C 33.019531 55.898438 33.066406 55.835938 33.082031 55.765625 C 33.21875 55.136719 33.40625 54.527344 33.644531 53.9375 C 33.84375 53.4375 33.96875 53.457031 34.011719 53.992188 C 34.078125 54.789062 33.542969 55.964844 34.839844 56.191406 C 35.527344 56.308594 36.210938 56.441406 36.894531 56.589844 C 40.378906 57.347656 42.828125 56.855469 46.203125 55.679688 C 46.308594 55.644531 46.386719 55.578125 46.441406 55.480469 C 46.808594 54.816406 46.820312 54.113281 46.480469 53.367188 C 46.464844 53.335938 46.472656 53.3125 46.507812 53.300781 L 46.597656 53.265625 C 46.664062 53.242188 46.707031 53.265625 46.726562 53.332031 L 47.371094 55.464844 C 47.398438 55.554688 47.460938 55.628906 47.542969 55.667969 C 47.625 55.707031 47.722656 55.707031 47.808594 55.671875 C 48.898438 55.214844 49.996094 54.6875 51.089844 54.082031 C 52.066406 53.542969 52.78125 52.597656 53.882812 52.039062 C 53.984375 51.988281 54.070312 51.90625 54.125 51.808594 C 54.355469 51.386719 54.644531 51.113281 54.992188 50.988281 C 55.382812 50.851562 55.59375 50.957031 55.625 51.3125 Z M 55.625 51.3125 "/>
</g>
</svg>
