<?xml version="1.0" encoding="UTF-8"?>
<svg xmlns="http://www.w3.org/2000/svg" xmlns:xlink="http://www.w3.org/1999/xlink" width="60px" height="60px" viewBox="0 0 60 60" version="1.1">
<g id="surface1">
<path style="fill:none;stroke-width:2;stroke-linecap:butt;stroke-linejoin:miter;stroke:rgb(60.392157%,69.411765%,72.156863%);stroke-opacity:1;stroke-miterlimit:4;" d="M 84.75 124.34375 C 86.953125 123.140625 89.96875 122.171875 92.5 120.984375 C 94.609375 120 97.9375 119.515625 102.5 119.5625 C 114.5 119.703125 126.5 119.78125 138.5 119.8125 C 144.84375 119.8125 152.0625 116.203125 156.84375 112.34375 C 161.9375 108.234375 168.21875 98.921875 168.65625 92.453125 C 169.328125 82.171875 169.5625 70.015625 169.375 56 C 169.25 46.8125 165.765625 38.84375 158.9375 32.078125 C 153.046875 26.234375 146.15625 23.203125 138.25 22.984375 C 133.390625 22.84375 122.828125 22.84375 106.53125 22.984375 C 96.1875 23.0625 89.3125 24.421875 82.046875 30.78125 C 74.984375 36.953125 71.28125 44.78125 70.953125 54.25 C 70.796875 58.890625 70.6875 63.484375 70.625 68.046875 C 70.625 68.375 70.890625 68.65625 71.234375 68.65625 L 118.84375 68.71875 C 118.96875 68.71875 119.078125 68.765625 119.15625 68.84375 C 119.234375 68.921875 119.265625 69.03125 119.265625 69.15625 L 119.1875 73.234375 C 119.171875 73.484375 119.046875 73.609375 118.78125 73.625 C 94.28125 73.734375 72.84375 73.765625 54.484375 73.734375 C 49.15625 73.71875 45.0625 74.15625 42.171875 75.046875 C 33.09375 77.8125 26.484375 83.8125 22.328125 93.0625 C 20.484375 97.1875 19.546875 100.25 19.546875 102.296875 C 19.515625 112.640625 19.5 122.984375 19.515625 133.328125 C 19.515625 140.125 20.015625 145.015625 21.015625 148.015625 C 24.625 158.828125 34.125 167.421875 45.25 169.796875 C 50.65625 170.953125 58.203125 170.484375 64.4375 170.46875 C 64.578125 170.46875 64.71875 170.40625 64.8125 170.3125 C 64.921875 170.203125 64.96875 170.0625 64.96875 169.921875 C 64.84375 163.375 64.625 156.015625 65.796875 150.09375 C 68.0625 138.640625 74.375 130.0625 84.75 124.34375 " transform="matrix(0.25,0,0,0.25,0,0)"/>
<path style="fill:none;stroke-width:2;stroke-linecap:butt;stroke-linejoin:miter;stroke:rgb(100%,88.235294%,53.333333%);stroke-opacity:1;stroke-miterlimit:4;" d="M 74.625 205.234375 C 75.578125 206.453125 75.859375 207.984375 77.046875 209.1875 C 78.9375 211.09375 80.828125 213.03125 82.6875 215 C 85.015625 217.4375 87.75 218.59375 90.625 220.234375 C 90.921875 220.40625 91.21875 220.484375 91.546875 220.484375 C 109.59375 220.484375 127.640625 220.5 145.6875 220.5 C 147.5 220.5 149.140625 220.140625 150.578125 219.421875 C 159.984375 214.71875 165.8125 207.3125 168.078125 197.234375 C 169.328125 191.65625 168.8125 184.40625 168.953125 178.125 C 168.96875 177.90625 168.890625 177.703125 168.734375 177.5625 C 168.59375 177.40625 168.390625 177.3125 168.1875 177.3125 L 121.765625 177.203125 C 121.03125 177.203125 120.65625 176.84375 120.640625 176.109375 L 120.578125 173.25 C 120.5625 172.421875 120.96875 172.015625 121.796875 172.046875 C 144.71875 172.640625 167.796875 172.046875 190.734375 171.9375 C 195.359375 171.921875 199.703125 170.625 203.78125 168.046875 C 211.234375 163.34375 217.09375 156.53125 219.0625 147.75 C 221.296875 137.875 220.46875 126.453125 220.328125 111.015625 C 220.25 101.984375 219.390625 95.65625 214.453125 89 C 211.4375 84.90625 207.921875 81.65625 203.890625 79.234375 C 195.40625 74.15625 185.203125 75.53125 175.6875 75.5 C 175.328125 75.5 175.03125 75.78125 175.03125 76.140625 C 175.03125 88.984375 175.796875 99.40625 167.5 110.265625 C 162.03125 117.40625 155.203125 122.125 147 124.40625 C 143.5625 125.359375 138.015625 125.828125 130.359375 125.8125 C 123.484375 125.796875 116.59375 125.796875 109.71875 125.8125 C 101.953125 125.828125 96.4375 126.359375 93.15625 127.40625 C 82.125 130.921875 73.34375 140.9375 71.34375 152.4375 C 71.046875 154.15625 70.84375 159.21875 70.765625 167.609375 C 70.6875 175.28125 70.6875 182.953125 70.796875 190.640625 C 70.84375 195.046875 71.8125 201.671875 74.625 205.234375 " transform="matrix(0.25,0,0,0.25,0,0)"/>
<path style="fill:none;stroke-width:2;stroke-linecap:butt;stroke-linejoin:miter;stroke:rgb(60.392157%,71.372549%,80%);stroke-opacity:1;stroke-miterlimit:4;" d="M 101.4375 46.703125 C 101.4375 41.5625 97.265625 37.375 92.109375 37.375 C 86.953125 37.375 82.78125 41.5625 82.78125 46.703125 C 82.78125 51.859375 86.953125 56.046875 92.109375 56.046875 C 97.265625 56.046875 101.4375 51.859375 101.4375 46.703125 " transform="matrix(0.25,0,0,0.25,0,0)"/>
<path style="fill:none;stroke-width:2;stroke-linecap:butt;stroke-linejoin:miter;stroke:rgb(100%,88.235294%,53.333333%);stroke-opacity:1;stroke-miterlimit:4;" d="M 139.203125 194.765625 C 137.109375 198.4375 137.421875 201.671875 140.1875 204.5 " transform="matrix(0.25,0,0,0.25,0,0)"/>
<path style="fill:none;stroke-width:2;stroke-linecap:butt;stroke-linejoin:miter;stroke:rgb(100%,90.196078%,61.568627%);stroke-opacity:1;stroke-miterlimit:4;" d="M 140.1875 204.5 C 144.703125 209.578125 151.75 209.5625 155.59375 204 C 159.140625 198.875 155.765625 190.734375 149.515625 189.546875 C 145.15625 188.734375 141.359375 191.078125 139.203125 194.765625 " transform="matrix(0.25,0,0,0.25,0,0)"/>
<path style="fill:none;stroke-width:2;stroke-linecap:butt;stroke-linejoin:miter;stroke:rgb(100%,98.039216%,92.156863%);stroke-opacity:1;stroke-miterlimit:4;" d="M 140.1875 204.5 C 140.015625 202.8125 139 201.65625 138.875 200.09375 C 138.734375 198.3125 138.84375 196.53125 139.203125 194.765625 " transform="matrix(0.25,0,0,0.25,0,0)"/>
<path style=" stroke:none;fill-rule:nonzero;fill:rgb(100%,96.078431%,83.921569%);fill-opacity:1;" d="M 28.542969 0 L 31.304688 0 C 47 0.90625 58.898438 12.824219 60 28.476562 L 60 31.246094 C 59.132812 46.945312 47.234375 58.863281 31.585938 60 L 28.695312 60 C 22.421875 59.652344 16.902344 57.6875 12.140625 54.105469 C 4.722656 48.519531 0.671875 40.953125 0 31.40625 L 0 28.691406 C 0.988281 13.003906 12.824219 0.992188 28.542969 0 Z M 21.1875 31.085938 C 21.738281 30.785156 22.492188 30.542969 23.125 30.246094 C 23.652344 30 24.484375 29.878906 25.625 29.890625 C 28.625 29.925781 31.625 29.945312 34.625 29.953125 C 36.210938 29.953125 38.015625 29.050781 39.210938 28.085938 C 40.484375 27.058594 42.054688 24.730469 42.164062 23.113281 C 42.332031 20.542969 42.390625 17.503906 42.34375 14 C 42.3125 11.703125 41.441406 9.710938 39.734375 8.019531 C 38.261719 6.558594 36.539062 5.800781 34.5625 5.746094 C 33.347656 5.710938 30.707031 5.710938 26.632812 5.746094 C 24.046875 5.765625 22.328125 6.105469 20.511719 7.695312 C 18.746094 9.238281 17.820312 11.195312 17.738281 13.5625 C 17.699219 14.722656 17.671875 15.871094 17.65625 17.011719 C 17.65625 17.09375 17.722656 17.164062 17.808594 17.164062 L 29.710938 17.179688 C 29.742188 17.179688 29.769531 17.191406 29.789062 17.210938 C 29.808594 17.230469 29.816406 17.257812 29.816406 17.289062 L 29.796875 18.308594 C 29.792969 18.371094 29.761719 18.402344 29.695312 18.40625 C 23.570312 18.433594 18.210938 18.441406 13.621094 18.433594 C 12.289062 18.429688 11.265625 18.539062 10.542969 18.761719 C 8.273438 19.453125 6.621094 20.953125 5.582031 23.265625 C 5.121094 24.296875 4.886719 25.0625 4.886719 25.574219 C 4.878906 28.160156 4.875 30.746094 4.878906 33.332031 C 4.878906 35.03125 5.003906 36.253906 5.253906 37.003906 C 6.15625 39.707031 8.53125 41.855469 11.3125 42.449219 C 12.664062 42.738281 14.550781 42.621094 16.109375 42.617188 C 16.144531 42.617188 16.179688 42.601562 16.203125 42.578125 C 16.230469 42.550781 16.242188 42.515625 16.242188 42.480469 C 16.210938 40.84375 16.15625 39.003906 16.449219 37.523438 C 17.015625 34.660156 18.59375 32.515625 21.1875 31.085938 Z M 18.65625 51.308594 C 18.894531 51.613281 18.964844 51.996094 19.261719 52.296875 C 19.734375 52.773438 20.207031 53.257812 20.671875 53.75 C 21.253906 54.359375 21.9375 54.648438 22.65625 55.058594 C 22.730469 55.101562 22.804688 55.121094 22.886719 55.121094 C 27.398438 55.121094 31.910156 55.125 36.421875 55.125 C 36.875 55.125 37.285156 55.035156 37.644531 54.855469 C 39.996094 53.679688 41.453125 51.828125 42.019531 49.308594 C 42.332031 47.914062 42.203125 46.101562 42.238281 44.53125 C 42.242188 44.476562 42.222656 44.425781 42.183594 44.390625 C 42.148438 44.351562 42.097656 44.328125 42.046875 44.328125 L 30.441406 44.300781 C 30.257812 44.300781 30.164062 44.210938 30.160156 44.027344 L 30.144531 43.3125 C 30.140625 43.105469 30.242188 43.003906 30.449219 43.011719 C 36.179688 43.160156 41.949219 43.011719 47.683594 42.984375 C 48.839844 42.980469 49.925781 42.65625 50.945312 42.011719 C 52.808594 40.835938 54.273438 39.132812 54.765625 36.9375 C 55.324219 34.46875 55.117188 31.613281 55.082031 27.753906 C 55.0625 25.496094 54.847656 23.914062 53.613281 22.25 C 52.859375 21.226562 51.980469 20.414062 50.972656 19.808594 C 48.851562 18.539062 46.300781 18.882812 43.921875 18.875 C 43.832031 18.875 43.757812 18.945312 43.757812 19.035156 C 43.757812 22.246094 43.949219 24.851562 41.875 27.566406 C 40.507812 29.351562 38.800781 30.53125 36.75 31.101562 C 35.890625 31.339844 34.503906 31.457031 32.589844 31.453125 C 30.871094 31.449219 29.148438 31.449219 27.429688 31.453125 C 25.488281 31.457031 24.109375 31.589844 23.289062 31.851562 C 20.53125 32.730469 18.335938 35.234375 17.835938 38.109375 C 17.761719 38.539062 17.710938 39.804688 17.691406 41.902344 C 17.671875 43.820312 17.671875 45.738281 17.699219 47.660156 C 17.710938 48.761719 17.953125 50.417969 18.65625 51.308594 Z M 18.65625 51.308594 "/>
<path style=" stroke:none;fill-rule:nonzero;fill:rgb(20.392157%,42.352941%,60%);fill-opacity:1;" d="M 21.1875 31.085938 C 18.59375 32.515625 17.015625 34.660156 16.449219 37.523438 C 16.15625 39.003906 16.210938 40.84375 16.242188 42.480469 C 16.242188 42.515625 16.230469 42.550781 16.203125 42.578125 C 16.179688 42.601562 16.144531 42.617188 16.109375 42.617188 C 14.550781 42.621094 12.664062 42.738281 11.3125 42.449219 C 8.53125 41.855469 6.15625 39.707031 5.253906 37.003906 C 5.003906 36.253906 4.878906 35.03125 4.878906 33.332031 C 4.875 30.746094 4.878906 28.160156 4.886719 25.574219 C 4.886719 25.0625 5.121094 24.296875 5.582031 23.265625 C 6.621094 20.953125 8.273438 19.453125 10.542969 18.761719 C 11.265625 18.539062 12.289062 18.429688 13.621094 18.433594 C 18.210938 18.441406 23.570312 18.433594 29.695312 18.40625 C 29.761719 18.402344 29.792969 18.371094 29.796875 18.308594 L 29.816406 17.289062 C 29.816406 17.257812 29.808594 17.230469 29.789062 17.210938 C 29.769531 17.191406 29.742188 17.179688 29.710938 17.179688 L 17.808594 17.164062 C 17.722656 17.164062 17.65625 17.09375 17.65625 17.011719 C 17.671875 15.871094 17.699219 14.722656 17.738281 13.5625 C 17.820312 11.195312 18.746094 9.238281 20.511719 7.695312 C 22.328125 6.105469 24.046875 5.765625 26.632812 5.746094 C 30.707031 5.710938 33.347656 5.710938 34.5625 5.746094 C 36.539062 5.800781 38.261719 6.558594 39.734375 8.019531 C 41.441406 9.710938 42.3125 11.703125 42.34375 14 C 42.390625 17.503906 42.332031 20.542969 42.164062 23.113281 C 42.054688 24.730469 40.484375 27.058594 39.210938 28.085938 C 38.015625 29.050781 36.210938 29.953125 34.625 29.953125 C 31.625 29.945312 28.625 29.925781 25.625 29.890625 C 24.484375 29.878906 23.652344 30 23.125 30.246094 C 22.492188 30.542969 21.738281 30.785156 21.1875 31.085938 Z M 25.359375 11.675781 C 25.359375 10.390625 24.316406 9.34375 23.027344 9.34375 C 21.738281 9.34375 20.695312 10.390625 20.695312 11.675781 C 20.695312 12.964844 21.738281 14.011719 23.027344 14.011719 C 24.316406 14.011719 25.359375 12.964844 25.359375 11.675781 Z M 25.359375 11.675781 "/>
<path style=" stroke:none;fill-rule:nonzero;fill:rgb(100%,100%,100%);fill-opacity:1;" d="M 25.359375 11.675781 C 25.359375 12.964844 24.316406 14.011719 23.027344 14.011719 C 21.738281 14.011719 20.695312 12.964844 20.695312 11.675781 C 20.695312 10.390625 21.738281 9.34375 23.027344 9.34375 C 24.316406 9.34375 25.359375 10.390625 25.359375 11.675781 Z M 25.359375 11.675781 "/>
<path style=" stroke:none;fill-rule:nonzero;fill:rgb(100%,80.392157%,22.745098%);fill-opacity:1;" d="M 18.65625 51.308594 C 17.953125 50.417969 17.710938 48.761719 17.699219 47.660156 C 17.671875 45.738281 17.671875 43.820312 17.691406 41.902344 C 17.710938 39.804688 17.761719 38.539062 17.835938 38.109375 C 18.335938 35.234375 20.53125 32.730469 23.289062 31.851562 C 24.109375 31.589844 25.488281 31.457031 27.429688 31.453125 C 29.148438 31.449219 30.871094 31.449219 32.589844 31.453125 C 34.503906 31.457031 35.890625 31.339844 36.75 31.101562 C 38.800781 30.53125 40.507812 29.351562 41.875 27.566406 C 43.949219 24.851562 43.757812 22.246094 43.757812 19.035156 C 43.757812 18.945312 43.832031 18.875 43.921875 18.875 C 46.300781 18.882812 48.851562 18.539062 50.972656 19.808594 C 51.980469 20.414062 52.859375 21.226562 53.613281 22.25 C 54.847656 23.914062 55.0625 25.496094 55.082031 27.753906 C 55.117188 31.613281 55.324219 34.46875 54.765625 36.9375 C 54.273438 39.132812 52.808594 40.835938 50.945312 42.011719 C 49.925781 42.65625 48.839844 42.980469 47.683594 42.984375 C 41.949219 43.011719 36.179688 43.160156 30.449219 43.011719 C 30.242188 43.003906 30.140625 43.105469 30.144531 43.3125 L 30.160156 44.027344 C 30.164062 44.210938 30.257812 44.300781 30.441406 44.300781 L 42.046875 44.328125 C 42.097656 44.328125 42.148438 44.351562 42.183594 44.390625 C 42.222656 44.425781 42.242188 44.476562 42.238281 44.53125 C 42.203125 46.101562 42.332031 47.914062 42.019531 49.308594 C 41.453125 51.828125 39.996094 53.679688 37.644531 54.855469 C 37.285156 55.035156 36.875 55.125 36.421875 55.125 C 31.910156 55.125 27.398438 55.121094 22.886719 55.121094 C 22.804688 55.121094 22.730469 55.101562 22.65625 55.058594 C 21.9375 54.648438 21.253906 54.359375 20.671875 53.75 C 20.207031 53.257812 19.734375 52.773438 19.261719 52.296875 C 18.964844 51.996094 18.894531 51.613281 18.65625 51.308594 Z M 34.800781 48.691406 C 34.277344 49.609375 34.355469 50.417969 35.046875 51.125 C 36.175781 52.394531 37.9375 52.390625 38.898438 51 C 39.785156 49.71875 38.941406 47.683594 37.378906 47.386719 C 36.289062 47.183594 35.339844 47.769531 34.800781 48.691406 Z M 34.800781 48.691406 "/>
<path style=" stroke:none;fill-rule:nonzero;fill:rgb(100%,100%,100%);fill-opacity:1;" d="M 35.046875 51.125 C 35.003906 50.703125 34.75 50.414062 34.71875 50.023438 C 34.683594 49.578125 34.710938 49.132812 34.800781 48.691406 C 35.339844 47.769531 36.289062 47.183594 37.378906 47.386719 C 38.941406 47.683594 39.785156 49.71875 38.898438 51 C 37.9375 52.390625 36.175781 52.394531 35.046875 51.125 Z M 35.046875 51.125 "/>
<path style=" stroke:none;fill-rule:nonzero;fill:rgb(100%,96.078431%,83.921569%);fill-opacity:1;" d="M 34.800781 48.691406 C 34.710938 49.132812 34.683594 49.578125 34.71875 50.023438 C 34.75 50.414062 35.003906 50.703125 35.046875 51.125 C 34.355469 50.417969 34.277344 49.609375 34.800781 48.691406 Z M 34.800781 48.691406 "/>
</g>
</svg>
