<?xml version="1.0" encoding="UTF-8"?>
<svg xmlns="http://www.w3.org/2000/svg" xmlns:xlink="http://www.w3.org/1999/xlink" width="120px" height="120px" viewBox="0 0 120 120" version="1.1">
<g id="surface1">
<path style="fill:none;stroke-width:2;stroke-linecap:butt;stroke-linejoin:miter;stroke:rgb(51.372549%,67.45098%,85.490196%);stroke-opacity:1;stroke-miterlimit:4;" d="M 198.117188 57.367188 C 198.132812 48.945312 191.320312 42.109375 182.90625 42.101562 L 59.367188 41.882812 C 50.945312 41.867188 44.109375 48.679688 44.101562 57.09375 L 43.882812 180.632812 C 43.867188 189.054688 50.679688 195.890625 59.09375 195.898438 L 182.632812 196.117188 C 191.054688 196.132812 197.890625 189.320312 197.898438 180.90625 L 198.117188 57.367188 " transform="matrix(0.5,0,0,0.5,0,0)"/>
<path style="fill:none;stroke-width:2;stroke-linecap:butt;stroke-linejoin:miter;stroke:rgb(59.607843%,73.72549%,89.019608%);stroke-opacity:1;stroke-miterlimit:4;" d="M 180.789062 150.71875 C 175.507812 145.40625 168.070312 142.921875 161.289062 139.617188 C 157.28125 137.65625 153.398438 134.1875 155.703125 129.890625 C 159.960938 121.921875 176.046875 126.351562 181.882812 129.820312 C 182.242188 130.03125 182.421875 129.929688 182.421875 129.523438 L 182.429688 116.710938 C 182.429688 116.359375 182.257812 116.125 181.921875 116.023438 C 171.617188 112.726562 161.898438 112.546875 152.75 115.46875 C 134.898438 121.179688 134.546875 143.398438 150.953125 151.273438 C 155.140625 153.289062 166.15625 157.179688 168.289062 160.960938 C 170.375 164.65625 169.84375 167.484375 166.679688 169.4375 C 158.960938 174.210938 146.4375 170.140625 139.757812 165.03125 C 139.429688 164.773438 139.257812 164.859375 139.257812 165.28125 L 139.257812 179.210938 C 139.257812 179.601562 139.445312 179.867188 139.8125 180.007812 C 151.570312 184.390625 170.6875 185.742188 180.109375 176.703125 C 186.296875 170.75 187.757812 157.726562 180.789062 150.71875 " transform="matrix(0.5,0,0,0.5,0,0)"/>
<path style="fill:none;stroke-width:2;stroke-linecap:butt;stroke-linejoin:miter;stroke:rgb(59.607843%,73.72549%,89.019608%);stroke-opacity:1;stroke-miterlimit:4;" d="M 113.96875 127.742188 C 113.96875 127.554688 114.125 127.398438 114.3125 127.398438 L 132.976562 127.421875 C 133.164062 127.421875 133.320312 127.265625 133.320312 127.078125 L 133.320312 115.46875 C 133.320312 115.28125 133.164062 115.132812 132.976562 115.132812 L 79.882812 115.179688 C 79.695312 115.179688 79.539062 115.335938 79.539062 115.523438 L 79.523438 126.960938 C 79.523438 127.148438 79.671875 127.296875 79.859375 127.296875 L 98.40625 127.40625 C 98.601562 127.40625 98.75 127.5625 98.75 127.75 L 98.75 182.109375 C 98.75 182.296875 98.898438 182.453125 99.09375 182.453125 L 113.570312 182.429688 C 113.757812 182.429688 113.90625 182.28125 113.90625 182.09375 L 113.96875 127.742188 " transform="matrix(0.5,0,0,0.5,0,0)"/>
<path style=" stroke:none;fill-rule:nonzero;fill:rgb(83.529412%,87.843137%,92.941176%);fill-opacity:1;" d="M 56.945312 0 L 62.621094 0 C 94.019531 1.816406 117.773438 25.636719 120 56.945312 L 120 62.371094 C 119.292969 76.035156 114.78125 87.898438 106.464844 97.96875 C 95.222656 111.585938 80.507812 118.929688 62.320312 120 L 57.375 120 C 25.953125 118.035156 1.925781 94.285156 0 62.796875 L 0 57.355469 C 1.429688 37.207031 10.226562 21.511719 26.394531 10.261719 C 35.378906 4.011719 45.726562 1.058594 56.945312 0 Z M 99.058594 28.683594 C 99.066406 24.472656 95.660156 21.054688 91.453125 21.050781 L 29.683594 20.941406 C 25.472656 20.933594 22.054688 24.339844 22.050781 28.546875 L 21.941406 90.316406 C 21.933594 94.527344 25.339844 97.945312 29.546875 97.949219 L 91.316406 98.058594 C 95.527344 98.066406 98.945312 94.660156 98.949219 90.453125 Z M 99.058594 28.683594 "/>
<path style=" stroke:none;fill-rule:nonzero;fill:rgb(19.215686%,47.058824%,77.647059%);fill-opacity:1;" d="M 98.949219 90.453125 C 98.945312 94.660156 95.527344 98.066406 91.316406 98.058594 L 29.546875 97.949219 C 25.339844 97.945312 21.933594 94.527344 21.941406 90.316406 L 22.050781 28.546875 C 22.054688 24.339844 25.472656 20.933594 29.683594 20.941406 L 91.453125 21.050781 C 95.660156 21.054688 99.066406 24.472656 99.058594 28.683594 Z M 90.394531 75.359375 C 87.753906 72.703125 84.035156 71.460938 80.644531 69.808594 C 78.640625 68.828125 76.699219 67.09375 77.851562 64.945312 C 79.980469 60.960938 88.023438 63.175781 90.941406 64.910156 C 91.121094 65.015625 91.210938 64.964844 91.210938 64.761719 L 91.214844 58.355469 C 91.214844 58.179688 91.128906 58.0625 90.960938 58.011719 C 85.808594 56.363281 80.949219 56.273438 76.375 57.734375 C 67.449219 60.589844 67.273438 71.699219 75.476562 75.636719 C 77.570312 76.644531 83.078125 78.589844 84.144531 80.480469 C 85.1875 82.328125 84.921875 83.742188 83.339844 84.71875 C 79.480469 87.105469 73.21875 85.070312 69.878906 82.515625 C 69.714844 82.386719 69.628906 82.429688 69.628906 82.640625 L 69.628906 89.605469 C 69.628906 89.800781 69.722656 89.933594 69.90625 90.003906 C 75.785156 92.195312 85.34375 92.871094 90.054688 88.351562 C 93.148438 85.375 93.878906 78.863281 90.394531 75.359375 Z M 56.984375 63.871094 C 56.984375 63.777344 57.0625 63.699219 57.15625 63.699219 L 66.488281 63.710938 C 66.582031 63.710938 66.660156 63.632812 66.660156 63.539062 L 66.660156 57.734375 C 66.660156 57.640625 66.582031 57.566406 66.488281 57.566406 L 39.941406 57.589844 C 39.847656 57.589844 39.769531 57.667969 39.769531 57.761719 L 39.761719 63.480469 C 39.761719 63.574219 39.835938 63.648438 39.929688 63.648438 L 49.203125 63.703125 C 49.300781 63.703125 49.375 63.78125 49.375 63.875 L 49.375 91.054688 C 49.375 91.148438 49.449219 91.226562 49.546875 91.226562 L 56.785156 91.214844 C 56.878906 91.214844 56.953125 91.140625 56.953125 91.046875 Z M 56.984375 63.871094 "/>
<path style=" stroke:none;fill-rule:nonzero;fill:rgb(100%,100%,100%);fill-opacity:1;" d="M 80.644531 69.808594 C 84.035156 71.460938 87.753906 72.703125 90.394531 75.359375 C 93.878906 78.863281 93.148438 85.375 90.054688 88.351562 C 85.34375 92.871094 75.785156 92.195312 69.90625 90.003906 C 69.722656 89.933594 69.628906 89.800781 69.628906 89.605469 L 69.628906 82.640625 C 69.628906 82.429688 69.714844 82.386719 69.878906 82.515625 C 73.21875 85.070312 79.480469 87.105469 83.339844 84.71875 C 84.921875 83.742188 85.1875 82.328125 84.144531 80.480469 C 83.078125 78.589844 77.570312 76.644531 75.476562 75.636719 C 67.273438 71.699219 67.449219 60.589844 76.375 57.734375 C 80.949219 56.273438 85.808594 56.363281 90.960938 58.011719 C 91.128906 58.0625 91.214844 58.179688 91.214844 58.355469 L 91.210938 64.761719 C 91.210938 64.964844 91.121094 65.015625 90.941406 64.910156 C 88.023438 63.175781 79.980469 60.960938 77.851562 64.945312 C 76.699219 67.09375 78.640625 68.828125 80.644531 69.808594 Z M 80.644531 69.808594 "/>
<path style=" stroke:none;fill-rule:nonzero;fill:rgb(100%,100%,100%);fill-opacity:1;" d="M 56.984375 63.871094 L 56.953125 91.046875 C 56.953125 91.140625 56.878906 91.214844 56.785156 91.214844 L 49.546875 91.226562 C 49.449219 91.226562 49.375 91.148438 49.375 91.054688 L 49.375 63.875 C 49.375 63.78125 49.300781 63.703125 49.203125 63.703125 L 39.929688 63.648438 C 39.835938 63.648438 39.761719 63.574219 39.761719 63.480469 L 39.769531 57.761719 C 39.769531 57.667969 39.847656 57.589844 39.941406 57.589844 L 66.488281 57.566406 C 66.582031 57.566406 66.660156 57.640625 66.660156 57.734375 L 66.660156 63.539062 C 66.660156 63.632812 66.582031 63.710938 66.488281 63.710938 L 57.15625 63.699219 C 57.0625 63.699219 56.984375 63.777344 56.984375 63.871094 Z M 56.984375 63.871094 "/>
</g>
</svg>
